<svg width="342" height="267" viewBox="0 0 342 267" fill="none" xmlns="http://www.w3.org/2000/svg">
<g clip-path="url(#clip0_94_403)">
<path d="M208.537 1.04297H133.463C60.3295 1.04297 1.04272 60.346 1.04272 133.5C1.04272 206.654 60.3295 265.957 133.463 265.957H208.537C281.671 265.957 340.957 206.654 340.957 133.5C340.957 60.346 281.671 1.04297 208.537 1.04297Z" stroke="#070A1C" stroke-width="0.5"/>
<path d="M208.537 16.6875H133.463C68.9673 16.6875 16.6829 68.9862 16.6829 133.5C16.6829 198.014 68.9673 250.313 133.463 250.313H208.537C273.033 250.313 325.317 198.014 325.317 133.5C325.317 68.9862 273.033 16.6875 208.537 16.6875Z" fill="#070A1C"/>
<path d="M79.1943 112.189C81.7659 112.828 83.6115 113.738 84.7213 115.148C85.047 116.329 85.0233 117.499 85.0074 118.69C85.0112 119.046 85.0149 119.401 85.0191 119.767C85.027 120.738 85.0254 121.709 85.0183 122.68C85.0124 123.698 85.0179 124.717 85.0212 125.735C85.0254 127.444 85.0199 129.154 85.0095 130.864C84.9974 132.838 85.0012 134.811 85.0137 136.786C85.0237 138.483 85.025 140.181 85.0191 141.879C85.0158 142.891 85.0154 143.904 85.0224 144.917C85.0283 146.046 85.0195 147.175 85.0074 148.304C85.0116 148.638 85.0162 148.972 85.0208 149.316C84.9841 151.143 84.8026 152.235 82.5104 153.622C80.3996 154.696 78.7063 154.897 75.8781 154.954C73.0495 154.897 71.3566 154.696 69.2454 153.622C66.5298 151.978 66.72 150.432 66.7488 148.304C66.7451 147.949 66.7409 147.593 66.7371 147.227C66.7288 146.256 66.7309 145.285 66.738 144.314C66.7434 143.296 66.7384 142.278 66.7346 141.259C66.7309 139.55 66.7359 137.84 66.7467 136.131C66.7584 134.157 66.7546 132.183 66.7425 130.209C66.7325 128.511 66.7313 126.814 66.7367 125.116C66.7405 124.103 66.7409 123.091 66.7334 122.078C66.728 120.949 66.7363 119.82 66.7488 118.69C66.7442 118.356 66.7396 118.023 66.735 117.678C66.7722 115.851 66.9536 114.76 69.2454 113.373C72.1591 111.89 75.3851 111.914 79.1943 112.189Z" fill="white"/>
<path d="M112.068 83.5835C114.123 84.2247 115.617 85.1346 116.489 86.5547C116.752 87.81 116.727 89.0558 116.713 90.3215C116.716 90.7053 116.719 91.0887 116.722 91.4842C116.729 92.5472 116.726 93.6102 116.72 94.6732C116.716 95.8205 116.722 96.9673 116.727 98.1146C116.735 100.361 116.733 102.608 116.728 104.854C116.724 106.68 116.723 108.506 116.726 110.331C116.726 110.591 116.726 110.851 116.726 111.119C116.727 111.646 116.727 112.174 116.728 112.702C116.733 117.652 116.727 122.601 116.718 127.551C116.71 131.798 116.711 136.046 116.719 140.293C116.729 145.225 116.733 150.157 116.727 155.089C116.726 155.615 116.726 156.14 116.726 156.666C116.725 156.925 116.725 157.184 116.725 157.45C116.723 159.274 116.726 161.097 116.73 162.921C116.735 165.143 116.733 167.366 116.724 169.588C116.719 170.722 116.718 171.856 116.723 172.99C116.73 174.219 116.722 175.447 116.713 176.676C116.717 177.035 116.721 177.394 116.725 177.764C116.699 179.639 116.62 180.809 114.72 182.225C113.032 183.303 111.678 183.506 109.415 183.562C107.153 183.506 105.799 183.303 104.111 182.225C101.856 180.545 102.094 178.86 102.118 176.676C102.115 176.293 102.112 175.909 102.11 175.513C102.102 174.45 102.106 173.387 102.111 172.324C102.115 171.177 102.109 170.03 102.104 168.883C102.096 166.636 102.098 164.39 102.103 162.143C102.107 160.318 102.108 158.492 102.106 156.666C102.105 156.407 102.105 156.147 102.105 155.879C102.104 155.351 102.104 154.823 102.103 154.296C102.098 149.346 102.104 144.396 102.113 139.447C102.121 135.199 102.12 130.952 102.112 126.705C102.103 121.773 102.099 116.841 102.104 111.909C102.105 111.383 102.105 110.857 102.106 110.331C102.106 110.073 102.106 109.814 102.107 109.547C102.108 107.724 102.105 105.9 102.101 104.077C102.096 101.854 102.098 99.6319 102.107 97.4095C102.112 96.2756 102.114 95.1421 102.108 94.0078C102.102 92.7792 102.109 91.5505 102.118 90.3215C102.114 89.9627 102.11 89.6039 102.106 89.2339C102.132 87.3591 102.211 86.1884 104.111 84.7721C106.441 83.2844 109.021 83.3082 112.068 83.5835Z" fill="#EEC70A"/>
<path d="M143.774 97.8863C145.97 98.5705 147.04 99.4416 148.195 100.854C148.442 101.749 148.434 102.626 148.419 103.535C148.422 103.801 148.425 104.068 148.428 104.343C148.435 105.236 148.429 106.128 148.423 107.021C148.426 107.661 148.429 108.302 148.433 108.943C148.441 110.681 148.438 112.42 148.432 114.159C148.428 115.979 148.432 117.798 148.435 119.618C148.438 122.673 148.434 125.729 148.425 128.784C148.415 132.317 148.419 135.85 148.428 139.383C148.437 142.416 148.438 145.449 148.433 148.482C148.43 150.294 148.43 152.105 148.436 153.917C148.441 155.62 148.437 157.323 148.427 159.026C148.425 159.651 148.425 160.277 148.429 160.902C148.434 161.755 148.428 162.608 148.419 163.461C148.423 163.709 148.427 163.956 148.431 164.212C148.4 165.786 147.964 166.667 146.426 167.922C144.738 168.999 143.383 169.202 141.121 169.258C138.859 169.202 137.504 168.999 135.816 167.922C133.969 166.415 133.793 165.329 133.823 163.461C133.819 163.061 133.819 163.061 133.815 162.653C133.808 161.76 133.813 160.867 133.818 159.975C133.816 159.334 133.813 158.693 133.809 158.053C133.801 156.314 133.804 154.575 133.81 152.837C133.814 151.017 133.81 149.197 133.807 147.378C133.804 144.322 133.808 141.267 133.817 138.211C133.826 134.678 133.823 131.145 133.814 127.613C133.805 124.58 133.805 121.547 133.809 118.514C133.812 116.702 133.812 114.89 133.806 113.079C133.801 111.376 133.805 109.672 133.815 107.969C133.818 107.344 133.817 106.719 133.813 106.094C133.808 105.24 133.814 104.388 133.823 103.535C133.817 103.163 133.817 103.163 133.811 102.784C133.843 101.21 134.278 100.329 135.816 99.0732C138.146 97.5872 140.727 97.611 143.774 97.8863Z" fill="#29F2FF"/>
<path d="M175.481 66.884C177.681 67.5706 178.721 68.4526 179.902 69.8577C180.124 70.8935 180.124 70.8935 180.125 72.0604C180.129 72.385 180.129 72.385 180.133 72.7162C180.139 73.4417 180.133 74.1668 180.127 74.8927C180.129 75.4179 180.132 75.9432 180.135 76.4684C180.143 77.9123 180.139 79.3558 180.134 80.7997C180.13 82.3566 180.136 83.9136 180.141 85.4705C180.149 88.5206 180.147 91.5706 180.142 94.6211C180.138 97.0996 180.137 99.5781 180.139 102.057C180.139 102.409 180.14 102.762 180.14 103.125C180.141 103.841 180.141 104.557 180.141 105.273C180.146 111.99 180.141 118.708 180.131 125.425C180.123 131.191 180.125 136.958 180.133 142.724C180.142 149.417 180.146 156.11 180.141 162.803C180.14 163.517 180.14 164.23 180.139 164.943C180.139 165.295 180.139 165.646 180.138 166.007C180.137 168.483 180.139 170.96 180.144 173.436C180.149 176.452 180.147 179.469 180.138 182.486C180.133 184.026 180.131 185.565 180.137 187.105C180.142 188.514 180.139 189.923 180.13 191.331C180.128 191.842 180.129 192.352 180.134 192.862C180.139 193.555 180.133 194.247 180.125 194.94C180.125 195.325 180.124 195.71 180.124 196.107C179.791 197.665 178.695 198.568 177.029 199.633C174.746 200.346 172.652 200.341 170.177 200.116C167.978 199.429 166.938 198.548 165.756 197.142C165.534 196.107 165.534 196.107 165.533 194.94C165.531 194.724 165.528 194.507 165.526 194.284C165.519 193.558 165.526 192.833 165.531 192.107C165.529 191.582 165.527 191.057 165.523 190.532C165.516 189.088 165.519 187.644 165.525 186.2C165.529 184.643 165.523 183.087 165.518 181.53C165.51 178.48 165.512 175.429 165.517 172.379C165.521 169.901 165.521 167.422 165.519 164.943C165.519 164.591 165.519 164.238 165.518 163.875C165.518 163.159 165.518 162.443 165.517 161.727C165.512 155.01 165.518 148.292 165.527 141.575C165.535 135.809 165.533 130.042 165.526 124.276C165.516 117.583 165.512 110.89 165.518 104.197C165.518 103.483 165.519 102.77 165.519 102.057C165.52 101.53 165.52 101.53 165.52 100.993C165.522 98.5168 165.519 96.0404 165.515 93.5644C165.51 90.5477 165.511 87.531 165.521 84.5143C165.526 82.9745 165.527 81.435 165.521 79.8952C165.516 78.4864 165.519 77.0775 165.528 75.6687C165.531 75.1585 165.529 74.6482 165.525 74.138C165.52 73.4451 165.525 72.7529 165.533 72.0604C165.534 71.6754 165.534 71.2903 165.534 70.8935C165.868 69.3353 166.964 68.4317 168.629 67.3671C170.913 66.6541 173.006 66.6595 175.481 66.884Z" fill="white"/>
<path d="M207.189 97.8863C209.384 98.5705 210.454 99.4416 211.61 100.854C211.857 101.749 211.849 102.626 211.834 103.535C211.837 103.801 211.84 104.068 211.842 104.343C211.849 105.236 211.844 106.128 211.839 107.021C211.841 107.661 211.844 108.302 211.848 108.943C211.856 110.681 211.853 112.42 211.847 114.159C211.843 115.979 211.847 117.798 211.849 119.618C211.853 122.673 211.849 125.729 211.84 128.784C211.831 132.317 211.834 135.85 211.843 139.383C211.851 142.416 211.852 145.449 211.848 148.482C211.845 150.294 211.845 152.105 211.851 153.917C211.856 155.62 211.852 157.323 211.842 159.026C211.839 159.651 211.84 160.277 211.844 160.902C211.849 161.755 211.843 162.608 211.834 163.461C211.838 163.709 211.842 163.956 211.846 164.212C211.814 165.786 211.379 166.667 209.841 167.922C208.152 168.999 206.798 169.202 204.536 169.258C202.273 169.202 200.919 168.999 199.23 167.922C197.384 166.415 197.208 165.329 197.238 163.461C197.233 163.061 197.233 163.061 197.229 162.653C197.222 161.76 197.228 160.867 197.233 159.975C197.231 159.334 197.228 158.693 197.224 158.053C197.216 156.314 197.219 154.575 197.225 152.837C197.229 151.017 197.225 149.197 197.222 147.378C197.219 144.322 197.223 141.267 197.231 138.211C197.241 134.678 197.238 131.145 197.228 127.613C197.22 124.58 197.219 121.547 197.224 118.514C197.226 116.702 197.227 114.89 197.221 113.079C197.216 111.376 197.22 109.672 197.23 107.969C197.232 107.344 197.231 106.719 197.228 106.094C197.223 105.24 197.229 104.388 197.238 103.535C197.232 103.163 197.232 103.163 197.226 102.784C197.257 101.21 197.693 100.329 199.23 99.0732C201.561 97.5872 204.141 97.611 207.189 97.8863Z" fill="#EEC70A"/>
<path d="M238.897 83.5835C240.951 84.2247 242.446 85.1346 243.317 86.5547C243.58 87.81 243.556 89.0558 243.542 90.3215C243.544 90.7053 243.547 91.0887 243.55 91.4842C243.557 92.5472 243.554 93.6102 243.548 94.6732C243.544 95.8205 243.551 96.9673 243.555 98.1146C243.563 100.361 243.562 102.608 243.557 104.854C243.552 106.68 243.552 108.506 243.554 110.331C243.554 110.591 243.554 110.851 243.554 111.119C243.555 111.646 243.556 112.174 243.557 112.702C243.562 117.652 243.556 122.601 243.546 127.551C243.538 131.798 243.539 136.046 243.548 140.293C243.557 145.225 243.561 150.157 243.555 155.089C243.555 155.615 243.554 156.14 243.554 156.666C243.554 156.925 243.553 157.184 243.553 157.45C243.552 159.274 243.554 161.097 243.558 162.921C243.563 165.143 243.562 167.366 243.552 169.588C243.548 170.722 243.546 171.856 243.552 172.99C243.558 174.219 243.551 175.447 243.542 176.676C243.546 177.035 243.549 177.394 243.554 177.764C243.527 179.639 243.449 180.809 241.549 182.225C239.86 183.303 238.506 183.506 236.244 183.562C233.982 183.506 232.628 183.303 230.939 182.225C228.684 180.545 228.922 178.86 228.946 176.676C228.944 176.293 228.941 175.909 228.938 175.513C228.931 174.45 228.934 173.387 228.94 172.324C228.944 171.177 228.937 170.03 228.933 168.883C228.925 166.636 228.926 164.39 228.931 162.143C228.936 160.318 228.936 158.492 228.934 156.666C228.934 156.407 228.934 156.147 228.933 155.879C228.933 155.351 228.932 154.823 228.931 154.296C228.926 149.346 228.932 144.396 228.942 139.447C228.95 135.199 228.949 130.952 228.94 126.705C228.931 121.773 228.927 116.841 228.932 111.909C228.933 111.383 228.934 110.857 228.934 110.331C228.934 110.073 228.935 109.814 228.935 109.547C228.936 107.724 228.934 105.9 228.93 104.077C228.925 101.854 228.926 99.6319 228.936 97.4095C228.94 96.2756 228.942 95.1421 228.936 94.0078C228.93 92.7792 228.937 91.5505 228.946 90.3215C228.942 89.9627 228.939 89.6039 228.934 89.2339C228.961 87.3591 229.039 86.1884 230.939 84.7721C233.269 83.2844 235.85 83.3082 238.897 83.5835Z" fill="#29F2FF"/>
<path d="M270.604 112.189C272.661 112.828 274.138 113.738 275.026 115.148C275.286 116.329 275.267 117.499 275.255 118.69C275.257 119.046 275.261 119.401 275.264 119.767C275.27 120.738 275.269 121.709 275.263 122.68C275.259 123.698 275.263 124.717 275.266 125.735C275.269 127.444 275.265 129.154 275.256 130.864C275.247 132.838 275.25 134.811 275.26 136.786C275.267 138.483 275.269 140.181 275.264 141.879C275.261 142.891 275.261 143.904 275.267 144.917C275.271 146.046 275.265 147.175 275.255 148.304C275.258 148.638 275.262 148.972 275.265 149.316C275.236 151.143 275.091 152.235 273.257 153.622C271.568 154.696 270.214 154.897 267.951 154.954C265.689 154.897 264.334 154.696 262.645 153.622C260.473 151.978 260.625 150.432 260.648 148.304C260.644 147.949 260.642 147.593 260.638 147.227C260.632 146.256 260.633 145.285 260.639 144.314C260.644 143.296 260.639 142.278 260.637 141.259C260.633 139.55 260.637 137.84 260.646 136.131C260.656 134.157 260.652 132.183 260.643 130.209C260.635 128.511 260.634 126.814 260.638 125.116C260.641 124.103 260.642 123.091 260.635 122.078C260.631 120.949 260.638 119.82 260.648 118.69C260.644 118.356 260.641 118.023 260.637 117.678C260.667 115.851 260.812 114.76 262.645 113.373C264.976 111.89 267.557 111.914 270.604 112.189Z" fill="#29F2FF"/>
</g>
<defs>
<clipPath id="clip0_94_403">
<rect width="342" height="267" fill="white"/>
</clipPath>
</defs>
</svg>
