<svg width="88" height="72" viewBox="0 0 88 72" fill="none" xmlns="http://www.w3.org/2000/svg">
<rect width="87.3333" height="72" transform="translate(0.603516)" fill="black"/>
<g opacity="0.5">
<mask id="mask0_123_168" style="mask-type:alpha" maskUnits="userSpaceOnUse" x="32" y="15" width="25" height="24">
<rect x="32.1035" y="15" width="24" height="24" fill="#D9D9D9"/>
</mask>
<g mask="url(#mask0_123_168)">
<path d="M41.1035 35L39.7035 33.6L41.4535 31.8C39.3202 31.5167 37.5618 30.9333 36.1785 30.05C34.7952 29.1667 34.1035 28.15 34.1035 27C34.1035 25.6167 35.066 24.4375 36.991 23.4625C38.916 22.4875 41.2868 22 44.1035 22C46.9202 22 49.291 22.4875 51.216 23.4625C53.141 24.4375 54.1035 25.6167 54.1035 27C54.1035 28.0333 53.5493 28.9583 52.441 29.775C51.3327 30.5917 49.8868 31.2 48.1035 31.6V29.55C49.3868 29.2167 50.3743 28.8042 51.066 28.3125C51.7577 27.8208 52.1035 27.3833 52.1035 27C52.1035 26.4667 51.391 25.8333 49.966 25.1C48.541 24.3667 46.5868 24 44.1035 24C41.6202 24 39.666 24.3667 38.241 25.1C36.816 25.8333 36.1035 26.4667 36.1035 27C36.1035 27.4 36.5285 27.8792 37.3785 28.4375C38.2285 28.9958 39.4368 29.4167 41.0035 29.7L39.7035 28.4L41.1035 27L45.1035 31L41.1035 35Z" fill="white"/>
</g>
</g>
<path d="M13.3175 45.664C13.3548 44.6653 13.6815 43.8953 14.2975 43.354C14.9135 42.8127 15.7488 42.542 16.8035 42.542C17.5035 42.542 18.1008 42.6633 18.5955 42.906C19.0995 43.1487 19.4775 43.48 19.7295 43.9C19.9908 44.32 20.1215 44.7913 20.1215 45.314C20.1215 45.93 19.9675 46.434 19.6595 46.826C19.3515 47.2087 18.9922 47.47 18.5815 47.61V47.666C19.1135 47.8433 19.5335 48.1373 19.8415 48.548C20.1495 48.9587 20.3035 49.486 20.3035 50.13C20.3035 50.7087 20.1682 51.222 19.8975 51.67C19.6362 52.1087 19.2488 52.454 18.7355 52.706C18.2315 52.958 17.6295 53.084 16.9295 53.084C15.8095 53.084 14.9135 52.8087 14.2415 52.258C13.5788 51.7073 13.2288 50.8767 13.1915 49.766H15.5155C15.5248 50.1767 15.6415 50.5033 15.8655 50.746C16.0895 50.9793 16.4162 51.096 16.8455 51.096C17.2095 51.096 17.4895 50.9933 17.6855 50.788C17.8908 50.5733 17.9935 50.2933 17.9935 49.948C17.9935 49.5 17.8488 49.178 17.5595 48.982C17.2795 48.7767 16.8268 48.674 16.2015 48.674H15.7535V46.728H16.2015C16.6775 46.728 17.0602 46.6487 17.3495 46.49C17.6482 46.322 17.7975 46.028 17.7975 45.608C17.7975 45.272 17.7042 45.0107 17.5175 44.824C17.3308 44.6373 17.0742 44.544 16.7475 44.544C16.3928 44.544 16.1268 44.6513 15.9495 44.866C15.7815 45.0807 15.6835 45.3467 15.6555 45.664H13.3175ZM26.6241 45.538C26.5494 45.1927 26.4187 44.936 26.2321 44.768C26.0454 44.5907 25.7794 44.502 25.4341 44.502C24.9021 44.502 24.5194 44.7353 24.2861 45.202C24.0527 45.6593 23.9314 46.3873 23.9221 47.386C24.1274 47.0593 24.4214 46.8027 24.8041 46.616C25.1961 46.4293 25.6254 46.336 26.0921 46.336C27.0067 46.336 27.7394 46.6253 28.2901 47.204C28.8501 47.7827 29.1301 48.59 29.1301 49.626C29.1301 50.3073 28.9901 50.9047 28.7101 51.418C28.4394 51.9313 28.0381 52.3327 27.5061 52.622C26.9834 52.9113 26.3627 53.056 25.6441 53.056C24.2067 53.056 23.2081 52.608 22.6481 51.712C22.0881 50.8067 21.8081 49.5093 21.8081 47.82C21.8081 46.0467 22.1021 44.7307 22.6901 43.872C23.2874 43.004 24.2394 42.57 25.5461 42.57C26.2461 42.57 26.8341 42.71 27.3101 42.99C27.7954 43.2607 28.1594 43.62 28.4021 44.068C28.6541 44.516 28.8034 45.006 28.8501 45.538H26.6241ZM25.5181 48.226C25.1167 48.226 24.7807 48.3473 24.5101 48.59C24.2487 48.8233 24.1181 49.1593 24.1181 49.598C24.1181 50.046 24.2394 50.396 24.4821 50.648C24.7341 50.9 25.0887 51.026 25.5461 51.026C25.9567 51.026 26.2787 50.9047 26.5121 50.662C26.7547 50.41 26.8761 50.0693 26.8761 49.64C26.8761 49.2013 26.7594 48.856 26.5261 48.604C26.2927 48.352 25.9567 48.226 25.5181 48.226ZM30.3441 47.75C30.3441 46.1447 30.6521 44.88 31.2681 43.956C31.8935 43.032 32.8968 42.57 34.2781 42.57C35.6595 42.57 36.6581 43.032 37.2741 43.956C37.8995 44.88 38.2121 46.1447 38.2121 47.75C38.2121 49.374 37.8995 50.648 37.2741 51.572C36.6581 52.496 35.6595 52.958 34.2781 52.958C32.8968 52.958 31.8935 52.496 31.2681 51.572C30.6521 50.648 30.3441 49.374 30.3441 47.75ZM35.8601 47.75C35.8601 46.8073 35.7575 46.084 35.5521 45.58C35.3468 45.0667 34.9221 44.81 34.2781 44.81C33.6341 44.81 33.2095 45.0667 33.0041 45.58C32.7988 46.084 32.6961 46.8073 32.6961 47.75C32.6961 48.3847 32.7335 48.912 32.8081 49.332C32.8828 49.7427 33.0321 50.0787 33.2561 50.34C33.4895 50.592 33.8301 50.718 34.2781 50.718C34.7261 50.718 35.0621 50.592 35.2861 50.34C35.5195 50.0787 35.6735 49.7427 35.7481 49.332C35.8228 48.912 35.8601 48.3847 35.8601 47.75ZM45.9158 50.76L47.6098 45.188H50.1578L47.3858 53H44.4318L41.6598 45.188H44.2218L45.9158 50.76ZM52.2294 44.376C51.8094 44.376 51.4641 44.2547 51.1934 44.012C50.9321 43.76 50.8014 43.452 50.8014 43.088C50.8014 42.7147 50.9321 42.4067 51.1934 42.164C51.4641 41.912 51.8094 41.786 52.2294 41.786C52.6401 41.786 52.9761 41.912 53.2374 42.164C53.5081 42.4067 53.6434 42.7147 53.6434 43.088C53.6434 43.452 53.5081 43.76 53.2374 44.012C52.9761 44.2547 52.6401 44.376 52.2294 44.376ZM53.4194 45.188V53H51.0254V45.188H53.4194ZM62.3783 48.968C62.3783 49.192 62.3643 49.4253 62.3363 49.668H56.9183C56.9557 50.1533 57.1097 50.5267 57.3803 50.788C57.6603 51.04 58.001 51.166 58.4023 51.166C58.9997 51.166 59.415 50.914 59.6483 50.41H62.1963C62.0657 50.9233 61.8277 51.3853 61.4823 51.796C61.1463 52.2067 60.7217 52.5287 60.2083 52.762C59.695 52.9953 59.121 53.112 58.4863 53.112C57.721 53.112 57.0397 52.9487 56.4423 52.622C55.845 52.2953 55.3783 51.8287 55.0423 51.222C54.7063 50.6153 54.5383 49.906 54.5383 49.094C54.5383 48.282 54.7017 47.5727 55.0283 46.966C55.3643 46.3593 55.831 45.8927 56.4283 45.566C57.0257 45.2393 57.7117 45.076 58.4863 45.076C59.2423 45.076 59.9143 45.2347 60.5023 45.552C61.0903 45.8693 61.5477 46.322 61.8743 46.91C62.2103 47.498 62.3783 48.184 62.3783 48.968ZM59.9283 48.338C59.9283 47.9273 59.7883 47.6007 59.5083 47.358C59.2283 47.1153 58.8783 46.994 58.4583 46.994C58.057 46.994 57.7163 47.1107 57.4363 47.344C57.1657 47.5773 56.9977 47.9087 56.9323 48.338H59.9283ZM74.7153 45.188L72.6013 53H69.9553L68.7233 47.932L67.4493 53H64.8173L62.6893 45.188H65.0833L66.1893 50.774L67.5053 45.188H70.0393L71.3693 50.746L72.4613 45.188H74.7153Z" fill="#F3F8F9"/>
</svg>
