<svg width="88" height="72" viewBox="0 0 88 72" fill="none" xmlns="http://www.w3.org/2000/svg">
<rect width="87.3333" height="72" transform="translate(0.603516)" fill="black"/>
<g opacity="0.5">
<mask id="mask0_107_1837" style="mask-type:alpha" maskUnits="userSpaceOnUse" x="28" y="15" width="25" height="24">
<rect x="28.6035" y="15" width="24" height="24" fill="#D9D9D9"/>
</mask>
<g mask="url(#mask0_107_1837)">
<path d="M37.6035 35L36.2035 33.6L37.9535 31.8C35.8202 31.5167 34.0618 30.9333 32.6785 30.05C31.2952 29.1667 30.6035 28.15 30.6035 27C30.6035 25.6167 31.566 24.4375 33.491 23.4625C35.416 22.4875 37.7868 22 40.6035 22C43.4202 22 45.791 22.4875 47.716 23.4625C49.641 24.4375 50.6035 25.6167 50.6035 27C50.6035 28.0333 50.0493 28.9583 48.941 29.775C47.8327 30.5917 46.3868 31.2 44.6035 31.6V29.55C45.8868 29.2167 46.8743 28.8042 47.566 28.3125C48.2577 27.8208 48.6035 27.3833 48.6035 27C48.6035 26.4667 47.891 25.8333 46.466 25.1C45.041 24.3667 43.0868 24 40.6035 24C38.1202 24 36.166 24.3667 34.741 25.1C33.316 25.8333 32.6035 26.4667 32.6035 27C32.6035 27.4 33.0285 27.8792 33.8785 28.4375C34.7285 28.9958 35.9368 29.4167 37.5035 29.7L36.2035 28.4L37.6035 27L41.6035 31L37.6035 35Z" fill="white"/>
</g>
</g>
<path d="M19.5895 51.264H15.9215L15.3335 53H12.8275L16.3835 43.172H19.1555L22.7115 53H20.1775L19.5895 51.264ZM18.9735 49.416L17.7555 45.818L16.5515 49.416H18.9735ZM28.6658 53L26.6218 49.29H26.0478V53H23.6538V43.172H27.6718C28.4464 43.172 29.1044 43.3073 29.6458 43.578C30.1964 43.8487 30.6071 44.222 30.8778 44.698C31.1484 45.1647 31.2838 45.6873 31.2838 46.266C31.2838 46.9193 31.0971 47.5027 30.7238 48.016C30.3598 48.5293 29.8184 48.8933 29.0998 49.108L31.3678 53H28.6658ZM26.0478 47.596H27.5318C27.9704 47.596 28.2971 47.4887 28.5118 47.274C28.7358 47.0593 28.8478 46.756 28.8478 46.364C28.8478 45.9907 28.7358 45.6967 28.5118 45.482C28.2971 45.2673 27.9704 45.16 27.5318 45.16H26.0478V47.596ZM38.9874 50.76L40.6814 45.188H43.2294L40.4574 53H37.5034L34.7314 45.188H37.2934L38.9874 50.76ZM45.3011 44.376C44.8811 44.376 44.5357 44.2547 44.2651 44.012C44.0037 43.76 43.8731 43.452 43.8731 43.088C43.8731 42.7147 44.0037 42.4067 44.2651 42.164C44.5357 41.912 44.8811 41.786 45.3011 41.786C45.7117 41.786 46.0477 41.912 46.3091 42.164C46.5797 42.4067 46.7151 42.7147 46.7151 43.088C46.7151 43.452 46.5797 43.76 46.3091 44.012C46.0477 44.2547 45.7117 44.376 45.3011 44.376ZM46.4911 45.188V53H44.0971V45.188H46.4911ZM55.45 48.968C55.45 49.192 55.436 49.4253 55.408 49.668H49.99C50.0273 50.1533 50.1813 50.5267 50.452 50.788C50.732 51.04 51.0726 51.166 51.474 51.166C52.0713 51.166 52.4866 50.914 52.72 50.41H55.268C55.1373 50.9233 54.8993 51.3853 54.554 51.796C54.218 52.2067 53.7933 52.5287 53.28 52.762C52.7666 52.9953 52.1926 53.112 51.558 53.112C50.7926 53.112 50.1113 52.9487 49.514 52.622C48.9166 52.2953 48.45 51.8287 48.114 51.222C47.778 50.6153 47.61 49.906 47.61 49.094C47.61 48.282 47.7733 47.5727 48.1 46.966C48.436 46.3593 48.9026 45.8927 49.5 45.566C50.0973 45.2393 50.7833 45.076 51.558 45.076C52.314 45.076 52.986 45.2347 53.574 45.552C54.162 45.8693 54.6193 46.322 54.946 46.91C55.282 47.498 55.45 48.184 55.45 48.968ZM53 48.338C53 47.9273 52.86 47.6007 52.58 47.358C52.3 47.1153 51.95 46.994 51.53 46.994C51.1286 46.994 50.788 47.1107 50.508 47.344C50.2373 47.5773 50.0693 47.9087 50.004 48.338H53ZM67.7869 45.188L65.6729 53H63.0269L61.7949 47.932L60.5209 53H57.8889L55.7609 45.188H58.1549L59.2609 50.774L60.5769 45.188H63.1109L64.4409 50.746L65.5329 45.188H67.7869Z" fill="#F3F8F9"/>
</svg>
