<svg width="81" height="50" viewBox="0 0 81 50" fill="none" xmlns="http://www.w3.org/2000/svg">
<rect x="0.626099" y="0.5" width="79" height="49" rx="9.5" stroke="#070A1C"/>
<path d="M27.0654 23.9393C26.4796 24.5251 26.4796 25.4749 27.0654 26.0607L36.6113 35.6066C37.1971 36.1924 38.1469 36.1924 38.7326 35.6066C39.3184 35.0208 39.3184 34.0711 38.7326 33.4853L30.2474 25L38.7326 16.5147C39.3184 15.9289 39.3184 14.9792 38.7326 14.3934C38.1469 13.8076 37.1971 13.8076 36.6113 14.3934L27.0654 23.9393ZM52.126 26.5C52.9545 26.5 53.626 25.8284 53.626 25C53.626 24.1716 52.9545 23.5 52.126 23.5V26.5ZM28.126 26.5H52.126V23.5H28.126V26.5Z" fill="#070A1C"/>
</svg>
