<svg width="86" height="80" viewBox="0 0 86 80" fill="none" xmlns="http://www.w3.org/2000/svg">
<path d="M22.8564 0.0388523C23.0322 0.0383557 23.2081 0.0378592 23.3892 0.0373476C23.9754 0.0359042 24.5616 0.0356444 25.1477 0.0353943C25.5693 0.0346202 25.9909 0.0337803 26.4124 0.0328798C27.5559 0.0306916 28.6994 0.029604 29.843 0.028867C30.5585 0.0284038 31.274 0.0276954 31.9895 0.0269444C33.9748 0.0249075 35.9601 0.0231862 37.9454 0.0226199C38.0722 0.0225832 38.1991 0.0225465 38.3298 0.0225087C38.457 0.0224723 38.5841 0.0224358 38.7151 0.0223982C38.9727 0.0223241 39.2303 0.0222494 39.4879 0.0221743C39.6157 0.0221373 39.7435 0.0221003 39.8751 0.0220622C41.9422 0.0214034 44.0092 0.0184892 46.0762 0.0145935C48.2039 0.0106163 50.3316 0.00854691 52.4594 0.00835267C53.6517 0.00820022 54.8441 0.00725829 56.0365 0.00420465C57.1595 0.00133852 58.2826 0.00109758 59.4056 0.00255661C59.8156 0.00268454 60.2256 0.00197054 60.6355 0.000307379C66.5544 -0.0222767 72.4348 1.19482 76.9952 5.24325C77.1351 5.36562 77.2751 5.48799 77.4192 5.61407C77.8383 5.9863 78.2501 6.36511 78.6601 6.7474C78.7711 6.84779 78.882 6.94818 78.9963 7.05162C82.6477 10.5004 85.1331 15.9707 85.3421 20.9884C85.3428 21.1727 85.3435 21.3571 85.3443 21.5471C85.3461 21.8671 85.346 21.8671 85.3479 22.1936C85.3483 22.4271 85.3488 22.6606 85.3492 22.8942C85.3503 23.1425 85.3514 23.3908 85.3525 23.6391C85.356 24.4523 85.3578 25.2654 85.3594 26.0786C85.3601 26.3601 85.3608 26.6417 85.3615 26.9232C85.3647 28.2476 85.367 29.572 85.3684 30.8965C85.37 32.4168 85.3744 33.9371 85.3811 35.4574C85.3862 36.6377 85.3886 37.8179 85.3892 38.9982C85.3896 39.7005 85.391 40.4028 85.3953 41.1052C85.4278 46.7992 85.4278 46.7992 84.6538 49.5319C84.6214 49.6478 84.5891 49.7638 84.5557 49.8832C82.9671 55.4808 79.0173 60.4999 74.0003 63.3897C70.6483 65.2511 66.9981 66.4615 63.1355 66.4257C62.9411 66.425 62.9411 66.425 62.7427 66.4243C62.313 66.4226 61.8832 66.4197 61.4535 66.4168C61.1435 66.4154 60.8335 66.4141 60.5235 66.4129C60.0291 66.4109 59.5348 66.4089 59.0405 66.4065C57.8153 66.4007 56.5902 66.398 55.365 66.3972C55.1867 66.3971 55.0085 66.397 54.8248 66.3969C54.09 66.3964 53.3553 66.3961 52.6205 66.3958C50.5389 66.3948 48.4574 66.3908 46.3759 66.3779C44.7193 66.3676 43.063 66.3638 41.4064 66.3677C40.5311 66.3694 39.6561 66.368 38.7808 66.3586C37.9569 66.3498 37.1334 66.3497 36.3095 66.3561C36.0086 66.357 35.7077 66.3547 35.4069 66.349C33.6621 66.3177 32.529 66.4628 31.2359 67.7066C31.0039 67.942 30.774 68.1796 30.5442 68.4172C30.2354 68.6789 29.9237 68.9373 29.6076 69.1901C29.4596 69.3112 29.3115 69.4323 29.1589 69.557C29.0117 69.6773 28.8644 69.7975 28.7127 69.9213C28.4074 70.1719 28.1022 70.4226 27.797 70.6734C27.351 71.0398 26.9049 71.4061 26.4586 71.7721C25.3908 72.6481 24.326 73.5277 23.2617 74.4081C22.4695 75.0633 21.6759 75.7168 20.8805 76.3681C20.48 76.6979 20.081 77.0294 19.6826 77.3617C19.557 77.4662 19.4314 77.5707 19.3021 77.6784C19.054 77.8849 18.8062 78.0918 18.5587 78.2992C16.4886 80.0206 16.4886 80.0206 15.0813 79.9946C14.4814 79.9171 14.0004 79.6984 13.562 79.2804C12.9719 78.4066 12.8047 77.7742 12.8475 76.7129C12.8513 76.5109 12.8513 76.5109 12.8552 76.3048C12.8609 76.0141 12.8679 75.7235 12.8763 75.4329C12.8884 74.9718 12.8947 74.511 12.8991 74.0498C12.9117 72.7393 12.9275 71.4291 12.9651 70.119C12.9877 69.3157 12.9973 68.513 12.9984 67.7093C13.0013 67.4045 13.009 67.0996 13.0217 66.7951C13.0943 65.3989 13.0943 65.3989 12.7296 64.0719C12.0789 63.3961 11.2323 63.0493 10.3767 62.7047C9.68615 62.4005 9.13084 61.8908 8.56731 61.3979C8.43489 61.283 8.30247 61.1682 8.16604 61.0499C7.73836 60.671 7.31931 60.2845 6.9024 59.8937C6.76483 59.7666 6.62726 59.6395 6.48552 59.5085C2.87625 56.0499 0.262614 50.6856 0.0539138 45.6501C0.0532023 45.4645 0.0524901 45.2789 0.051757 45.0877C0.0505657 44.8729 0.0493744 44.6582 0.048147 44.437C0.0476742 44.2018 0.0472227 43.9667 0.0467904 43.7316C0.0457459 43.4816 0.0446392 43.2317 0.0434751 42.9817C0.0399862 42.1631 0.0382471 41.3445 0.0365879 40.5259C0.0359133 40.2426 0.0352288 39.9592 0.0345327 39.6758C0.0313627 38.3426 0.028994 37.0094 0.0276049 35.6763C0.0259833 34.1458 0.0216136 32.6154 0.0148671 31.0849C0.0098128 29.8969 0.00737738 28.7088 0.00682906 27.5208C0.00644114 26.8138 0.00499355 26.1068 0.000757379 25.3997C-0.0411584 18.0173 1.6494 11.9444 6.9024 6.50715C11.0962 2.29983 16.9703 0.0335877 22.8564 0.0388523ZM15.3935 6.91452C15.211 7.00027 15.0286 7.08601 14.8406 7.17435C10.6159 9.31013 7.47834 13.1421 5.94508 17.6087C4.8965 20.8649 5.044 24.2813 5.04303 27.6604C5.04263 27.9905 5.04223 28.3205 5.04179 28.6505C5.04044 29.6865 5.04003 30.7226 5.04014 31.7586C5.04024 32.8175 5.03849 33.8764 5.03586 34.9353C5.03366 35.853 5.03279 36.7707 5.0329 37.6884C5.03294 38.2326 5.03233 38.7769 5.0307 39.3212C5.01271 45.9326 5.88661 51.3356 10.5756 56.3005C12.1044 57.7992 13.8929 58.8796 15.8319 59.7643C16.6705 60.1565 17.3295 60.5936 17.7435 61.4459C17.9082 61.9527 17.9371 62.3666 17.9439 62.8993C17.9472 63.0966 17.9505 63.294 17.9539 63.4973C17.9559 63.7087 17.9578 63.92 17.9598 64.1378C17.963 64.3555 17.9662 64.5732 17.9695 64.7975C17.9781 65.3741 17.9847 65.9508 17.9909 66.5276C17.9975 67.1169 18.006 67.7061 18.0144 68.2954C18.0305 69.4502 18.0445 70.6049 18.0573 71.7597C18.2697 71.6005 18.4819 71.4411 18.6941 71.2817C18.8123 71.193 18.9305 71.1043 19.0523 71.0128C19.4679 70.6972 19.8719 70.3693 20.2737 70.0362C20.4293 69.9076 20.5849 69.779 20.7452 69.6465C20.9021 69.5166 21.059 69.3867 21.2206 69.2528C21.5258 69.002 21.831 68.7513 22.1363 68.5007C22.2887 68.3756 22.4411 68.2504 22.5981 68.1214C22.8902 67.8815 23.1825 67.6417 23.4748 67.402C24.4178 66.6284 25.3586 65.8521 26.2986 65.0746C26.5427 64.8729 26.7868 64.6712 27.0309 64.4695C27.4415 64.1301 27.8518 63.7903 28.2614 63.4497C30.7702 61.3719 30.7702 61.3719 32.5067 61.3759C32.6402 61.3756 32.7737 61.3752 32.9112 61.3748C33.3602 61.3738 33.8091 61.374 34.258 61.3742C34.5794 61.3736 34.9007 61.3731 35.2221 61.3724C35.9154 61.3711 36.6088 61.3702 37.3021 61.3697C38.401 61.3687 39.4999 61.3659 40.5988 61.3628C40.9754 61.3617 41.352 61.3606 41.7285 61.3596C41.9172 61.3591 42.1058 61.3585 42.3002 61.358C44.8585 61.351 47.4169 61.3455 49.9753 61.3434C51.7005 61.342 53.4258 61.3382 55.151 61.3318C56.063 61.3285 56.9749 61.3264 57.8868 61.3273C58.7472 61.328 59.6076 61.3257 60.4679 61.3211C60.7813 61.3199 61.0946 61.3199 61.4079 61.3211C66.6204 61.3394 70.9776 59.7387 74.8308 56.2169C74.9413 56.1198 75.0519 56.0226 75.1657 55.9225C78.4608 52.8616 80.0812 48.1403 80.3094 43.7537C80.3728 42.1086 80.3525 40.4596 80.353 38.8135C80.3534 38.4835 80.3538 38.1535 80.3542 37.8235C80.3556 36.7874 80.356 35.7514 80.3559 34.7153C80.3558 33.6565 80.3575 32.5976 80.3602 31.5387C80.3624 30.621 80.3632 29.7033 80.3631 28.7856C80.3631 28.2414 80.3637 27.6971 80.3653 27.1528C80.3827 20.7715 79.6621 15.2258 75.0396 10.4523C70.8401 6.26987 65.7174 5.16384 59.9827 5.17573C59.5645 5.17477 59.1463 5.17361 58.7281 5.17225C57.716 5.16958 56.7039 5.16923 55.6917 5.17011C54.8678 5.17079 54.0438 5.17054 53.2199 5.16965C53.043 5.16947 53.043 5.16947 52.8626 5.16927C52.623 5.16902 52.3834 5.16876 52.1438 5.1685C49.9035 5.16622 47.6633 5.16711 45.423 5.16904C43.3809 5.17069 41.3389 5.16853 39.2968 5.16453C37.1918 5.16044 35.0868 5.15886 32.9818 5.15996C31.8033 5.16054 30.6248 5.1602 29.4463 5.15725C28.3372 5.15451 27.2281 5.15534 26.119 5.15847C25.7144 5.15908 25.3099 5.15858 24.9054 5.15682C21.5364 5.14327 18.4724 5.46379 15.3935 6.91452Z" fill="black"/>
<path d="M43.697 19.7833C44.4645 20.1482 44.8205 20.5335 45.1954 21.2874C45.2587 21.7816 45.2587 21.7816 45.2599 22.3392C45.2616 22.5513 45.2632 22.7633 45.2649 22.9818C45.2642 23.2155 45.2635 23.4492 45.2626 23.683C45.2636 23.9301 45.2648 24.1772 45.2661 24.4244C45.2691 25.0946 45.2689 25.7648 45.268 26.435C45.2674 26.9949 45.2685 27.5548 45.2695 28.1146C45.2718 29.4356 45.2715 30.7565 45.2696 32.0774C45.2677 33.4395 45.2701 34.8014 45.2745 36.1635C45.2782 37.3336 45.2793 38.5037 45.2783 39.6739C45.2778 40.3724 45.2782 41.0709 45.2811 41.7695C45.2836 42.4264 45.283 43.0833 45.2798 43.7403C45.2792 43.9811 45.2797 44.2218 45.2815 44.4626C45.2837 44.7919 45.2814 45.1212 45.2788 45.4505C45.2788 45.6346 45.2788 45.8187 45.2787 46.0084C45.1492 46.8088 44.7654 47.3423 44.1333 47.8351C43.3426 48.1841 42.5444 48.1312 41.6991 48.0277C40.9316 47.6628 40.5755 47.2775 40.2006 46.5236C40.1373 46.0294 40.1373 46.0294 40.1361 45.4718C40.1344 45.2597 40.1328 45.0477 40.1311 44.8292C40.1318 44.5955 40.1326 44.3618 40.1334 44.128C40.1324 43.8809 40.1313 43.6338 40.1299 43.3866C40.1269 42.7164 40.1271 42.0462 40.1281 41.376C40.1286 40.8161 40.1276 40.2562 40.1266 39.6964C40.1242 38.3754 40.1245 37.0545 40.1264 35.7336C40.1283 34.3715 40.1259 33.0095 40.1215 31.6475C40.1178 30.4774 40.1167 29.3073 40.1177 28.1371C40.1182 27.4386 40.1178 26.7401 40.115 26.0415C40.1124 25.3846 40.113 24.7277 40.1162 24.0707C40.1168 23.8299 40.1163 23.5891 40.1145 23.3484C40.1123 23.0191 40.1147 22.6897 40.1172 22.3605C40.1172 22.1764 40.1173 21.9923 40.1173 21.8026C40.2468 21.0022 40.6306 20.4687 41.2627 19.9759C42.0534 19.6269 42.8516 19.6798 43.697 19.7833Z" fill="black"/>
<path d="M23.718 23.9615C24.4814 24.3244 24.8642 24.7021 25.2164 25.4656C25.29 26.0084 25.2864 26.5469 25.2837 27.0941C25.2848 27.2572 25.286 27.4204 25.2872 27.5885C25.2902 28.1271 25.2896 28.6657 25.2886 29.2044C25.2894 29.5793 25.2903 29.9541 25.2913 30.329C25.2928 31.1144 25.2923 31.8999 25.2907 32.6854C25.2888 33.6916 25.2921 34.6976 25.297 35.7038C25.3001 36.4779 25.3 37.2519 25.2991 38.026C25.299 38.397 25.3 38.7679 25.3021 39.1389C25.3046 39.6577 25.3028 40.1764 25.3 40.6953C25.3016 40.8482 25.3032 41.0012 25.3048 41.1587C25.2942 42.0824 25.1676 42.6172 24.5505 43.3482C23.681 44.0261 22.7768 43.9789 21.7201 43.8495C20.9568 43.4866 20.5739 43.1089 20.2217 42.3454C20.1481 41.8025 20.1517 41.2641 20.1544 40.7169C20.1533 40.5538 20.1521 40.3906 20.151 40.2225C20.1479 39.6839 20.1486 39.1453 20.1495 38.6066C20.1487 38.2317 20.1479 37.8569 20.1469 37.482C20.1454 36.6965 20.1458 35.9111 20.1474 35.1256C20.1493 34.1194 20.146 33.1134 20.1411 32.1072C20.1381 31.3331 20.1381 30.5591 20.1391 29.785C20.1391 29.414 20.1381 29.0431 20.136 28.6721C20.1335 28.1533 20.1353 27.6346 20.1382 27.1157C20.1366 26.9628 20.1349 26.8098 20.1333 26.6523C20.1439 25.7286 20.2706 25.1938 20.8877 24.4628C21.7572 23.7849 22.6614 23.8321 23.718 23.9615Z" fill="black"/>
<path d="M63.6759 26.4684C64.4423 26.8328 64.8041 27.2167 65.1743 27.9725C65.2389 28.5167 65.2389 28.5167 65.2416 29.1407C65.2427 29.255 65.2439 29.3692 65.2451 29.4869C65.2481 29.8628 65.2475 30.2386 65.2465 30.6145C65.2473 30.877 65.2482 31.1394 65.2492 31.4019C65.2506 31.9513 65.2502 32.5007 65.2486 33.0502C65.2467 33.7528 65.25 34.4554 65.2549 35.158C65.258 35.6999 65.2579 36.2417 65.257 36.7835C65.2569 37.0425 65.2579 37.3015 65.26 37.5605C65.2625 37.9233 65.2607 38.2859 65.2579 38.6487C65.2578 38.8547 65.2578 39.0608 65.2578 39.2731C65.1348 40.106 64.7699 40.6373 64.1123 41.1501C63.3216 41.499 62.5234 41.4461 61.678 41.3426C60.9116 40.9782 60.5498 40.5943 60.1796 39.8385C60.115 39.2943 60.115 39.2943 60.1123 38.6703C60.1112 38.556 60.11 38.4418 60.1088 38.3241C60.1058 37.9482 60.1064 37.5724 60.1074 37.1965C60.1066 36.934 60.1058 36.6716 60.1047 36.4091C60.1033 35.8597 60.1037 35.3103 60.1053 34.7608C60.1072 34.0582 60.1039 33.3556 60.099 32.653C60.0959 32.1111 60.096 31.5693 60.097 31.0275C60.097 30.7685 60.096 30.5095 60.0939 30.2505C60.0914 29.8877 60.0932 29.5251 60.0961 29.1623C60.0961 28.9563 60.0961 28.7502 60.0961 28.5379C60.2191 27.705 60.584 27.1737 61.2416 26.6609C62.0323 26.312 62.8305 26.3649 63.6759 26.4684Z" fill="black"/>
<path d="M73.6654 28.1396C74.4282 28.5024 74.8211 28.8755 75.1638 29.6438C75.2402 30.2805 75.2377 30.9139 75.236 31.5546C75.2369 31.7403 75.2377 31.9259 75.2386 32.1171C75.2397 32.5092 75.2395 32.9013 75.2381 33.2933C75.2366 33.8923 75.2414 34.4911 75.2467 35.0901C75.247 35.4714 75.2469 35.8528 75.2464 36.2342C75.2492 36.5021 75.2492 36.5021 75.2521 36.7755C75.2426 37.7934 75.1791 38.3974 74.4978 39.17C73.6283 39.8479 72.7241 39.8007 71.6675 39.6714C70.9046 39.3086 70.5117 38.9355 70.1691 38.1672C70.0927 37.5305 70.0951 36.8971 70.0969 36.2564C70.096 36.0707 70.0951 35.8851 70.0942 35.6939C70.0932 35.3018 70.0934 34.9097 70.0948 34.5177C70.0962 33.9187 70.0914 33.3199 70.0861 32.7209C70.0859 32.3396 70.086 31.9582 70.0865 31.5768C70.0846 31.3982 70.0827 31.2195 70.0808 31.0355C70.0903 30.0176 70.1538 29.4136 70.835 28.641C71.7045 27.9631 72.6087 28.0103 73.6654 28.1396Z" fill="black"/>
<path d="M33.7075 28.1396C34.4704 28.5024 34.8632 28.8755 35.2059 29.6438C35.2823 30.2805 35.2798 30.9139 35.2781 31.5546C35.279 31.7403 35.2798 31.9259 35.2807 32.1171C35.2818 32.5092 35.2816 32.9013 35.2802 33.2933C35.2788 33.8923 35.2835 34.4911 35.2888 35.0901C35.2891 35.4714 35.289 35.8528 35.2885 36.2342C35.2913 36.5021 35.2913 36.5021 35.2942 36.7755C35.2847 37.7934 35.2212 38.3974 34.5399 39.17C33.6704 39.8479 32.7662 39.8007 31.7096 39.6714C30.9467 39.3086 30.5539 38.9355 30.2112 38.1672C30.1348 37.5305 30.1372 36.8971 30.139 36.2564C30.1381 36.0707 30.1372 35.8851 30.1363 35.6939C30.1353 35.3018 30.1355 34.9097 30.1369 34.5177C30.1383 33.9187 30.1335 33.3199 30.1282 32.7209C30.128 32.3396 30.1281 31.9582 30.1286 31.5768C30.1267 31.3982 30.1248 31.2195 30.1229 31.0355C30.1324 30.0176 30.1959 29.4136 30.8771 28.641C31.7467 27.9631 32.6508 28.0103 33.7075 28.1396Z" fill="black"/>
<path d="M53.6864 29.8109C54.4529 30.1754 54.8147 30.5592 55.1848 31.315C55.2745 32.0539 55.2636 32.793 55.2591 33.5365C55.2577 33.8935 55.2625 34.25 55.2678 34.607C55.268 34.836 55.2679 35.065 55.2674 35.2941C55.2679 35.6038 55.2679 35.6038 55.2684 35.9198C55.1467 36.7593 54.7857 37.2907 54.1228 37.8075C53.3321 38.1565 52.5339 38.1036 51.6885 38.0001C50.922 37.6356 50.5603 37.2518 50.1901 36.496C50.1005 35.7571 50.1113 35.018 50.1159 34.2745C50.1173 33.9175 50.1125 33.561 50.1072 33.204C50.1069 32.975 50.107 32.7459 50.1075 32.5169C50.1072 32.3104 50.1069 32.1039 50.1066 31.8912C50.2283 31.0517 50.5893 30.5203 51.2521 30.0035C52.0429 29.6545 52.8411 29.7074 53.6864 29.8109Z" fill="black"/>
<path d="M13.7285 29.8109C14.495 30.1754 14.8568 30.5592 15.227 31.315C15.3166 32.0539 15.3057 32.793 15.3012 33.5365C15.2998 33.8935 15.3046 34.25 15.3099 34.607C15.3101 34.836 15.3101 35.065 15.3096 35.2941C15.31 35.6038 15.31 35.6038 15.3105 35.9198C15.1888 36.7593 14.8278 37.2907 14.1649 37.8075C13.3742 38.1565 12.576 38.1036 11.7306 38.0001C10.9641 37.6356 10.6024 37.2518 10.2322 36.496C10.1426 35.7571 10.1535 35.018 10.158 34.2745C10.1594 33.9175 10.1546 33.561 10.1493 33.204C10.149 32.975 10.1491 32.7459 10.1496 32.5169C10.1493 32.3104 10.149 32.1039 10.1487 31.8912C10.2704 31.0517 10.6314 30.5203 11.2943 30.0035C12.085 29.6545 12.8832 29.7074 13.7285 29.8109Z" fill="black"/>
</svg>
