<svg width="50" height="50" viewBox="0 0 50 50" fill="none" xmlns="http://www.w3.org/2000/svg">
<rect opacity="0.1" width="50" height="50" rx="12" fill="#070A1C"/>
<path opacity="0.4" fill-rule="evenodd" clip-rule="evenodd" d="M21.0248 15.9917H29.023V14.1294H21.0248V15.9917ZM19.2053 14.2059V14.2151C18.5809 14.2719 17.9633 14.3959 17.3624 14.5825V14.5755C17.3445 14.5831 17.3277 14.5888 17.3115 14.5944C17.2903 14.6017 17.2703 14.6086 17.2507 14.6184C17.2026 14.63 17.1557 14.6474 17.1111 14.6694C16.9793 14.7123 16.8475 14.7633 16.7235 14.8154C16.6905 14.8282 16.6576 14.8429 16.6246 14.8577L16.6246 14.8577C16.5917 14.8725 16.5587 14.8873 16.5258 14.9C16.4805 14.9215 16.4334 14.9449 16.3862 14.9684L16.3862 14.9684C16.339 14.9919 16.2918 15.0153 16.2466 15.0368L16.0232 15.1654C15.9819 15.1865 15.9436 15.2112 15.9046 15.2364C15.8814 15.2514 15.8579 15.2666 15.8333 15.2813C15.4971 15.498 15.1855 15.7518 14.904 16.0403L14.8873 16.0577C14.8503 16.1008 14.8135 16.1426 14.7772 16.1839C14.7158 16.2535 14.6559 16.3216 14.5991 16.3915L14.5823 16.4077C13.6687 17.6685 13.2108 19.2225 13.2901 20.7974V21.2968H15.0939V20.7927C15.0939 18.5979 15.7931 17.2316 17.349 16.5317C17.9432 16.2802 18.5709 16.1249 19.2097 16.0681H19.2265V14.214L19.2053 14.2059ZM35.414 16.3845L35.4219 16.4007C36.3344 17.6627 36.7901 19.2179 36.7097 20.7927V21.2968H34.9069V20.78C34.9449 19.8506 34.7584 18.9258 34.363 18.0903C33.9833 17.3753 33.3757 16.8202 32.6418 16.5189C32.0577 16.2675 31.4389 16.111 30.8078 16.0554V14.2105C31.4322 14.2684 32.0499 14.3913 32.6519 14.5779V14.5686C32.6857 14.5839 32.7115 14.5931 32.7558 14.6087L32.7636 14.6115C32.7841 14.6187 32.8033 14.626 32.8223 14.6332C32.8487 14.6432 32.8746 14.653 32.9032 14.6625C33.0267 14.703 33.1422 14.7507 33.261 14.7999L33.2818 14.8085C33.3367 14.8277 33.3883 14.8516 33.4349 14.8731C33.4499 14.8801 33.4645 14.8868 33.4784 14.8931C33.5767 14.9359 33.6772 14.9869 33.7576 15.0298C33.8113 15.0576 33.8635 15.0874 33.9125 15.1154C33.939 15.1305 33.9645 15.145 33.9888 15.1584C34.0289 15.1805 34.0637 15.2042 34.0971 15.2269C34.1215 15.2435 34.1453 15.2597 34.1698 15.2743C34.5071 15.4922 34.8221 15.7471 35.1069 16.0334L35.1169 16.0508C35.2219 16.1562 35.3213 16.2675 35.414 16.3845Z" fill="#070A1C"/>
<path d="M30.8594 12.9127V17.0163C30.8594 17.5333 30.4399 17.9521 29.9219 17.9521C29.4039 17.9521 28.9844 17.5333 28.9844 17.0163V12.9221C28.9797 12.4051 29.3969 11.9828 29.9149 11.9793C30.4329 11.9758 30.8559 12.391 30.8594 12.9081V12.9127Z" fill="#070A1C"/>
<path d="M21.0156 12.9277V17.0211C21.0156 17.5404 20.5956 17.9614 20.0775 17.9614C19.5595 17.9614 19.1406 17.5404 19.1406 17.0211V12.9277C19.1406 12.4084 19.5595 11.9885 20.0775 11.9885C20.5956 11.9885 21.0156 12.4084 21.0156 12.9277Z" fill="#070A1C"/>
<path fill-rule="evenodd" clip-rule="evenodd" d="M13.2812 31.3935V21.2969H36.7188V31.3935C36.7188 35.7964 34.2599 38.0209 29.3868 38.0209H20.602C15.7401 38.0209 13.2812 35.7964 13.2812 31.3935ZM18.5678 26.91C18.5678 27.5208 19.0484 28.0165 19.6408 28.0165C20.2443 28.0165 20.7249 27.5093 20.7138 26.8985C20.7138 26.2876 20.2332 25.792 19.652 25.792H19.6408C19.0484 25.792 18.5678 26.2991 18.5678 26.91ZM23.9215 26.91C23.9215 27.5208 24.4132 28.0165 25.0056 28.0165C25.598 28.0165 26.0786 27.5208 26.0786 26.8985C26.0786 26.2991 25.598 25.8035 25.0056 25.792H24.9944C24.4021 25.8035 23.9215 26.2991 23.9215 26.91ZM30.3592 28.0165C29.7669 28.0165 29.2863 27.5209 29.2863 26.91C29.2863 26.2991 29.7557 25.8035 30.3592 25.8035C30.9516 25.8035 31.4322 26.2991 31.4322 26.91C31.4322 27.5209 30.9516 28.0165 30.3592 28.0165ZM30.3592 32.7421C29.7669 32.7421 29.2863 32.2465 29.2751 31.6356C29.2751 31.0247 29.7557 30.5291 30.3481 30.5291H30.3592C30.9516 30.5291 31.4322 31.0247 31.4322 31.6356C31.4322 32.2465 30.9516 32.7421 30.3592 32.7421ZM25.0056 32.7421C24.4132 32.7421 23.9215 32.2465 23.9215 31.6356C23.9215 31.0247 24.4021 30.5291 24.9944 30.5176H25.0056C25.598 30.5291 26.0674 31.0247 26.0786 31.6241C26.0786 32.2465 25.598 32.7421 25.0056 32.7421ZM19.6408 32.7421C19.0484 32.7421 18.5678 32.2465 18.5678 31.6356C18.5566 31.0247 19.0372 30.5176 19.6408 30.5176C20.2331 30.5176 20.7137 31.0132 20.7137 31.6241C20.7137 32.2349 20.2331 32.7421 19.6408 32.7421Z" fill="#070A1C"/>
</svg>
