<svg width="18" height="18" viewBox="0 0 18 18" fill="none" xmlns="http://www.w3.org/2000/svg">
<path d="M17.1969 0.166221C17.2751 0.213679 17.3497 0.264105 17.4243 0.317133C17.4584 0.339086 17.4925 0.361039 17.5276 0.383658C17.8231 0.671818 17.9751 1.06385 18 1.47023C17.9922 1.71635 17.9372 1.9215 17.8564 2.15318C17.8441 2.18915 17.8318 2.22512 17.8192 2.26218C17.6911 2.63478 17.5558 3.00477 17.4191 3.37426C17.3574 3.54094 17.296 3.70773 17.2346 3.87451C17.2023 3.96229 17.1699 4.05006 17.1376 4.13782C16.9787 4.5689 16.8213 5.00049 16.664 5.43216C16.392 6.17866 16.1191 6.92477 15.8452 7.67059C15.6163 8.29408 15.3884 8.91788 15.1609 9.54189C14.9043 10.2456 14.6469 10.9491 14.3888 11.6522C14.1757 12.2327 13.9633 12.8135 13.7515 13.3945C13.6581 13.6505 13.5647 13.9065 13.4713 14.1624C13.3921 14.3796 13.3129 14.5968 13.2337 14.814C13.1541 15.0322 13.0744 15.2504 12.9946 15.4686C12.9649 15.5499 12.9353 15.6312 12.9057 15.7125C12.7591 16.1149 12.6105 16.5164 12.4548 16.9153C12.4425 16.9476 12.4301 16.9799 12.4175 17.0131C12.2507 17.4347 11.9675 17.7024 11.5591 17.8994C11.2356 18.0364 10.8338 18.0257 10.5037 17.9141C10.0123 17.7072 9.75467 17.4013 9.53786 16.9217C9.52287 16.8892 9.50788 16.8568 9.49244 16.8234C9.34606 16.505 9.20525 16.1841 9.06576 15.8626C8.9894 15.6867 8.91261 15.5109 8.83577 15.3352C8.82004 15.2992 8.8043 15.2632 8.78808 15.2262C8.62531 14.8545 8.45881 14.4846 8.29191 14.1148C7.99935 13.4664 7.71168 12.8159 7.42726 12.1639C7.40006 12.1018 7.37267 12.0397 7.34508 11.9778C7.27977 11.8305 7.21838 11.6834 7.1641 11.5316C7.03431 11.1758 7.03431 11.1758 6.74626 10.942C6.65842 10.9076 6.56998 10.8747 6.48117 10.8428C6.39665 10.8065 6.3129 10.7687 6.22907 10.7308C6.135 10.6884 6.04054 10.647 5.94592 10.6058C5.73322 10.5133 5.52069 10.4204 5.30826 10.3272C5.27146 10.3111 5.23467 10.295 5.19676 10.2784C4.82329 10.1144 4.45155 9.94667 4.07998 9.77842C3.57308 9.54893 3.0649 9.32267 2.55517 9.09953C2.26284 8.9715 1.97074 8.84293 1.67879 8.71402C1.637 8.69558 1.637 8.69558 1.59437 8.67676C1.42367 8.60132 1.25343 8.52491 1.08342 8.44793C1.02295 8.42114 1.02295 8.42114 0.96127 8.39382C0.537014 8.19959 0.248561 7.92784 0.0697995 7.48948C-0.0487236 7.08363 -0.0196996 6.6014 0.18297 6.23044C0.467026 5.78013 0.867895 5.59393 1.35573 5.41905C1.39993 5.40284 1.44413 5.38662 1.48968 5.36992C1.60897 5.32625 1.7284 5.28294 1.84789 5.2398C1.97407 5.19414 2.10009 5.14801 2.22612 5.10193C2.48128 5.00875 2.73663 4.9161 2.99206 4.82365C3.12482 4.7756 3.25756 4.72747 3.39029 4.67931C3.69581 4.56847 4.00137 4.45772 4.30705 4.34731C4.8422 4.15398 5.3765 3.95842 5.9104 3.76163C6.62892 3.49681 7.34785 3.23311 8.0671 2.97027C8.14676 2.94116 8.22643 2.91204 8.3061 2.88293C8.54275 2.79644 8.77941 2.70995 9.01608 2.62348C9.49475 2.44857 9.97339 2.2736 10.452 2.09852C10.4938 2.08323 10.5355 2.06795 10.5786 2.05221C11.1397 1.84692 11.7005 1.64098 12.2612 1.43452C12.6307 1.29847 13.0003 1.16257 13.3698 1.02673C13.4076 1.01285 13.4076 1.01285 13.4461 0.998684C13.7819 0.875261 14.1177 0.751947 14.4536 0.628855C14.5926 0.577907 14.7316 0.526921 14.8706 0.475837C15.0014 0.427763 15.1322 0.379801 15.2631 0.331921C15.3342 0.305872 15.4052 0.279712 15.4763 0.253547C16.0628 0.0392893 16.6052 -0.146213 17.1969 0.166221Z" fill="#070A1C"/>
</svg>
