<svg width="126" height="50" viewBox="0 0 126 50" fill="none" xmlns="http://www.w3.org/2000/svg">
<rect width="126" height="50" rx="10" fill="#070A1C"/>
<path d="M16.4453 19.8C17.2133 19.8 17.896 19.944 18.4933 20.232C19.0906 20.52 19.592 20.9253 19.9973 21.448C20.4133 21.96 20.7226 22.5573 20.9253 23.24C21.1386 23.912 21.2453 24.632 21.2453 25.4C21.2453 26.4347 21.0586 27.3787 20.6853 28.232C20.312 29.0747 19.768 29.7467 19.0533 30.248C18.3493 30.7493 17.48 31 16.4453 31H12.6213C12.344 31 12.1093 30.9093 11.9173 30.728C11.736 30.536 11.6453 30.3013 11.6453 30.024V20.776C11.6453 20.4987 11.736 20.2693 11.9173 20.088C12.1093 19.896 12.344 19.8 12.6213 19.8H16.4453ZM16.2853 29.16C16.9573 29.16 17.5066 28.9893 17.9333 28.648C18.36 28.296 18.6693 27.8373 18.8613 27.272C19.064 26.696 19.1653 26.072 19.1653 25.4C19.1653 24.8987 19.1066 24.424 18.9893 23.976C18.8826 23.5173 18.712 23.1173 18.4773 22.776C18.2426 22.424 17.944 22.1467 17.5813 21.944C17.2186 21.7413 16.7866 21.64 16.2853 21.64H13.4853L13.6453 21.496V29.336L13.5493 29.16H16.2853ZM24.7308 30.024C24.7308 30.3013 24.6401 30.536 24.4588 30.728C24.2775 30.9093 24.0481 31 23.7708 31C23.4935 31 23.2641 30.9093 23.0828 30.728C22.9015 30.536 22.8108 30.3013 22.8108 30.024V23.416C22.8108 23.1387 22.9015 22.9093 23.0828 22.728C23.2641 22.536 23.4935 22.44 23.7708 22.44C24.0481 22.44 24.2775 22.536 24.4588 22.728C24.6401 22.9093 24.7308 23.1387 24.7308 23.416V30.024ZM23.7548 21.4C23.3921 21.4 23.1361 21.3413 22.9868 21.224C22.8375 21.1067 22.7628 20.8987 22.7628 20.6V20.296C22.7628 19.9867 22.8428 19.7787 23.0028 19.672C23.1735 19.5547 23.4295 19.496 23.7708 19.496C24.1441 19.496 24.4055 19.5547 24.5548 19.672C24.7041 19.7893 24.7788 19.9973 24.7788 20.296V20.6C24.7788 20.9093 24.6988 21.1227 24.5388 21.24C24.3788 21.3467 24.1175 21.4 23.7548 21.4ZM27.6641 31C27.3867 31 27.1574 30.9093 26.9761 30.728C26.7947 30.536 26.7041 30.3013 26.7041 30.024V23.416C26.7041 23.1387 26.7947 22.9093 26.9761 22.728C27.1574 22.536 27.3867 22.44 27.6641 22.44C27.9414 22.44 28.1707 22.536 28.3521 22.728C28.5334 22.9093 28.6241 23.1387 28.6241 23.416V24.92L28.5121 23.848C28.6294 23.592 28.7787 23.368 28.9601 23.176C29.1521 22.9733 29.3654 22.808 29.6001 22.68C29.8347 22.5413 30.0854 22.44 30.3521 22.376C30.6187 22.312 30.8854 22.28 31.1521 22.28C31.4721 22.28 31.7387 22.3707 31.9521 22.552C32.1761 22.7333 32.2881 22.9467 32.2881 23.192C32.2881 23.544 32.1974 23.8 32.0161 23.96C31.8347 24.1093 31.6374 24.184 31.4241 24.184C31.2214 24.184 31.0347 24.1467 30.8641 24.072C30.7041 23.9973 30.5174 23.96 30.3041 23.96C30.1121 23.96 29.9147 24.008 29.7121 24.104C29.5201 24.1893 29.3387 24.328 29.1681 24.52C29.0081 24.712 28.8747 24.952 28.7681 25.24C28.6721 25.5173 28.6241 25.848 28.6241 26.232V30.024C28.6241 30.3013 28.5334 30.536 28.3521 30.728C28.1707 30.9093 27.9414 31 27.6641 31ZM37.3142 31.16C36.4075 31.16 35.6182 30.9733 34.9462 30.6C34.2849 30.216 33.7729 29.6987 33.4102 29.048C33.0582 28.3973 32.8822 27.6613 32.8822 26.84C32.8822 25.88 33.0742 25.064 33.4582 24.392C33.8529 23.7093 34.3649 23.1867 34.9942 22.824C35.6235 22.4613 36.2902 22.28 36.9942 22.28C37.5382 22.28 38.0502 22.392 38.5302 22.616C39.0209 22.84 39.4529 23.1493 39.8262 23.544C40.1995 23.928 40.4929 24.376 40.7062 24.888C40.9302 25.4 41.0422 25.944 41.0422 26.52C41.0315 26.776 40.9302 26.984 40.7382 27.144C40.5462 27.304 40.3222 27.384 40.0662 27.384H33.9542L33.4742 25.784H39.3462L38.9942 26.104V25.672C38.9729 25.3627 38.8609 25.0853 38.6582 24.84C38.4662 24.5947 38.2209 24.4027 37.9222 24.264C37.6342 24.1147 37.3249 24.04 36.9942 24.04C36.6742 24.04 36.3755 24.0827 36.0982 24.168C35.8209 24.2533 35.5809 24.3973 35.3782 24.6C35.1755 24.8027 35.0155 25.0747 34.8982 25.416C34.7809 25.7573 34.7222 26.1893 34.7222 26.712C34.7222 27.288 34.8395 27.7787 35.0742 28.184C35.3195 28.5787 35.6289 28.8827 36.0022 29.096C36.3862 29.2987 36.7915 29.4 37.2182 29.4C37.6129 29.4 37.9275 29.368 38.1622 29.304C38.3969 29.24 38.5835 29.1653 38.7222 29.08C38.8715 28.984 39.0049 28.904 39.1222 28.84C39.3142 28.744 39.4955 28.696 39.6662 28.696C39.9009 28.696 40.0929 28.776 40.2422 28.936C40.4022 29.096 40.4822 29.2827 40.4822 29.496C40.4822 29.784 40.3329 30.0453 40.0342 30.28C39.7569 30.5147 39.3675 30.7227 38.8662 30.904C38.3649 31.0747 37.8475 31.16 37.3142 31.16ZM46.5277 22.28C47.1357 22.28 47.6637 22.344 48.1117 22.472C48.5704 22.6 48.9224 22.7813 49.1677 23.016C49.4237 23.24 49.5517 23.512 49.5517 23.832C49.5517 24.0453 49.4877 24.248 49.3597 24.44C49.2317 24.6213 49.045 24.712 48.7997 24.712C48.629 24.712 48.485 24.6907 48.3677 24.648C48.261 24.5947 48.165 24.5307 48.0797 24.456C47.9944 24.3813 47.893 24.312 47.7757 24.248C47.669 24.184 47.5037 24.136 47.2797 24.104C47.0664 24.0613 46.9064 24.04 46.7997 24.04C46.2557 24.04 45.7917 24.1573 45.4077 24.392C45.0344 24.6267 44.7464 24.9467 44.5437 25.352C44.341 25.7467 44.2397 26.2053 44.2397 26.728C44.2397 27.24 44.341 27.6987 44.5437 28.104C44.757 28.4987 45.045 28.8133 45.4077 29.048C45.781 29.2827 46.2077 29.4 46.6877 29.4C46.9544 29.4 47.1837 29.384 47.3757 29.352C47.5677 29.32 47.7277 29.272 47.8557 29.208C48.005 29.1227 48.1384 29.032 48.2557 28.936C48.373 28.84 48.549 28.792 48.7837 28.792C49.061 28.792 49.2744 28.8827 49.4237 29.064C49.573 29.2347 49.6477 29.448 49.6477 29.704C49.6477 29.9707 49.4984 30.216 49.1997 30.44C48.901 30.6533 48.5064 30.8293 48.0157 30.968C47.5357 31.096 47.013 31.16 46.4477 31.16C45.605 31.16 44.8744 30.968 44.2557 30.584C43.637 30.1893 43.157 29.656 42.8157 28.984C42.485 28.312 42.3197 27.56 42.3197 26.728C42.3197 25.8533 42.4957 25.0853 42.8477 24.424C43.2104 23.752 43.7064 23.2293 44.3357 22.856C44.9757 22.472 45.7064 22.28 46.5277 22.28ZM51.1282 22.6H54.9202C55.1762 22.6 55.3895 22.6853 55.5602 22.856C55.7309 23.0267 55.8162 23.24 55.8162 23.496C55.8162 23.7413 55.7309 23.9493 55.5602 24.12C55.3895 24.28 55.1762 24.36 54.9202 24.36H51.1282C50.8722 24.36 50.6589 24.2747 50.4882 24.104C50.3175 23.9333 50.2322 23.72 50.2322 23.464C50.2322 23.2187 50.3175 23.016 50.4882 22.856C50.6589 22.6853 50.8722 22.6 51.1282 22.6ZM52.8402 20.6C53.1175 20.6 53.3415 20.696 53.5122 20.888C53.6935 21.0693 53.7842 21.2987 53.7842 21.576V28.696C53.7842 28.8453 53.8109 28.968 53.8642 29.064C53.9282 29.16 54.0082 29.2293 54.1042 29.272C54.2109 29.3147 54.3229 29.336 54.4402 29.336C54.5682 29.336 54.6855 29.3147 54.7922 29.272C54.8989 29.2187 55.0215 29.192 55.1602 29.192C55.3095 29.192 55.4429 29.2613 55.5602 29.4C55.6882 29.5387 55.7522 29.7307 55.7522 29.976C55.7522 30.2747 55.5869 30.52 55.2562 30.712C54.9362 30.904 54.5895 31 54.2162 31C53.9922 31 53.7415 30.984 53.4642 30.952C53.1975 30.9093 52.9415 30.8187 52.6962 30.68C52.4615 30.5307 52.2642 30.3067 52.1042 30.008C51.9442 29.7093 51.8642 29.2987 51.8642 28.776V21.576C51.8642 21.2987 51.9549 21.0693 52.1362 20.888C52.3282 20.696 52.5629 20.6 52.8402 20.6ZM59.3871 30.024C59.3871 30.3013 59.2964 30.536 59.1151 30.728C58.9337 30.9093 58.7044 31 58.4271 31C58.1497 31 57.9204 30.9093 57.7391 30.728C57.5577 30.536 57.4671 30.3013 57.4671 30.024V23.416C57.4671 23.1387 57.5577 22.9093 57.7391 22.728C57.9204 22.536 58.1497 22.44 58.4271 22.44C58.7044 22.44 58.9337 22.536 59.1151 22.728C59.2964 22.9093 59.3871 23.1387 59.3871 23.416V30.024ZM58.4111 21.4C58.0484 21.4 57.7924 21.3413 57.6431 21.224C57.4937 21.1067 57.4191 20.8987 57.4191 20.6V20.296C57.4191 19.9867 57.4991 19.7787 57.6591 19.672C57.8297 19.5547 58.0857 19.496 58.4271 19.496C58.8004 19.496 59.0617 19.5547 59.2111 19.672C59.3604 19.7893 59.4351 19.9973 59.4351 20.296V20.6C59.4351 20.9093 59.3551 21.1227 59.1951 21.24C59.0351 21.3467 58.7737 21.4 58.4111 21.4ZM69.6643 26.728C69.6643 27.6027 69.467 28.376 69.0723 29.048C68.6883 29.7093 68.1656 30.2267 67.5043 30.6C66.8536 30.9733 66.123 31.16 65.3123 31.16C64.5016 31.16 63.7656 30.9733 63.1043 30.6C62.4536 30.2267 61.931 29.7093 61.5363 29.048C61.1523 28.376 60.9603 27.6027 60.9603 26.728C60.9603 25.8533 61.1523 25.0853 61.5363 24.424C61.931 23.752 62.4536 23.2293 63.1043 22.856C63.7656 22.472 64.5016 22.28 65.3123 22.28C66.123 22.28 66.8536 22.472 67.5043 22.856C68.1656 23.2293 68.6883 23.752 69.0723 24.424C69.467 25.0853 69.6643 25.8533 69.6643 26.728ZM67.7443 26.728C67.7443 26.184 67.6323 25.7147 67.4083 25.32C67.195 24.9147 66.9016 24.6 66.5283 24.376C66.1656 24.152 65.7603 24.04 65.3123 24.04C64.8643 24.04 64.4536 24.152 64.0803 24.376C63.7176 24.6 63.4243 24.9147 63.2003 25.32C62.987 25.7147 62.8803 26.184 62.8803 26.728C62.8803 27.2613 62.987 27.7307 63.2003 28.136C63.4243 28.5307 63.7176 28.84 64.0803 29.064C64.4536 29.288 64.8643 29.4 65.3123 29.4C65.7603 29.4 66.1656 29.288 66.5283 29.064C66.9016 28.84 67.195 28.5307 67.4083 28.136C67.6323 27.7307 67.7443 27.2613 67.7443 26.728ZM75.9207 22.28C76.71 22.28 77.3074 22.4453 77.7127 22.776C78.1287 23.1067 78.4114 23.5493 78.5607 24.104C78.7207 24.648 78.8007 25.256 78.8007 25.928V30.024C78.8007 30.3013 78.71 30.536 78.5287 30.728C78.3474 30.9093 78.118 31 77.8407 31C77.5634 31 77.334 30.9093 77.1527 30.728C76.9714 30.536 76.8807 30.3013 76.8807 30.024V25.928C76.8807 25.576 76.8327 25.2613 76.7367 24.984C76.6514 24.696 76.4914 24.4667 76.2567 24.296C76.022 24.1253 75.686 24.04 75.2487 24.04C74.822 24.04 74.4594 24.1253 74.1607 24.296C73.8727 24.4667 73.6487 24.696 73.4887 24.984C73.3394 25.2613 73.2647 25.576 73.2647 25.928V30.024C73.2647 30.3013 73.174 30.536 72.9927 30.728C72.8114 30.9093 72.582 31 72.3047 31C72.0274 31 71.798 30.9093 71.6167 30.728C71.4354 30.536 71.3447 30.3013 71.3447 30.024V23.416C71.3447 23.1387 71.4354 22.9093 71.6167 22.728C71.798 22.536 72.0274 22.44 72.3047 22.44C72.582 22.44 72.8114 22.536 72.9927 22.728C73.174 22.9093 73.2647 23.1387 73.2647 23.416V24.104L73.0247 24.056C73.1207 23.8747 73.2594 23.6827 73.4407 23.48C73.622 23.2667 73.8354 23.0693 74.0807 22.888C74.326 22.7067 74.6034 22.5627 74.9127 22.456C75.222 22.3387 75.558 22.28 75.9207 22.28ZM80.3799 29.672C80.2733 29.5227 80.2253 29.3307 80.2359 29.096C80.2466 28.8613 80.3853 28.6587 80.6519 28.488C80.8226 28.3813 81.0039 28.3387 81.1959 28.36C81.3879 28.3707 81.5746 28.4667 81.7559 28.648C82.0653 28.9573 82.3906 29.1973 82.7319 29.368C83.0733 29.5387 83.4999 29.624 84.0119 29.624C84.1719 29.6133 84.3479 29.592 84.5399 29.56C84.7319 29.5173 84.8973 29.432 85.0359 29.304C85.1853 29.1653 85.2599 28.9573 85.2599 28.68C85.2599 28.4453 85.1799 28.2587 85.0199 28.12C84.8599 27.9813 84.6466 27.864 84.3799 27.768C84.1239 27.672 83.8359 27.5813 83.5159 27.496C83.1853 27.4 82.8439 27.2933 82.4919 27.176C82.1506 27.0587 81.8359 26.9093 81.5479 26.728C81.2599 26.536 81.0253 26.2853 80.8439 25.976C80.6626 25.6667 80.5719 25.2773 80.5719 24.808C80.5719 24.2747 80.7213 23.8213 81.0199 23.448C81.3186 23.0747 81.7026 22.7867 82.1719 22.584C82.6519 22.3813 83.1533 22.28 83.6759 22.28C84.0066 22.28 84.3533 22.3227 84.7159 22.408C85.0786 22.4827 85.4253 22.6107 85.7559 22.792C86.0866 22.9627 86.3639 23.192 86.5879 23.48C86.7053 23.64 86.7746 23.832 86.7959 24.056C86.8173 24.28 86.7159 24.4827 86.4919 24.664C86.3319 24.792 86.1453 24.8507 85.9319 24.84C85.7186 24.8187 85.5426 24.744 85.4039 24.616C85.2226 24.3813 84.9773 24.1947 84.6679 24.056C84.3693 23.9173 84.0226 23.848 83.6279 23.848C83.4679 23.848 83.2919 23.8693 83.0999 23.912C82.9186 23.944 82.7586 24.024 82.6199 24.152C82.4813 24.2693 82.4119 24.4613 82.4119 24.728C82.4119 24.9733 82.4919 25.1707 82.6519 25.32C82.8119 25.4587 83.0253 25.576 83.2919 25.672C83.5693 25.7573 83.8626 25.8427 84.1719 25.928C84.4919 26.0133 84.8173 26.1147 85.1479 26.232C85.4786 26.3493 85.7826 26.504 86.0599 26.696C86.3373 26.888 86.5613 27.1387 86.7319 27.448C86.9026 27.7467 86.9879 28.1307 86.9879 28.6C86.9879 29.144 86.8279 29.608 86.5079 29.992C86.1879 30.376 85.7879 30.6693 85.3079 30.872C84.8279 31.064 84.3373 31.16 83.8359 31.16C83.2066 31.16 82.5773 31.0533 81.9479 30.84C81.3186 30.616 80.7959 30.2267 80.3799 29.672Z" fill="#EAEAEA"/>
<path d="M115.197 16.1662C115.275 16.2137 115.35 16.2641 115.424 16.3171C115.458 16.3391 115.493 16.361 115.528 16.3837C115.823 16.6718 115.975 17.0638 116 17.4702C115.992 17.7163 115.937 17.9215 115.856 18.1532C115.844 18.1892 115.832 18.2251 115.819 18.2622C115.691 18.6348 115.556 19.0048 115.419 19.3743C115.357 19.5409 115.296 19.7077 115.235 19.8745C115.202 19.9623 115.17 20.0501 115.138 20.1378C114.979 20.5689 114.821 21.0005 114.664 21.4322C114.392 22.1787 114.119 22.9248 113.845 23.6706C113.616 24.2941 113.388 24.9179 113.161 25.5419C112.904 26.2456 112.647 26.9491 112.389 27.6522C112.176 28.2327 111.963 28.8135 111.751 29.3945C111.658 29.6505 111.565 29.9065 111.471 30.1624C111.392 30.3796 111.313 30.5968 111.234 30.814C111.154 31.0322 111.074 31.2504 110.995 31.4686C110.965 31.5499 110.935 31.6312 110.906 31.7125C110.759 32.1149 110.61 32.5164 110.455 32.9153C110.442 32.9476 110.43 32.9799 110.417 33.0131C110.251 33.4347 109.967 33.7024 109.559 33.8994C109.236 34.0364 108.834 34.0257 108.504 33.9141C108.012 33.7072 107.755 33.4013 107.538 32.9217C107.523 32.8892 107.508 32.8568 107.492 32.8234C107.346 32.505 107.205 32.1841 107.066 31.8626C106.989 31.6867 106.913 31.5109 106.836 31.3352C106.82 31.2992 106.804 31.2632 106.788 31.2262C106.625 30.8545 106.459 30.4846 106.292 30.1148C105.999 29.4664 105.712 28.8159 105.427 28.1639C105.4 28.1018 105.373 28.0397 105.345 27.9778C105.28 27.8305 105.218 27.6834 105.164 27.5316C105.034 27.1758 105.034 27.1758 104.746 26.942C104.658 26.9076 104.57 26.8747 104.481 26.8428C104.397 26.8065 104.313 26.7687 104.229 26.7308C104.135 26.6884 104.041 26.647 103.946 26.6058C103.733 26.5133 103.521 26.4204 103.308 26.3272C103.271 26.3111 103.235 26.295 103.197 26.2784C102.823 26.1144 102.452 25.9467 102.08 25.7784C101.573 25.5489 101.065 25.3227 100.555 25.0995C100.263 24.9715 99.9707 24.8429 99.6788 24.714C99.637 24.6956 99.637 24.6956 99.5944 24.6768C99.4237 24.6013 99.2534 24.5249 99.0834 24.4479C99.023 24.4211 99.023 24.4211 98.9613 24.3938C98.537 24.1996 98.2486 23.9278 98.0698 23.4895C97.9513 23.0836 97.9803 22.6014 98.183 22.2304C98.467 21.7801 98.8679 21.5939 99.3557 21.4191C99.3999 21.4028 99.4441 21.3866 99.4897 21.3699C99.609 21.3262 99.7284 21.2829 99.8479 21.2398C99.9741 21.1941 100.1 21.148 100.226 21.1019C100.481 21.0087 100.737 20.9161 100.992 20.8237C101.125 20.7756 101.258 20.7275 101.39 20.6793C101.696 20.5685 102.001 20.4577 102.307 20.3473C102.842 20.154 103.377 19.9584 103.91 19.7616C104.629 19.4968 105.348 19.2331 106.067 18.9703C106.147 18.9412 106.226 18.912 106.306 18.8829C106.543 18.7964 106.779 18.71 107.016 18.6235C107.495 18.4486 107.973 18.2736 108.452 18.0985C108.494 18.0832 108.536 18.068 108.579 18.0522C109.14 17.8469 109.701 17.641 110.261 17.4345C110.631 17.2985 111 17.1626 111.37 17.0267C111.408 17.0128 111.408 17.0128 111.446 16.9987C111.782 16.8753 112.118 16.7519 112.454 16.6289C112.593 16.5779 112.732 16.5269 112.871 16.4758C113.001 16.4278 113.132 16.3798 113.263 16.3319C113.334 16.3059 113.405 16.2797 113.476 16.2535C114.063 16.0393 114.605 15.8538 115.197 16.1662Z" fill="#EAEAEA"/>
</svg>
