<svg width="79" height="80" viewBox="0 0 79 80" fill="none" xmlns="http://www.w3.org/2000/svg">
<path d="M61.6392 25.0235C61.7638 25.0865 61.8883 25.1494 62.0167 25.2143C65.5675 27.0218 68.8754 29.3363 71.9442 31.889C72.0308 31.9605 72.1174 32.0321 72.2066 32.1058C73.4594 33.1492 74.6342 34.2723 75.786 35.4282C76.0037 35.6466 76.2223 35.8642 76.4409 36.0817C78.898 38.5769 78.898 38.5769 79 40.032C78.9251 41.0019 78.5914 41.4995 77.9426 42.1873C77.7686 42.3876 77.7686 42.3876 77.5911 42.592C76.0167 44.3844 74.3632 46.157 72.4987 47.6405C72.075 47.9789 71.6698 48.3345 71.2617 48.6919C61.5464 56.8969 48.3326 61.7373 35.6706 60.6353C24.532 59.5178 14.2082 54.4037 5.80782 47.0243C5.68748 46.9199 5.56713 46.8156 5.44314 46.708C0.395112 42.2259 0.395112 42.2259 0.014285 40.4636C-0.0369976 39.6744 0.0338201 39.0736 0.491923 38.4229C0.670702 38.2178 0.853585 38.0164 1.03986 37.8183C1.12788 37.7131 1.21591 37.6079 1.30661 37.4995C3.03119 35.4665 4.9454 33.528 7.03827 31.889C7.19291 31.757 7.34756 31.6251 7.50689 31.4892C10.3148 29.1004 13.5016 27.0851 16.728 25.3355C16.8592 25.2639 16.9903 25.1922 17.1254 25.1184C31.442 17.369 47.2819 17.7207 61.6392 25.0235ZM27.8134 29.312C24.9441 32.549 23.6311 36.7846 23.8031 41.095C24.1542 45.5887 26.3758 49.5212 29.6921 52.4612C32.9336 55.0767 36.9995 56.2053 41.0984 55.8756C45.4674 55.3399 49.3705 53.0064 52.1033 49.5209C54.6069 45.9289 55.6825 41.6548 54.9865 37.2917C54.143 33.1339 51.8604 29.3507 48.4179 26.8813C41.7804 22.5583 33.2765 23.4319 27.8134 29.312ZM10.7296 35.3217C10.5327 35.481 10.5327 35.481 10.3319 35.6436C8.73425 36.9439 7.23636 38.3581 5.80782 39.8467C6.01314 40.3089 6.23868 40.6359 6.59067 40.9945C6.68503 41.0908 6.77939 41.1872 6.87661 41.2865C6.97754 41.3874 7.07847 41.4884 7.18246 41.5924C7.33906 41.7498 7.33906 41.7498 7.49882 41.9105C8.19302 42.601 8.90456 43.2509 9.66978 43.8604C9.99817 44.1228 10.3179 44.3889 10.6359 44.6637C13.8456 47.4165 17.4809 49.5907 21.2172 51.5201C21.3489 51.5886 21.4806 51.6572 21.6163 51.7278C21.7979 51.8196 21.7979 51.8196 21.9832 51.9132C22.0899 51.9675 22.1966 52.0217 22.3066 52.0777C22.3944 52.1093 22.4822 52.1409 22.5726 52.1735C22.6741 52.122 22.7756 52.0705 22.8802 52.0174C22.8057 51.9018 22.7311 51.7861 22.6543 51.667C19.4607 46.5766 18.4342 40.9017 19.7229 34.9889C20.3065 32.4603 21.4678 29.993 22.8802 27.8321C19.1294 27.8321 13.4726 33.0267 10.7296 35.3217ZM56.1022 27.8321C56.2006 28.0091 56.2989 28.1861 56.4002 28.3685C56.5049 28.5616 56.5049 28.5616 56.6117 28.7585C56.7495 29.0123 56.8877 29.2659 57.0286 29.518C59.8671 34.6032 60.5493 40.346 59.0149 45.9906C58.3867 48.1353 57.3659 50.19 56.1022 52.0174C56.2037 52.0689 56.3052 52.1204 56.4098 52.1735C56.7759 52.0382 56.7759 52.0382 57.1903 51.8218C57.3516 51.741 57.5128 51.6603 57.679 51.5771C57.9406 51.4427 57.9406 51.4427 58.2074 51.3055C58.3868 51.2137 58.5661 51.1219 58.7508 51.0273C62.5236 49.0762 65.9339 46.6556 69.1757 43.9036C69.2701 43.8242 69.3644 43.7447 69.4617 43.6629C70.7692 42.5603 71.9921 41.3981 73.1746 40.1588C72.9693 39.6967 72.7438 39.3697 72.3918 39.0111C72.2974 38.9147 72.203 38.8184 72.1058 38.7191C72.0049 38.6181 71.904 38.5172 71.8 38.4132C71.6956 38.3082 71.5912 38.2032 71.4836 38.0951C70.7894 37.4045 70.0779 36.7547 69.3127 36.1452C68.9843 35.8827 68.6645 35.6167 68.3466 35.3419C62.7304 30.4547 62.7304 30.4547 56.1022 27.8321Z" fill="black"/>
<path d="M44.5187 33.595C46.2728 35.0734 47.2801 37.0888 47.4891 39.3786C47.644 41.6178 46.8846 43.7878 45.48 45.503C43.8501 47.2317 41.8648 47.9914 39.5585 48.1556C37.341 48.1121 35.2936 47.2662 33.6965 45.7163C32.2288 44.0397 31.4179 42.008 31.4609 39.7559C31.6629 37.4067 32.5082 35.3413 34.2618 33.7614C37.4052 31.4157 41.2953 31.2422 44.5187 33.595ZM37.2034 37.672C36.5389 38.4199 36.255 39.2449 36.2655 40.2496C36.4064 41.2949 36.8719 41.968 37.6456 42.6554C38.3925 43.1552 39.2254 43.3941 40.113 43.2167C41.0946 42.8912 41.8403 42.2974 42.3943 41.4168C42.7405 40.4606 42.7888 39.7464 42.4339 38.7978C41.9876 37.8875 41.4194 37.2245 40.4621 36.8821C39.269 36.5381 38.1208 36.8341 37.2034 37.672Z" fill="black"/>
<path d="M25.987 66.6353C26.5615 67.0614 26.8097 67.5561 26.9396 68.2603C27.0165 69.5613 26.4391 70.4825 25.8025 71.5705C25.7028 71.7474 25.6031 71.9243 25.5003 72.1066C25.196 72.643 24.8849 73.1748 24.5721 73.7062C24.4639 73.894 24.3558 74.0818 24.2477 74.2696C24.1412 74.4515 24.0347 74.6332 23.928 74.8149C23.8339 74.9767 23.7397 75.1384 23.6426 75.3051C23.2645 75.8448 22.8493 76.2184 22.265 76.5148C21.4481 76.5974 20.7773 76.6184 20.0348 76.2418C19.3044 75.5749 19.0616 75.1216 19.0069 74.1329C19.0373 73.5055 19.1541 73.1766 19.4388 72.6237C19.4845 72.5349 19.5302 72.4461 19.5773 72.3546C20.0953 71.3659 20.6477 70.3955 21.198 69.425C21.3339 69.1838 21.3339 69.1838 21.4726 68.9378C22.6854 66.8293 22.6854 66.8293 23.5627 66.3043C24.478 66.1005 25.174 66.1757 25.987 66.6353Z" fill="black"/>
<path d="M22.265 3.49072C23.7287 4.13513 24.4751 6.14542 25.2065 7.4891C25.3928 7.82923 25.579 8.16934 25.7653 8.50942C25.8515 8.66797 25.9377 8.82652 26.0265 8.98987C26.222 9.34412 26.4251 9.69115 26.6328 10.0381C27.0357 10.8135 27.0334 11.5582 26.783 12.3932C26.4647 13.0651 26.0214 13.395 25.3537 13.6866C24.6669 13.9062 24.1459 13.858 23.4762 13.6135C22.6435 13.0625 22.1623 12.2563 21.6786 11.3924C21.6269 11.3005 21.5752 11.2085 21.5219 11.1138C21.4135 10.9205 21.3054 10.7269 21.1978 10.5331C21.0359 10.2416 20.8725 9.95082 20.7089 9.66018C18.8808 6.40043 18.8808 6.40043 19.0351 5.36313C19.2921 4.5534 19.567 4.11922 20.2655 3.64676C20.8743 3.33794 21.6014 3.42579 22.265 3.49072Z" fill="black"/>
<path d="M55.5062 66.3921C56.339 66.9431 56.8201 67.7493 57.3038 68.6132C57.3814 68.7511 57.3814 68.7511 57.4605 68.8918C57.569 69.0851 57.677 69.2786 57.7846 69.4724C57.9466 69.764 58.1099 70.0547 58.2735 70.3454C60.1141 73.6274 60.1141 73.6274 59.9473 74.6424C59.7232 75.3144 59.4396 75.7843 58.938 76.2808C58.1853 76.614 57.5261 76.6313 56.7174 76.5148C55.2537 75.8704 54.5074 73.8601 53.7759 72.5165C53.5897 72.1763 53.4034 71.8362 53.2172 71.4961C53.131 71.3376 53.0448 71.179 52.956 71.0157C52.7604 70.6614 52.5573 70.3144 52.3496 69.9675C51.9468 69.192 51.949 68.4474 52.1994 67.6123C52.5178 66.9404 52.961 66.6105 53.6287 66.319C54.3155 66.0993 54.8366 66.1475 55.5062 66.3921Z" fill="black"/>
<path d="M58.4093 3.49072C59.1696 3.82729 59.4829 4.28075 59.8452 5.00535C60.099 5.89439 59.9571 6.57893 59.5436 7.38183C59.4979 7.47064 59.4522 7.55946 59.4052 7.65097C58.8871 8.63964 58.3347 9.61011 57.7845 10.5805C57.6938 10.7413 57.6032 10.9021 57.5098 11.0678C56.2971 13.1763 56.2971 13.1763 55.4197 13.7012C54.5044 13.9051 53.8085 13.8299 52.9955 13.3703C52.4209 12.9442 52.1728 12.4495 52.0429 11.7453C51.966 10.4443 52.5433 9.52308 53.1799 8.43506C53.2796 8.25816 53.3794 8.08126 53.4821 7.899C53.7864 7.36255 54.0975 6.83072 54.4104 6.29934C54.5185 6.11156 54.6267 5.92375 54.7348 5.73593C54.8412 5.55409 54.9477 5.37233 55.0544 5.19064C55.1486 5.02889 55.2428 4.86714 55.3398 4.70048C56.1735 3.51064 57.0454 3.35568 58.4093 3.49072Z" fill="black"/>
<path d="M40.9331 70.0784C41.5187 70.5876 41.7962 71.0762 41.9521 71.8338C41.9686 72.275 41.9773 72.7122 41.9779 73.1534C41.9787 73.3456 41.9787 73.3456 41.9795 73.5417C41.9803 73.8125 41.9806 74.0833 41.9806 74.3542C41.9809 74.7661 41.9837 75.178 41.9867 75.5899C41.9871 75.8537 41.9874 76.1175 41.9876 76.3814C41.9887 76.5035 41.9898 76.6256 41.9909 76.7514C41.987 77.7115 41.9115 78.5428 41.2696 79.2942C40.4895 79.9698 40.0229 80.0154 39.0226 79.997C38.4138 79.9308 38.088 79.7493 37.6456 79.3235C36.9925 78.4325 37.0049 77.5095 36.9991 76.4338C36.9982 76.3062 36.9973 76.1787 36.9964 76.0473C36.995 75.778 36.994 75.5088 36.9934 75.2396C36.9919 74.8307 36.9871 74.4219 36.9823 74.0131C36.9813 73.7505 36.9805 73.4879 36.9799 73.2253C36.978 73.1045 36.9761 72.9837 36.9741 72.8592C36.9781 71.8597 37.1342 70.9483 37.857 70.215C38.9186 69.5483 39.8089 69.487 40.9331 70.0784Z" fill="black"/>
<path d="M40.4141 0.0579636C41.11 0.392402 41.4751 0.754785 41.7983 1.46227C41.9797 2.15949 41.9795 2.85548 41.9833 3.57179C41.9842 3.69933 41.9851 3.82687 41.986 3.95828C41.9875 4.22752 41.9885 4.49676 41.9891 4.76601C41.9905 5.17487 41.9953 5.58362 42.0002 5.99245C42.0012 6.25505 42.002 6.51765 42.0026 6.78024C42.0045 6.90105 42.0064 7.02186 42.0083 7.14632C42.0044 8.14582 41.8483 9.05727 41.1254 9.79061C40.3391 10.2844 39.8245 10.4172 38.909 10.2843C38.2152 10.113 37.7798 9.76386 37.3668 9.18598C37.007 8.41753 37.0057 7.69215 37.0045 6.85217C37.004 6.72403 37.0035 6.5959 37.0029 6.46388C37.0022 6.19305 37.0018 5.92222 37.0018 5.65139C37.0015 5.23945 36.9987 4.82758 36.9958 4.41565C36.9953 4.15184 36.995 3.88802 36.9949 3.6242C36.9938 3.5021 36.9927 3.38 36.9915 3.2542C36.9954 2.29408 37.0709 1.46281 37.7128 0.711358C38.5955 -0.0530631 39.2837 -0.0649023 40.4141 0.0579636Z" fill="black"/>
</svg>
