<svg width="18" height="18" viewBox="0 0 18 18" fill="none" xmlns="http://www.w3.org/2000/svg">
<path d="M3.8191 0.013925C3.86686 0.0136492 3.91462 0.0133734 3.96383 0.0130892C4.12102 0.0122656 4.2782 0.0117727 4.43539 0.0113531C4.48926 0.0111821 4.54314 0.011011 4.59865 0.0108348C4.85425 0.0100512 5.10985 0.00943928 5.36546 0.00908834C5.65941 0.00867793 5.95334 0.00757181 6.24728 0.00587763C6.50287 0.00445558 6.75844 0.0039617 7.01403 0.0037916C7.12234 0.00358745 7.23065 0.00310021 7.33895 0.00232107C7.49057 0.00129774 7.64214 0.00133781 7.79376 0.00162919C7.86041 0.000822741 7.86041 0.000822741 7.92841 0C8.23501 0.00214187 8.51265 0.0462576 8.74291 0.263913C8.98261 0.528962 9.02123 0.735062 9.01567 1.09207C8.9867 1.35872 8.85956 1.51821 8.66653 1.69489C8.39187 1.88542 8.13369 1.87999 7.81072 1.87873C7.7394 1.87896 7.7394 1.87896 7.66665 1.87919C7.56357 1.87948 7.46048 1.87959 7.3574 1.87953C7.19394 1.87949 7.03049 1.88004 6.86703 1.88075C6.40232 1.88272 5.93761 1.88373 5.4729 1.884C5.18842 1.88418 4.90396 1.88523 4.61948 1.88674C4.51139 1.88715 4.40331 1.88725 4.29522 1.88703C4.14352 1.88673 3.99186 1.88746 3.84016 1.88841C3.79605 1.88806 3.75193 1.88772 3.70648 1.88737C3.21308 1.8928 2.78146 2.04479 2.40862 2.37165C2.10597 2.68409 1.90017 3.0929 1.89921 3.53317C1.89902 3.57267 1.89883 3.61217 1.89864 3.65286C1.89865 3.69612 1.89865 3.73938 1.89866 3.78395C1.89851 3.83001 1.89835 3.87607 1.89819 3.92353C1.89773 4.07843 1.89757 4.23334 1.89741 4.38824C1.89715 4.49909 1.89687 4.60994 1.89657 4.72079C1.89574 5.05387 1.89532 5.38694 1.89495 5.72002C1.89476 5.877 1.89454 6.03397 1.89432 6.19094C1.8936 6.71299 1.893 7.23504 1.89269 7.75709C1.89261 7.89253 1.89253 8.02797 1.89245 8.16341C1.89242 8.21391 1.89242 8.21391 1.89239 8.26542C1.89204 8.81031 1.89098 9.35519 1.88961 9.90008C1.88822 10.4599 1.88747 11.0197 1.88733 11.5796C1.88724 11.8937 1.88688 12.2079 1.8858 12.522C1.88489 12.7897 1.88455 13.0573 1.88496 13.325C1.88515 13.4614 1.88498 13.5978 1.88426 13.7342C1.88351 13.8825 1.88381 14.0308 1.88436 14.1791C1.8839 14.2216 1.88344 14.2641 1.88297 14.3079C1.88732 14.7952 2.04428 15.2246 2.36664 15.5921C2.67917 15.8946 3.0881 16.1004 3.5285 16.1013C3.58776 16.1016 3.58776 16.1016 3.64822 16.1019C3.69149 16.1019 3.73477 16.1019 3.77935 16.1019C3.84846 16.1021 3.84846 16.1021 3.91897 16.1024C4.07392 16.1028 4.22887 16.103 4.38381 16.1031C4.4947 16.1034 4.60558 16.1037 4.71646 16.104C5.04963 16.1048 5.38281 16.1052 5.71598 16.1056C5.873 16.1058 6.03002 16.106 6.18704 16.1062C6.70924 16.1069 7.23144 16.1075 7.75364 16.1079C7.88912 16.1079 8.0246 16.108 8.16008 16.1081C8.19376 16.1081 8.22743 16.1081 8.26212 16.1082C8.80717 16.1085 9.35221 16.1096 9.89725 16.1109C10.4572 16.1123 11.0172 16.1131 11.5772 16.1132C11.8915 16.1133 12.2057 16.1137 12.52 16.1147C12.7877 16.1157 13.0554 16.116 13.3231 16.1156C13.4596 16.1154 13.596 16.1156 13.7325 16.1163C13.8808 16.117 14.0292 16.1167 14.1775 16.1162C14.22 16.1166 14.2626 16.1171 14.3064 16.1176C14.7938 16.1132 15.2233 15.9563 15.5909 15.634C15.8973 15.3178 16.0995 14.9078 16.1002 14.4631C16.1004 14.4217 16.1005 14.3804 16.1007 14.3378C16.1007 14.2927 16.1007 14.2475 16.1006 14.2011C16.1008 14.1533 16.1009 14.1056 16.1011 14.0565C16.1014 13.9528 16.1016 13.8491 16.1018 13.7454C16.1021 13.5811 16.1027 13.4169 16.1035 13.2526C16.1038 13.1963 16.104 13.14 16.1043 13.0836C16.1044 13.0554 16.1046 13.0272 16.1047 12.9982C16.1065 12.616 16.1078 12.2337 16.1084 11.8515C16.1088 11.5658 16.11 11.2802 16.1118 10.9945C16.1123 10.8858 16.1125 10.777 16.1124 10.6683C16.1123 10.5159 16.1133 10.3636 16.1144 10.2112C16.1141 10.1665 16.1139 10.1218 16.1136 10.0757C16.1174 9.76903 16.1614 9.49005 16.3793 9.25963C16.6444 9.01999 16.8506 8.98138 17.2077 8.98695C17.4744 9.01591 17.634 9.14301 17.8107 9.33598C18.0005 9.6094 17.9961 9.86665 17.9954 10.1882C17.9957 10.259 17.9957 10.259 17.996 10.3312C17.9966 10.4872 17.9966 10.6432 17.9965 10.7992C17.9967 10.9081 17.9968 11.0171 17.997 11.1261C17.9973 11.3547 17.9973 11.5834 17.9971 11.812C17.9969 12.0746 17.9974 12.3371 17.9983 12.5996C17.9991 12.8537 17.9992 13.1078 17.9991 13.3619C17.9991 13.4692 17.9993 13.5765 17.9997 13.6838C18.0039 14.8932 17.849 15.9149 17.0183 16.8512C16.9796 16.8959 16.9796 16.8959 16.9401 16.9415C16.3687 17.5591 15.4936 17.9122 14.6673 17.9843C14.512 17.9902 14.3568 17.9904 14.2014 17.9902C14.1553 17.9904 14.1093 17.9905 14.0618 17.9906C13.9078 17.991 13.7539 17.991 13.6 17.9911C13.4894 17.9913 13.3788 17.9915 13.2683 17.9917C12.9681 17.9923 12.668 17.9926 12.3679 17.9927C12.1802 17.9929 11.9924 17.993 11.8047 17.9932C11.2841 17.9937 10.7635 17.9942 10.243 17.9943C10.2097 17.9943 10.1764 17.9943 10.1421 17.9943C10.1088 17.9943 10.0754 17.9944 10.041 17.9944C9.97346 17.9944 9.90588 17.9944 9.8383 17.9944C9.80478 17.9944 9.77126 17.9944 9.73672 17.9945C9.19427 17.9946 8.65182 17.9953 8.10937 17.9963C7.55132 17.9973 6.99327 17.9978 6.43522 17.9979C6.12235 17.9979 5.80949 17.9982 5.49662 17.9989C5.23006 17.9996 4.96351 17.9998 4.69695 17.9995C4.56124 17.9993 4.42554 17.9994 4.28983 17.9999C3.09089 18.0043 2.07654 17.8414 1.14917 17.019C1.10444 16.9803 1.10444 16.9803 1.05881 16.9408C0.446986 16.3752 0.109807 15.5243 0.0156597 14.7107C0.00962162 14.556 0.00963298 14.4014 0.00976365 14.2465C0.00963892 14.2001 0.00951422 14.1537 0.00938571 14.1059C0.009022 13.9506 0.00895774 13.7954 0.00889501 13.6401C0.00870064 13.5287 0.00849054 13.4172 0.00826339 13.3058C0.00769435 13.0032 0.00744042 12.7005 0.00725542 12.3979C0.00713921 12.2086 0.00696123 12.0194 0.00677241 11.8301C0.00626064 11.3055 0.00582844 10.7808 0.00568629 10.2561C0.00567707 10.2225 0.0056676 10.189 0.00565811 10.1544C0.00564894 10.1208 0.00564 10.0872 0.00563056 10.0525C0.00561194 9.98438 0.00559307 9.91625 0.00557419 9.84811C0.00556489 9.81431 0.00555558 9.78051 0.005546 9.74569C0.00538046 9.19876 0.00464842 8.65182 0.00367003 8.10488C0.00267201 7.5424 0.00215102 6.97991 0.00210218 6.41742C0.00206383 6.102 0.00182576 5.78657 0.00106026 5.47115C0.000410331 5.2024 0.000200763 4.93367 0.000545548 4.66492C0.000708384 4.52807 0.000606076 4.39123 8.11194e-05 4.25437C-0.00407824 3.10186 0.149649 2.09386 0.939259 1.1965C0.967237 1.16453 0.995216 1.13255 1.02404 1.09961C1.75073 0.321913 2.78064 0.0165573 3.8191 0.013925Z" fill="#070A1C"/>
<path d="M11.7534 0.0154594C11.8011 0.0152197 11.8489 0.0149801 11.8982 0.0147332C11.9504 0.0146862 12.0027 0.0146393 12.0565 0.014591C12.1117 0.0143826 12.1669 0.0141742 12.2237 0.0139596C12.375 0.0134096 12.5263 0.0131384 12.6776 0.0129518C12.7722 0.0128287 12.8668 0.0126564 12.9614 0.012469C13.2576 0.0118953 13.5539 0.0114895 13.8501 0.0113274C14.1916 0.0111394 14.5331 0.0104034 14.8746 0.00918688C15.1388 0.00827831 15.4031 0.00785622 15.6674 0.00780019C15.8251 0.00775629 15.9827 0.0075103 16.1404 0.00675852C16.2889 0.00606454 16.4373 0.00597746 16.5858 0.00634465C16.6658 0.00639215 16.7459 0.00581819 16.8259 0.00522186C17.1925 0.00699703 17.5023 0.0435302 17.774 0.315141C17.9328 0.544686 17.9889 0.735771 17.9898 1.01143C17.99 1.0592 17.9902 1.10697 17.9905 1.15619C17.9906 1.23456 17.9906 1.23456 17.9906 1.3145C17.9908 1.36966 17.991 1.42482 17.9913 1.48164C17.9918 1.63288 17.9921 1.78412 17.9923 1.93536C17.9924 2.02993 17.9926 2.12451 17.9927 2.21908C17.9933 2.51524 17.9937 2.8114 17.9939 3.10756C17.9941 3.44895 17.9948 3.79034 17.996 4.13173C17.9969 4.39592 17.9974 4.66011 17.9974 4.9243C17.9975 5.08195 17.9977 5.23959 17.9985 5.39723C17.9992 5.54564 17.9992 5.69403 17.9989 5.84244C17.9988 5.92247 17.9994 6.0025 18 6.08253C17.9984 6.41211 17.9807 6.67443 17.7608 6.93584C17.5005 7.15376 17.3235 7.25438 16.9827 7.24931C16.737 7.22434 16.5208 7.12054 16.3466 6.94634C16.1682 6.68851 16.1306 6.47618 16.128 6.16896C16.1276 6.13741 16.1272 6.10587 16.1268 6.07337C16.1255 5.96936 16.1244 5.86536 16.1234 5.76135C16.1225 5.68914 16.1216 5.61692 16.1207 5.54471C16.1184 5.35483 16.1163 5.16495 16.1143 4.97507C16.1122 4.78123 16.1099 4.5874 16.1076 4.39357C16.103 4.01339 16.0988 3.6332 16.0947 3.25301C16.0455 3.30236 16.0455 3.30236 15.9953 3.35271C15.1971 4.15346 14.3986 4.95385 13.5996 5.75386C13.2133 6.14075 12.8271 6.52775 12.4411 6.91503C12.1047 7.25261 11.768 7.58997 11.4311 7.92706C11.2528 8.10554 11.0745 8.28412 10.8965 8.46297C10.7289 8.63138 10.561 8.79949 10.3929 8.96739C10.3313 9.02898 10.2699 9.09068 10.2085 9.15249C10.1245 9.23707 10.0402 9.32125 9.95571 9.40535C9.93169 9.42972 9.90768 9.45409 9.88294 9.47921C9.62663 9.73265 9.37626 9.91228 9.01026 9.93667C8.76267 9.93252 8.56987 9.86239 8.38053 9.70322C8.16311 9.44359 8.05963 9.26513 8.0678 8.92448C8.12299 8.33374 8.79291 7.86076 9.18935 7.46553C9.25021 7.40469 9.31107 7.34385 9.37191 7.28299C9.53599 7.11895 9.70019 6.95504 9.86442 6.79115C10.0365 6.61944 10.2084 6.4476 10.3803 6.27578C10.7054 5.95093 11.0305 5.62619 11.3558 5.30149C11.7262 4.93161 12.0966 4.56161 12.4669 4.1916C13.2282 3.43093 13.9897 2.67041 14.7513 1.90999C14.6916 1.90962 14.6916 1.90962 14.6308 1.90924C14.2553 1.90683 13.8798 1.90378 13.5042 1.90009C13.3112 1.89822 13.1182 1.89657 12.9251 1.89545C12.7387 1.89435 12.5522 1.89265 12.3657 1.89055C12.2948 1.88985 12.2238 1.88936 12.1528 1.8891C12.0531 1.88869 11.9533 1.88751 11.8535 1.88616C11.8245 1.88622 11.7955 1.88628 11.7656 1.88635C11.4643 1.88061 11.189 1.79026 10.9729 1.57423C10.7951 1.31721 10.7313 1.08854 10.763 0.776806C10.8224 0.539581 10.9203 0.325594 11.1271 0.182674C11.3431 0.05346 11.5053 0.0162055 11.7534 0.0154594Z" fill="#070A1C"/>
</svg>
