<svg width="104" height="35" viewBox="0 0 104 35" fill="none" xmlns="http://www.w3.org/2000/svg">
<g filter="url(#filter0_d_107_1948)">
<mask id="path-1-outside-1_107_1948" maskUnits="userSpaceOnUse" x="3" y="-1" width="98" height="29" fill="black">
<rect fill="white" x="3" y="-1" width="98" height="29"/>
<path d="M5.808 1.4H15.188C15.6733 1.4 16.0747 1.55867 16.392 1.876C16.728 2.17467 16.896 2.56667 16.896 3.052C16.896 3.51867 16.728 3.90133 16.392 4.2C16.0747 4.48 15.6733 4.62 15.188 4.62H7.348L7.6 4.144V9.604L7.376 9.38H13.928C14.4133 9.38 14.8147 9.53867 15.132 9.856C15.468 10.1547 15.636 10.5467 15.636 11.032C15.636 11.4987 15.468 11.8813 15.132 12.18C14.8147 12.46 14.4133 12.6 13.928 12.6H7.46L7.6 12.376V18.032L7.376 17.78H15.188C15.6733 17.78 16.0747 17.948 16.392 18.284C16.728 18.6013 16.896 18.9747 16.896 19.404C16.896 19.8707 16.728 20.2533 16.392 20.552C16.0747 20.8507 15.6733 21 15.188 21H5.808C5.32267 21 4.912 20.8413 4.576 20.524C4.25867 20.188 4.1 19.7773 4.1 19.292V3.108C4.1 2.62267 4.25867 2.22133 4.576 1.904C4.912 1.568 5.32267 1.4 5.808 1.4ZM19.8714 6.02C20.4128 6.02 20.8701 6.25333 21.2434 6.72L30.5954 18.34C30.8381 18.6387 30.9594 18.9747 30.9594 19.348C30.9594 19.8147 30.7821 20.216 30.4274 20.552C30.0728 20.888 29.6808 21.056 29.2514 21.056C28.7101 21.056 28.2528 20.8133 27.8794 20.328L18.5274 8.708C18.2848 8.40933 18.1634 8.07333 18.1634 7.7C18.1634 7.21467 18.3314 6.81333 18.6674 6.496C19.0221 6.17867 19.4234 6.02 19.8714 6.02ZM19.8994 21.028C19.5261 21.028 19.1528 20.888 18.7794 20.608C18.4248 20.3093 18.2474 19.9547 18.2474 19.544C18.2474 19.1707 18.3874 18.816 18.6674 18.48L22.9514 13.244L24.6314 16.044L21.2434 20.328C20.8888 20.7947 20.4408 21.028 19.8994 21.028ZM29.2234 6.02C29.6714 6.02 30.0448 6.17867 30.3434 6.496C30.6608 6.79467 30.8194 7.14 30.8194 7.532C30.8194 7.71867 30.7914 7.90533 30.7354 8.092C30.6794 8.27867 30.5768 8.456 30.4274 8.624L26.1994 13.776L24.4354 11.34L27.8794 6.776C28.2528 6.272 28.7008 6.02 29.2234 6.02ZM40.684 5.74C41.9906 5.74 43.1573 6.076 44.184 6.748C45.2293 7.40133 46.0506 8.30667 46.648 9.464C47.264 10.6213 47.572 11.9653 47.572 13.496C47.572 15.0267 47.264 16.38 46.648 17.556C46.0506 18.7133 45.2386 19.628 44.212 20.3C43.204 20.9533 42.0653 21.28 40.796 21.28C40.0493 21.28 39.3493 21.1587 38.696 20.916C38.0426 20.6733 37.464 20.3653 36.96 19.992C36.4746 19.6187 36.092 19.2453 35.812 18.872C35.5506 18.48 35.42 18.1533 35.42 17.892L36.288 17.528V24.892C36.288 25.3773 36.1293 25.7787 35.812 26.096C35.4946 26.432 35.0933 26.6 34.608 26.6C34.1226 26.6 33.7213 26.4413 33.404 26.124C33.0866 25.8067 32.928 25.396 32.928 24.892V7.728C32.928 7.24267 33.0866 6.84133 33.404 6.524C33.7213 6.188 34.1226 6.02 34.608 6.02C35.0933 6.02 35.4946 6.188 35.812 6.524C36.1293 6.84133 36.288 7.24267 36.288 7.728V9.1L35.812 8.848C35.812 8.60533 35.9426 8.316 36.204 7.98C36.4653 7.62533 36.82 7.28 37.268 6.944C37.716 6.58933 38.2293 6.3 38.808 6.076C39.4053 5.852 40.0306 5.74 40.684 5.74ZM40.264 8.82C39.4426 8.82 38.724 9.02533 38.108 9.436C37.492 9.84667 37.0066 10.4067 36.652 11.116C36.316 11.8067 36.148 12.6 36.148 13.496C36.148 14.3733 36.316 15.176 36.652 15.904C37.0066 16.6133 37.492 17.1733 38.108 17.584C38.724 17.9947 39.4426 18.2 40.264 18.2C41.0853 18.2 41.7946 17.9947 42.392 17.584C43.008 17.1733 43.484 16.6133 43.82 15.904C44.1746 15.176 44.352 14.3733 44.352 13.496C44.352 12.6 44.1746 11.8067 43.82 11.116C43.484 10.4067 43.008 9.84667 42.392 9.436C41.7946 9.02533 41.0853 8.82 40.264 8.82ZM53.87 19.292C53.87 19.7773 53.702 20.188 53.366 20.524C53.0487 20.8413 52.6473 21 52.162 21C51.6953 21 51.3033 20.8413 50.986 20.524C50.6687 20.188 50.51 19.7773 50.51 19.292V1.988C50.51 1.50267 50.6687 1.10133 50.986 0.783998C51.322 0.447999 51.7327 0.28 52.218 0.28C52.7033 0.28 53.0953 0.447999 53.394 0.783998C53.7113 1.10133 53.87 1.50267 53.87 1.988V19.292ZM71.7554 13.524C71.7554 15.0547 71.4101 16.408 70.7194 17.584C70.0474 18.7413 69.1328 19.6467 67.9754 20.3C66.8368 20.9533 65.5581 21.28 64.1394 21.28C62.7208 21.28 61.4328 20.9533 60.2754 20.3C59.1368 19.6467 58.2221 18.7413 57.5314 17.584C56.8594 16.408 56.5234 15.0547 56.5234 13.524C56.5234 11.9933 56.8594 10.6493 57.5314 9.492C58.2221 8.316 59.1368 7.40133 60.2754 6.748C61.4328 6.076 62.7208 5.74 64.1394 5.74C65.5581 5.74 66.8368 6.076 67.9754 6.748C69.1328 7.40133 70.0474 8.316 70.7194 9.492C71.4101 10.6493 71.7554 11.9933 71.7554 13.524ZM68.3954 13.524C68.3954 12.572 68.1994 11.7507 67.8074 11.06C67.4341 10.3507 66.9208 9.8 66.2674 9.408C65.6328 9.016 64.9234 8.82 64.1394 8.82C63.3554 8.82 62.6368 9.016 61.9834 9.408C61.3488 9.8 60.8354 10.3507 60.4434 11.06C60.0701 11.7507 59.8834 12.572 59.8834 13.524C59.8834 14.4573 60.0701 15.2787 60.4434 15.988C60.8354 16.6787 61.3488 17.22 61.9834 17.612C62.6368 18.004 63.3554 18.2 64.1394 18.2C64.9234 18.2 65.6328 18.004 66.2674 17.612C66.9208 17.22 67.4341 16.6787 67.8074 15.988C68.1994 15.2787 68.3954 14.4573 68.3954 13.524ZM76.0961 21C75.6108 21 75.2094 20.8413 74.8921 20.524C74.5748 20.188 74.4161 19.7773 74.4161 19.292V7.728C74.4161 7.24267 74.5748 6.84133 74.8921 6.524C75.2094 6.188 75.6108 6.02 76.0961 6.02C76.5814 6.02 76.9828 6.188 77.3001 6.524C77.6174 6.84133 77.7761 7.24267 77.7761 7.728V10.36L77.5801 8.484C77.7854 8.036 78.0468 7.644 78.3641 7.308C78.7001 6.95333 79.0734 6.664 79.4841 6.44C79.8948 6.19733 80.3334 6.02 80.8001 5.908C81.2668 5.796 81.7334 5.74 82.2001 5.74C82.7601 5.74 83.2268 5.89867 83.6001 6.216C83.9921 6.53333 84.1881 6.90667 84.1881 7.336C84.1881 7.952 84.0294 8.4 83.7121 8.68C83.3948 8.94133 83.0494 9.072 82.6761 9.072C82.3214 9.072 81.9948 9.00667 81.6961 8.876C81.4161 8.74533 81.0894 8.68 80.7161 8.68C80.3801 8.68 80.0348 8.764 79.6801 8.932C79.3441 9.08133 79.0268 9.324 78.7281 9.66C78.4481 9.996 78.2148 10.416 78.0281 10.92C77.8601 11.4053 77.7761 11.984 77.7761 12.656V19.292C77.7761 19.7773 77.6174 20.188 77.3001 20.524C76.9828 20.8413 76.5814 21 76.0961 21ZM92.7038 21.28C91.1171 21.28 89.7358 20.9533 88.5598 20.3C87.4025 19.628 86.5065 18.7227 85.8718 17.584C85.2558 16.4453 84.9478 15.1573 84.9478 13.72C84.9478 12.04 85.2838 10.612 85.9558 9.436C86.6465 8.24133 87.5425 7.32667 88.6438 6.692C89.7451 6.05733 90.9118 5.74 92.1438 5.74C93.0958 5.74 93.9918 5.936 94.8318 6.328C95.6905 6.72 96.4465 7.26133 97.0998 7.952C97.7531 8.624 98.2665 9.408 98.6398 10.304C99.0318 11.2 99.2278 12.152 99.2278 13.16C99.2091 13.608 99.0318 13.972 98.6958 14.252C98.3598 14.532 97.9678 14.672 97.5198 14.672H86.8238L85.9838 11.872H96.2598L95.6438 12.432V11.676C95.6065 11.1347 95.4105 10.6493 95.0558 10.22C94.7198 9.79067 94.2905 9.45467 93.7678 9.212C93.2638 8.95067 92.7225 8.82 92.1438 8.82C91.5838 8.82 91.0611 8.89467 90.5758 9.044C90.0905 9.19333 89.6705 9.44533 89.3158 9.8C88.9611 10.1547 88.6811 10.6307 88.4758 11.228C88.2705 11.8253 88.1678 12.5813 88.1678 13.496C88.1678 14.504 88.3731 15.3627 88.7838 16.072C89.2131 16.7627 89.7545 17.2947 90.4078 17.668C91.0798 18.0227 91.7891 18.2 92.5358 18.2C93.2265 18.2 93.7771 18.144 94.1878 18.032C94.5985 17.92 94.9251 17.7893 95.1678 17.64C95.4291 17.472 95.6625 17.332 95.8678 17.22C96.2038 17.052 96.5211 16.968 96.8198 16.968C97.2305 16.968 97.5665 17.108 97.8278 17.388C98.1078 17.668 98.2478 17.9947 98.2478 18.368C98.2478 18.872 97.9865 19.3293 97.4638 19.74C96.9785 20.1507 96.2971 20.5147 95.4198 20.832C94.5425 21.1307 93.6371 21.28 92.7038 21.28Z"/>
</mask>
<path d="M5.808 1.4H15.188C15.6733 1.4 16.0747 1.55867 16.392 1.876C16.728 2.17467 16.896 2.56667 16.896 3.052C16.896 3.51867 16.728 3.90133 16.392 4.2C16.0747 4.48 15.6733 4.62 15.188 4.62H7.348L7.6 4.144V9.604L7.376 9.38H13.928C14.4133 9.38 14.8147 9.53867 15.132 9.856C15.468 10.1547 15.636 10.5467 15.636 11.032C15.636 11.4987 15.468 11.8813 15.132 12.18C14.8147 12.46 14.4133 12.6 13.928 12.6H7.46L7.6 12.376V18.032L7.376 17.78H15.188C15.6733 17.78 16.0747 17.948 16.392 18.284C16.728 18.6013 16.896 18.9747 16.896 19.404C16.896 19.8707 16.728 20.2533 16.392 20.552C16.0747 20.8507 15.6733 21 15.188 21H5.808C5.32267 21 4.912 20.8413 4.576 20.524C4.25867 20.188 4.1 19.7773 4.1 19.292V3.108C4.1 2.62267 4.25867 2.22133 4.576 1.904C4.912 1.568 5.32267 1.4 5.808 1.4ZM19.8714 6.02C20.4128 6.02 20.8701 6.25333 21.2434 6.72L30.5954 18.34C30.8381 18.6387 30.9594 18.9747 30.9594 19.348C30.9594 19.8147 30.7821 20.216 30.4274 20.552C30.0728 20.888 29.6808 21.056 29.2514 21.056C28.7101 21.056 28.2528 20.8133 27.8794 20.328L18.5274 8.708C18.2848 8.40933 18.1634 8.07333 18.1634 7.7C18.1634 7.21467 18.3314 6.81333 18.6674 6.496C19.0221 6.17867 19.4234 6.02 19.8714 6.02ZM19.8994 21.028C19.5261 21.028 19.1528 20.888 18.7794 20.608C18.4248 20.3093 18.2474 19.9547 18.2474 19.544C18.2474 19.1707 18.3874 18.816 18.6674 18.48L22.9514 13.244L24.6314 16.044L21.2434 20.328C20.8888 20.7947 20.4408 21.028 19.8994 21.028ZM29.2234 6.02C29.6714 6.02 30.0448 6.17867 30.3434 6.496C30.6608 6.79467 30.8194 7.14 30.8194 7.532C30.8194 7.71867 30.7914 7.90533 30.7354 8.092C30.6794 8.27867 30.5768 8.456 30.4274 8.624L26.1994 13.776L24.4354 11.34L27.8794 6.776C28.2528 6.272 28.7008 6.02 29.2234 6.02ZM40.684 5.74C41.9906 5.74 43.1573 6.076 44.184 6.748C45.2293 7.40133 46.0506 8.30667 46.648 9.464C47.264 10.6213 47.572 11.9653 47.572 13.496C47.572 15.0267 47.264 16.38 46.648 17.556C46.0506 18.7133 45.2386 19.628 44.212 20.3C43.204 20.9533 42.0653 21.28 40.796 21.28C40.0493 21.28 39.3493 21.1587 38.696 20.916C38.0426 20.6733 37.464 20.3653 36.96 19.992C36.4746 19.6187 36.092 19.2453 35.812 18.872C35.5506 18.48 35.42 18.1533 35.42 17.892L36.288 17.528V24.892C36.288 25.3773 36.1293 25.7787 35.812 26.096C35.4946 26.432 35.0933 26.6 34.608 26.6C34.1226 26.6 33.7213 26.4413 33.404 26.124C33.0866 25.8067 32.928 25.396 32.928 24.892V7.728C32.928 7.24267 33.0866 6.84133 33.404 6.524C33.7213 6.188 34.1226 6.02 34.608 6.02C35.0933 6.02 35.4946 6.188 35.812 6.524C36.1293 6.84133 36.288 7.24267 36.288 7.728V9.1L35.812 8.848C35.812 8.60533 35.9426 8.316 36.204 7.98C36.4653 7.62533 36.82 7.28 37.268 6.944C37.716 6.58933 38.2293 6.3 38.808 6.076C39.4053 5.852 40.0306 5.74 40.684 5.74ZM40.264 8.82C39.4426 8.82 38.724 9.02533 38.108 9.436C37.492 9.84667 37.0066 10.4067 36.652 11.116C36.316 11.8067 36.148 12.6 36.148 13.496C36.148 14.3733 36.316 15.176 36.652 15.904C37.0066 16.6133 37.492 17.1733 38.108 17.584C38.724 17.9947 39.4426 18.2 40.264 18.2C41.0853 18.2 41.7946 17.9947 42.392 17.584C43.008 17.1733 43.484 16.6133 43.82 15.904C44.1746 15.176 44.352 14.3733 44.352 13.496C44.352 12.6 44.1746 11.8067 43.82 11.116C43.484 10.4067 43.008 9.84667 42.392 9.436C41.7946 9.02533 41.0853 8.82 40.264 8.82ZM53.87 19.292C53.87 19.7773 53.702 20.188 53.366 20.524C53.0487 20.8413 52.6473 21 52.162 21C51.6953 21 51.3033 20.8413 50.986 20.524C50.6687 20.188 50.51 19.7773 50.51 19.292V1.988C50.51 1.50267 50.6687 1.10133 50.986 0.783998C51.322 0.447999 51.7327 0.28 52.218 0.28C52.7033 0.28 53.0953 0.447999 53.394 0.783998C53.7113 1.10133 53.87 1.50267 53.87 1.988V19.292ZM71.7554 13.524C71.7554 15.0547 71.4101 16.408 70.7194 17.584C70.0474 18.7413 69.1328 19.6467 67.9754 20.3C66.8368 20.9533 65.5581 21.28 64.1394 21.28C62.7208 21.28 61.4328 20.9533 60.2754 20.3C59.1368 19.6467 58.2221 18.7413 57.5314 17.584C56.8594 16.408 56.5234 15.0547 56.5234 13.524C56.5234 11.9933 56.8594 10.6493 57.5314 9.492C58.2221 8.316 59.1368 7.40133 60.2754 6.748C61.4328 6.076 62.7208 5.74 64.1394 5.74C65.5581 5.74 66.8368 6.076 67.9754 6.748C69.1328 7.40133 70.0474 8.316 70.7194 9.492C71.4101 10.6493 71.7554 11.9933 71.7554 13.524ZM68.3954 13.524C68.3954 12.572 68.1994 11.7507 67.8074 11.06C67.4341 10.3507 66.9208 9.8 66.2674 9.408C65.6328 9.016 64.9234 8.82 64.1394 8.82C63.3554 8.82 62.6368 9.016 61.9834 9.408C61.3488 9.8 60.8354 10.3507 60.4434 11.06C60.0701 11.7507 59.8834 12.572 59.8834 13.524C59.8834 14.4573 60.0701 15.2787 60.4434 15.988C60.8354 16.6787 61.3488 17.22 61.9834 17.612C62.6368 18.004 63.3554 18.2 64.1394 18.2C64.9234 18.2 65.6328 18.004 66.2674 17.612C66.9208 17.22 67.4341 16.6787 67.8074 15.988C68.1994 15.2787 68.3954 14.4573 68.3954 13.524ZM76.0961 21C75.6108 21 75.2094 20.8413 74.8921 20.524C74.5748 20.188 74.4161 19.7773 74.4161 19.292V7.728C74.4161 7.24267 74.5748 6.84133 74.8921 6.524C75.2094 6.188 75.6108 6.02 76.0961 6.02C76.5814 6.02 76.9828 6.188 77.3001 6.524C77.6174 6.84133 77.7761 7.24267 77.7761 7.728V10.36L77.5801 8.484C77.7854 8.036 78.0468 7.644 78.3641 7.308C78.7001 6.95333 79.0734 6.664 79.4841 6.44C79.8948 6.19733 80.3334 6.02 80.8001 5.908C81.2668 5.796 81.7334 5.74 82.2001 5.74C82.7601 5.74 83.2268 5.89867 83.6001 6.216C83.9921 6.53333 84.1881 6.90667 84.1881 7.336C84.1881 7.952 84.0294 8.4 83.7121 8.68C83.3948 8.94133 83.0494 9.072 82.6761 9.072C82.3214 9.072 81.9948 9.00667 81.6961 8.876C81.4161 8.74533 81.0894 8.68 80.7161 8.68C80.3801 8.68 80.0348 8.764 79.6801 8.932C79.3441 9.08133 79.0268 9.324 78.7281 9.66C78.4481 9.996 78.2148 10.416 78.0281 10.92C77.8601 11.4053 77.7761 11.984 77.7761 12.656V19.292C77.7761 19.7773 77.6174 20.188 77.3001 20.524C76.9828 20.8413 76.5814 21 76.0961 21ZM92.7038 21.28C91.1171 21.28 89.7358 20.9533 88.5598 20.3C87.4025 19.628 86.5065 18.7227 85.8718 17.584C85.2558 16.4453 84.9478 15.1573 84.9478 13.72C84.9478 12.04 85.2838 10.612 85.9558 9.436C86.6465 8.24133 87.5425 7.32667 88.6438 6.692C89.7451 6.05733 90.9118 5.74 92.1438 5.74C93.0958 5.74 93.9918 5.936 94.8318 6.328C95.6905 6.72 96.4465 7.26133 97.0998 7.952C97.7531 8.624 98.2665 9.408 98.6398 10.304C99.0318 11.2 99.2278 12.152 99.2278 13.16C99.2091 13.608 99.0318 13.972 98.6958 14.252C98.3598 14.532 97.9678 14.672 97.5198 14.672H86.8238L85.9838 11.872H96.2598L95.6438 12.432V11.676C95.6065 11.1347 95.4105 10.6493 95.0558 10.22C94.7198 9.79067 94.2905 9.45467 93.7678 9.212C93.2638 8.95067 92.7225 8.82 92.1438 8.82C91.5838 8.82 91.0611 8.89467 90.5758 9.044C90.0905 9.19333 89.6705 9.44533 89.3158 9.8C88.9611 10.1547 88.6811 10.6307 88.4758 11.228C88.2705 11.8253 88.1678 12.5813 88.1678 13.496C88.1678 14.504 88.3731 15.3627 88.7838 16.072C89.2131 16.7627 89.7545 17.2947 90.4078 17.668C91.0798 18.0227 91.7891 18.2 92.5358 18.2C93.2265 18.2 93.7771 18.144 94.1878 18.032C94.5985 17.92 94.9251 17.7893 95.1678 17.64C95.4291 17.472 95.6625 17.332 95.8678 17.22C96.2038 17.052 96.5211 16.968 96.8198 16.968C97.2305 16.968 97.5665 17.108 97.8278 17.388C98.1078 17.668 98.2478 17.9947 98.2478 18.368C98.2478 18.872 97.9865 19.3293 97.4638 19.74C96.9785 20.1507 96.2971 20.5147 95.4198 20.832C94.5425 21.1307 93.6371 21.28 92.7038 21.28Z" fill="#424242"/>
<path d="M16.392 1.876L15.6849 2.58311L15.7057 2.60389L15.7276 2.62341L16.392 1.876ZM16.392 4.2L17.0536 4.94984L17.0564 4.94741L16.392 4.2ZM7.348 4.62L6.46421 4.15211L5.6871 5.62H7.348V4.62ZM7.6 4.144H8.6L6.71621 3.67611L7.6 4.144ZM7.6 9.604L6.89289 10.3111L8.6 12.0182V9.604H7.6ZM7.376 9.38V8.38H4.96179L6.66889 10.0871L7.376 9.38ZM15.132 9.856L14.4249 10.5631L14.4457 10.5839L14.4676 10.6034L15.132 9.856ZM15.132 12.18L15.7936 12.9298L15.7964 12.9274L15.132 12.18ZM7.46 12.6L6.612 12.07L5.65576 13.6H7.46V12.6ZM7.6 12.376H8.6V8.88919L6.752 11.846L7.6 12.376ZM7.6 18.032L6.85259 18.6964L8.6 20.6622V18.032H7.6ZM7.376 17.78V16.78H5.14916L6.62859 18.4444L7.376 17.78ZM16.392 18.284L15.665 18.9706L15.6846 18.9914L15.7054 19.011L16.392 18.284ZM16.392 20.552L15.7276 19.8046L15.717 19.814L15.7066 19.8238L16.392 20.552ZM4.576 20.524L3.84899 21.2106L3.8686 21.2314L3.88938 21.251L4.576 20.524ZM4.576 1.904L3.86889 1.19689L3.86889 1.19689L4.576 1.904ZM5.808 2.4H15.188V0.399999H5.808V2.4ZM15.188 2.4C15.432 2.4 15.5713 2.46953 15.6849 2.58311L17.0991 1.16889C16.578 0.647806 15.9147 0.399999 15.188 0.399999V2.4ZM15.7276 2.62341C15.8317 2.71594 15.896 2.82671 15.896 3.052H17.896C17.896 2.30663 17.6243 1.63339 17.0564 1.12859L15.7276 2.62341ZM15.896 3.052C15.896 3.2454 15.8411 3.35176 15.7276 3.45259L17.0564 4.94741C17.6149 4.4509 17.896 3.79193 17.896 3.052H15.896ZM15.7304 3.45016C15.6224 3.54541 15.4678 3.62 15.188 3.62V5.62C15.8789 5.62 16.5269 5.41459 17.0536 4.94984L15.7304 3.45016ZM15.188 3.62H7.348V5.62H15.188V3.62ZM8.23179 5.08789L8.48379 4.61189L6.71621 3.67611L6.46421 4.15211L8.23179 5.08789ZM6.6 4.144V9.604H8.6V4.144H6.6ZM8.30711 8.89689L8.08311 8.67289L6.66889 10.0871L6.89289 10.3111L8.30711 8.89689ZM7.376 10.38H13.928V8.38H7.376V10.38ZM13.928 10.38C14.172 10.38 14.3113 10.4495 14.4249 10.5631L15.8391 9.14889C15.318 8.62781 14.6547 8.38 13.928 8.38V10.38ZM14.4676 10.6034C14.5717 10.6959 14.636 10.8067 14.636 11.032H16.636C16.636 10.2866 16.3643 9.61339 15.7964 9.10859L14.4676 10.6034ZM14.636 11.032C14.636 11.2254 14.5811 11.3318 14.4676 11.4326L15.7964 12.9274C16.3549 12.4309 16.636 11.7719 16.636 11.032H14.636ZM14.4704 11.4302C14.3624 11.5254 14.2078 11.6 13.928 11.6V13.6C14.6189 13.6 15.2669 13.3946 15.7936 12.9298L14.4704 11.4302ZM13.928 11.6H7.46V13.6H13.928V11.6ZM8.308 13.13L8.448 12.906L6.752 11.846L6.612 12.07L8.308 13.13ZM6.6 12.376V18.032H8.6V12.376H6.6ZM8.34741 17.3676L8.12341 17.1156L6.62859 18.4444L6.85259 18.6964L8.34741 17.3676ZM7.376 18.78H15.188V16.78H7.376V18.78ZM15.188 18.78C15.4137 18.78 15.5469 18.8456 15.665 18.9706L17.119 17.5974C16.6024 17.0504 15.933 16.78 15.188 16.78V18.78ZM15.7054 19.011C15.8584 19.1556 15.896 19.2724 15.896 19.404H17.896C17.896 18.6769 17.5976 18.0471 17.0786 17.557L15.7054 19.011ZM15.896 19.404C15.896 19.5974 15.8411 19.7038 15.7276 19.8046L17.0564 21.2994C17.6149 20.8029 17.896 20.1439 17.896 19.404H15.896ZM15.7066 19.8238C15.5965 19.9275 15.45 20 15.188 20V22C15.8966 22 16.5529 21.7739 17.0774 21.2802L15.7066 19.8238ZM15.188 20H5.808V22H15.188V20ZM5.808 20C5.56388 20 5.40298 19.9295 5.26262 19.797L3.88938 21.251C4.42102 21.7531 5.08145 22 5.808 22V20ZM5.30301 19.8374C5.17046 19.697 5.1 19.5361 5.1 19.292H3.1C3.1 20.0185 3.34688 20.679 3.84899 21.2106L5.30301 19.8374ZM5.1 19.292V3.108H3.1V19.292H5.1ZM5.1 3.108C5.1 2.86403 5.16953 2.72469 5.28311 2.6111L3.86889 1.19689C3.34781 1.71798 3.1 2.3813 3.1 3.108H5.1ZM5.28311 2.61111C5.42712 2.46709 5.58153 2.4 5.808 2.4V0.399999C5.06381 0.399999 4.39688 0.668909 3.86889 1.19689L5.28311 2.61111ZM21.2434 6.72L20.4626 7.3447L20.4644 7.34698L21.2434 6.72ZM30.5954 18.34L29.8164 18.967L29.8193 18.9706L30.5954 18.34ZM30.4274 20.552L29.7397 19.826L29.7397 19.826L30.4274 20.552ZM27.8794 20.328L28.6721 19.7183L28.6654 19.7096L28.6585 19.701L27.8794 20.328ZM18.5274 8.708L19.3065 8.08101L19.3036 8.07741L18.5274 8.708ZM18.6674 6.496L18.0006 5.75076L17.9906 5.75974L17.9808 5.76899L18.6674 6.496ZM18.7794 20.608L18.1353 21.3729L18.1569 21.3911L18.1794 21.408L18.7794 20.608ZM18.6674 18.48L19.4357 19.1202L19.4414 19.1132L18.6674 18.48ZM22.9514 13.244L23.8089 12.7295L23.0776 11.5106L22.1775 12.6108L22.9514 13.244ZM24.6314 16.044L25.4158 16.6643L25.8445 16.1222L25.4889 15.5295L24.6314 16.044ZM21.2434 20.328L20.4591 19.7077L20.4531 19.7152L20.4473 19.7229L21.2434 20.328ZM30.3434 6.496L29.6152 7.18136L29.636 7.20343L29.6581 7.2242L30.3434 6.496ZM30.4274 8.624L29.68 7.95963L29.6669 7.97437L29.6544 7.98962L30.4274 8.624ZM26.1994 13.776L25.3895 14.3625L26.1499 15.4127L26.9725 14.4104L26.1994 13.776ZM24.4354 11.34L23.6372 10.7377L23.1919 11.3278L23.6255 11.9265L24.4354 11.34ZM27.8794 6.776L28.6777 7.37837L28.683 7.37123L27.8794 6.776ZM19.8714 7.02C20.0747 7.02 20.2565 7.08713 20.4626 7.34469L22.0243 6.0953C21.4837 5.41953 20.7508 5.02 19.8714 5.02V7.02ZM20.4644 7.34698L29.8164 18.967L31.3745 17.713L22.0225 6.09302L20.4644 7.34698ZM29.8193 18.9706C29.922 19.097 29.9594 19.2119 29.9594 19.348H31.9594C31.9594 18.7374 31.7542 18.1804 31.3716 17.7094L29.8193 18.9706ZM29.9594 19.348C29.9594 19.5259 29.9055 19.6689 29.7397 19.826L31.1152 21.278C31.6587 20.7631 31.9594 20.1034 31.9594 19.348H29.9594ZM29.7397 19.826C29.5431 20.0123 29.3892 20.056 29.2514 20.056V22.056C29.9723 22.056 30.6024 21.7637 31.1152 21.278L29.7397 19.826ZM29.2514 20.056C29.0642 20.056 28.8844 19.9943 28.6721 19.7183L27.0868 20.9377C27.6212 21.6324 28.356 22.056 29.2514 22.056V20.056ZM28.6585 19.701L19.3065 8.08102L17.7484 9.33498L27.1004 20.955L28.6585 19.701ZM19.3036 8.07741C19.2009 7.95104 19.1634 7.83611 19.1634 7.7H17.1634C17.1634 8.31056 17.3687 8.86763 17.7513 9.33859L19.3036 8.07741ZM19.1634 7.7C19.1634 7.4743 19.2291 7.34106 19.3541 7.22301L17.9808 5.76899C17.4338 6.28561 17.1634 6.95503 17.1634 7.7H19.1634ZM19.3342 7.24124C19.518 7.07681 19.6857 7.02 19.8714 7.02V5.02C19.1612 5.02 18.5262 5.28052 18.0006 5.75076L19.3342 7.24124ZM19.8994 20.028C19.7916 20.028 19.6236 19.9911 19.3794 19.808L18.1794 21.408C18.6819 21.7849 19.2606 22.028 19.8994 22.028V20.028ZM19.4236 19.8431C19.2619 19.7069 19.2474 19.6195 19.2474 19.544H17.2474C17.2474 20.2898 17.5877 20.9118 18.1353 21.3729L19.4236 19.8431ZM19.2474 19.544C19.2474 19.4435 19.2784 19.3088 19.4357 19.1202L17.8992 17.8398C17.4964 18.3232 17.2474 18.8978 17.2474 19.544H19.2474ZM19.4414 19.1132L23.7254 13.8772L22.1775 12.6108L17.8935 17.8468L19.4414 19.1132ZM22.0939 13.7585L23.7739 16.5585L25.4889 15.5295L23.8089 12.7295L22.0939 13.7585ZM23.8471 15.4237L20.4591 19.7077L22.0278 20.9483L25.4158 16.6643L23.8471 15.4237ZM20.4473 19.7229C20.2636 19.9646 20.0995 20.028 19.8994 20.028V22.028C20.782 22.028 21.5139 21.6247 22.0396 20.9331L20.4473 19.7229ZM29.2234 7.02C29.4044 7.02 29.5115 7.07109 29.6152 7.18136L31.0716 5.81064C30.5781 5.28624 29.9384 5.02 29.2234 5.02V7.02ZM29.6581 7.2242C29.7994 7.35723 29.8194 7.44803 29.8194 7.532H31.8194C31.8194 6.83197 31.5221 6.2321 31.0288 5.7678L29.6581 7.2242ZM29.8194 7.532C29.8194 7.61713 29.8069 7.70708 29.7776 7.80465L31.6933 8.37935C31.776 8.10358 31.8194 7.8202 31.8194 7.532H29.8194ZM29.7776 7.80465C29.7694 7.83196 29.7474 7.88384 29.68 7.95963L31.1748 9.28836C31.4061 9.02816 31.5895 8.72537 31.6933 8.37935L29.7776 7.80465ZM29.6544 7.98962L25.4264 13.1416L26.9725 14.4104L31.2005 9.25838L29.6544 7.98962ZM27.0094 13.1895L25.2454 10.7535L23.6255 11.9265L25.3895 14.3625L27.0094 13.1895ZM25.2337 11.9423L28.6777 7.37835L27.0812 6.17365L23.6372 10.7377L25.2337 11.9423ZM28.683 7.37123C28.9102 7.06446 29.0828 7.02 29.2234 7.02V5.02C28.3187 5.02 27.5953 5.47954 27.0759 6.18077L28.683 7.37123ZM44.184 6.748L43.6363 7.5847L43.6451 7.59044L43.654 7.596L44.184 6.748ZM46.648 9.464L45.7593 9.92268L45.7652 9.93385L46.648 9.464ZM46.648 17.556L45.7621 17.092L45.7593 17.0974L46.648 17.556ZM44.212 20.3L44.7559 21.1392L44.7596 21.1367L44.212 20.3ZM38.696 20.916L39.0442 19.9786L38.696 20.916ZM36.96 19.992L36.3503 20.7846L36.3575 20.7902L36.3647 20.7956L36.96 19.992ZM35.812 18.872L34.9799 19.4267L34.9953 19.4498L35.012 19.472L35.812 18.872ZM35.42 17.892L35.0332 16.9698L34.42 17.227V17.892H35.42ZM36.288 17.528H37.288V16.0243L35.9012 16.6058L36.288 17.528ZM35.812 26.096L35.1049 25.3889L35.0948 25.399L35.085 25.4094L35.812 26.096ZM33.404 26.124L32.6969 26.8311L33.404 26.124ZM33.404 6.524L34.1111 7.23111L34.1212 7.22101L34.131 7.21062L33.404 6.524ZM35.812 6.524L35.085 7.21062L35.0948 7.22101L35.1049 7.23111L35.812 6.524ZM36.288 9.1L35.8201 9.98379L37.288 10.7609V9.1H36.288ZM35.812 8.848H34.812V9.45008L35.3441 9.73179L35.812 8.848ZM36.204 7.98L36.9933 8.59394L37.0013 8.58367L37.009 8.5732L36.204 7.98ZM37.268 6.944L37.868 7.744L37.8784 7.73616L37.8887 7.72805L37.268 6.944ZM38.808 6.076L38.4568 5.13962L38.447 5.14343L38.808 6.076ZM38.108 9.436L38.6627 10.268L38.108 9.436ZM36.652 11.116L35.7575 10.6688L35.7527 10.6785L36.652 11.116ZM36.652 15.904L35.744 16.3231L35.7506 16.3372L35.7575 16.3512L36.652 15.904ZM38.108 17.584L37.5533 18.416L38.108 17.584ZM42.392 17.584L41.8373 16.7519L41.8313 16.7559L41.8254 16.76L42.392 17.584ZM43.82 15.904L42.9209 15.466L42.9162 15.4759L43.82 15.904ZM43.82 11.116L42.9162 11.5441L42.9231 11.5586L42.9304 11.5728L43.82 11.116ZM42.392 9.436L41.8254 10.26L41.8313 10.2641L41.8373 10.268L42.392 9.436ZM40.684 6.74C41.8093 6.74 42.7832 7.02628 43.6363 7.5847L44.7316 5.9113C43.5314 5.12572 42.1719 4.74 40.684 4.74V6.74ZM43.654 7.596C44.5382 8.14866 45.2396 8.91555 45.7593 9.92264L47.5366 9.00536C46.8617 7.69778 45.9204 6.654 44.714 5.9L43.654 7.596ZM45.7652 9.93385C46.2923 10.924 46.572 12.1017 46.572 13.496H48.572C48.572 11.829 48.2357 10.3186 47.5307 8.99415L45.7652 9.93385ZM46.572 13.496C46.572 14.8899 46.2924 16.0797 45.7621 17.092L47.5338 18.02C48.2355 16.6803 48.572 15.1634 48.572 13.496H46.572ZM45.7593 17.0974C45.2361 18.1111 44.5377 18.8916 43.6643 19.4633L44.7596 21.1367C45.9396 20.3644 46.8652 19.3155 47.5366 18.0146L45.7593 17.0974ZM43.6681 19.4608C42.8314 20.0031 41.8838 20.28 40.796 20.28V22.28C42.2468 22.28 43.5765 21.9036 44.7559 21.1392L43.6681 19.4608ZM40.796 20.28C40.1596 20.28 39.5783 20.177 39.0442 19.9786L38.3478 21.8534C39.1203 22.1403 39.939 22.28 40.796 22.28V20.28ZM39.0442 19.9786C38.4694 19.7651 37.9757 19.4999 37.5552 19.1884L36.3647 20.7956C36.9523 21.2307 37.6159 21.5816 38.3478 21.8534L39.0442 19.9786ZM37.5697 19.1994C37.1352 18.8652 36.8237 18.5543 36.612 18.272L35.012 19.472C35.3603 19.9364 35.8141 20.3722 36.3503 20.7846L37.5697 19.1994ZM36.644 18.3173C36.5397 18.1608 36.4791 18.0432 36.4464 17.9616C36.413 17.8779 36.42 17.8597 36.42 17.892H34.42C34.42 18.4539 34.6854 18.9849 34.9799 19.4267L36.644 18.3173ZM35.8067 18.8142L36.6747 18.4502L35.9012 16.6058L35.0332 16.9698L35.8067 18.8142ZM35.288 17.528V24.892H37.288V17.528H35.288ZM35.288 24.892C35.288 25.136 35.2184 25.2753 35.1049 25.3889L36.5191 26.8031C37.0402 26.282 37.288 25.6187 37.288 24.892H35.288ZM35.085 25.4094C34.9669 25.5344 34.8337 25.6 34.608 25.6V27.6C35.3529 27.6 36.0224 27.3296 36.539 26.7826L35.085 25.4094ZM34.608 25.6C34.364 25.6 34.2247 25.5305 34.1111 25.4169L32.6969 26.8311C33.2179 27.3522 33.8813 27.6 34.608 27.6V25.6ZM34.1111 25.4169C34.0051 25.3109 33.928 25.1664 33.928 24.892H31.928C31.928 25.6256 32.1682 26.3025 32.6969 26.8311L34.1111 25.4169ZM33.928 24.892V7.728H31.928V24.892H33.928ZM33.928 7.728C33.928 7.48403 33.9975 7.34469 34.1111 7.23111L32.6969 5.81689C32.1758 6.33798 31.928 7.0013 31.928 7.728H33.928ZM34.131 7.21062C34.249 7.08563 34.3823 7.02 34.608 7.02V5.02C33.863 5.02 33.1936 5.29036 32.677 5.83738L34.131 7.21062ZM34.608 7.02C34.8337 7.02 34.9669 7.08563 35.085 7.21062L36.539 5.83738C36.0224 5.29036 35.3529 5.02 34.608 5.02V7.02ZM35.1049 7.23111C35.2184 7.34469 35.288 7.48403 35.288 7.728H37.288C37.288 7.0013 37.0402 6.33798 36.5191 5.81689L35.1049 7.23111ZM35.288 7.728V9.1H37.288V7.728H35.288ZM36.7559 8.21621L36.2799 7.96421L35.3441 9.73179L35.8201 9.98379L36.7559 8.21621ZM36.812 8.848C36.812 8.90519 36.7972 8.91402 36.8213 8.86059C36.8453 8.80761 36.8959 8.71924 36.9933 8.59394L35.4146 7.36606C35.1088 7.7593 34.812 8.26912 34.812 8.848H36.812ZM37.009 8.5732C37.1993 8.31503 37.478 8.0365 37.868 7.744L36.668 6.144C36.162 6.5235 35.7313 6.93564 35.3989 7.3868L37.009 8.5732ZM37.8887 7.72805C38.2516 7.44074 38.6758 7.19946 39.169 7.00857L38.447 5.14343C37.7828 5.40054 37.1804 5.73793 36.6473 6.15995L37.8887 7.72805ZM39.1591 7.01233C39.6414 6.83145 40.1476 6.74 40.684 6.74V4.74C39.9137 4.74 39.1692 4.87254 38.4568 5.13967L39.1591 7.01233ZM40.264 7.82C39.2677 7.82 38.3513 8.07195 37.5533 8.60395L38.6627 10.268C39.0967 9.97871 39.6176 9.82 40.264 9.82V7.82ZM37.5533 8.60395C36.7822 9.11802 36.1843 9.81526 35.7575 10.6688L37.5464 11.5632C37.829 10.9981 38.2018 10.5753 38.6627 10.268L37.5533 8.60395ZM35.7527 10.6785C35.3402 11.5264 35.148 12.4736 35.148 13.496H37.148C37.148 12.7264 37.2917 12.0869 37.5512 11.5535L35.7527 10.6785ZM35.148 13.496C35.148 14.5042 35.3418 15.4517 35.744 16.3231L37.5599 15.4849C37.2901 14.9003 37.148 14.2424 37.148 13.496H35.148ZM35.7575 16.3512C36.1843 17.2047 36.7822 17.902 37.5533 18.416L38.6627 16.7519C38.2018 16.4447 37.829 16.0219 37.5464 15.4568L35.7575 16.3512ZM37.5533 18.416C38.3513 18.948 39.2677 19.2 40.264 19.2V17.2C39.6176 17.2 39.0967 17.0413 38.6627 16.7519L37.5533 18.416ZM40.264 19.2C41.2597 19.2 42.1729 18.9482 42.9585 18.408L41.8254 16.76C41.4164 17.0412 40.9109 17.2 40.264 17.2V19.2ZM42.9467 18.416C43.7227 17.8987 44.315 17.195 44.7237 16.3321L42.9162 15.4759C42.653 16.0317 42.2933 16.4479 41.8373 16.7519L42.9467 18.416ZM44.719 16.342C45.1455 15.4664 45.352 14.5122 45.352 13.496H43.352C43.352 14.2345 43.2038 14.8856 42.921 15.466L44.719 16.342ZM45.352 13.496C45.352 12.4657 45.1472 11.5115 44.7095 10.6592L42.9304 11.5728C43.202 12.1018 43.352 12.7343 43.352 13.496H45.352ZM44.7237 10.6879C44.315 9.82504 43.7227 9.12127 42.9467 8.60395L41.8373 10.268C42.2933 10.5721 42.653 10.9883 42.9162 11.5441L44.7237 10.6879ZM42.9585 8.61196C42.1729 8.07184 41.2597 7.82 40.264 7.82V9.82C40.9109 9.82 41.4164 9.97882 41.8254 10.26L42.9585 8.61196ZM53.366 20.524L52.6589 19.8169L53.366 20.524ZM50.986 20.524L50.259 21.2106L50.2688 21.221L50.2789 21.2311L50.986 20.524ZM50.986 0.783998L50.2789 0.07689V0.0768919L50.986 0.783998ZM53.394 0.783998L52.6466 1.44836L52.6661 1.47033L52.6869 1.49111L53.394 0.783998ZM52.87 19.292C52.87 19.5185 52.8029 19.6729 52.6589 19.8169L54.0731 21.2311C54.6011 20.7031 54.87 20.0362 54.87 19.292H52.87ZM52.6589 19.8169C52.5453 19.9305 52.406 20 52.162 20V22C52.8887 22 53.552 21.7522 54.0731 21.2311L52.6589 19.8169ZM52.162 20C51.9488 20 51.8147 19.9385 51.6931 19.8169L50.2789 21.2311C50.7919 21.7442 51.4419 22 52.162 22V20ZM51.713 19.8374C51.5805 19.697 51.51 19.5361 51.51 19.292H49.51C49.51 20.0185 49.7569 20.679 50.259 21.2106L51.713 19.8374ZM51.51 19.292V1.988H49.51V19.292H51.51ZM51.51 1.988C51.51 1.74403 51.5795 1.60469 51.6931 1.49111L50.2789 0.0768919C49.7578 0.597979 49.51 1.2613 49.51 1.988H51.51ZM51.6931 1.49111C51.8371 1.34709 51.9915 1.28 52.218 1.28V-0.72C51.4738 -0.72 50.8069 -0.451091 50.2789 0.07689L51.6931 1.49111ZM52.218 1.28C52.4433 1.28 52.5541 1.34426 52.6466 1.44836L54.1414 0.119634C53.6366 -0.448267 52.9634 -0.72 52.218 -0.72V1.28ZM52.6869 1.49111C52.8005 1.60469 52.87 1.74403 52.87 1.988H54.87C54.87 1.2613 54.6222 0.597979 54.1011 0.0768919L52.6869 1.49111ZM52.87 1.988V19.292H54.87V1.988H52.87ZM70.7194 17.584L69.8571 17.0776L69.8547 17.0819L70.7194 17.584ZM67.9754 20.3L67.4838 19.4292L67.4778 19.4326L67.9754 20.3ZM60.2754 20.3L59.7778 21.1674L59.7838 21.1708L60.2754 20.3ZM57.5314 17.584L56.6632 18.0801L56.6679 18.0883L56.6727 18.0965L57.5314 17.584ZM57.5314 9.492L56.6691 8.98557L56.6666 8.98986L57.5314 9.492ZM60.2754 6.748L60.7731 7.61538L60.7776 7.61279L60.2754 6.748ZM67.9754 6.748L67.4672 7.60921L67.4755 7.6141L67.4838 7.61882L67.9754 6.748ZM70.7194 9.492L69.8512 9.98814L69.8559 9.99634L69.8607 10.0045L70.7194 9.492ZM67.8074 11.06L66.9225 11.5257L66.9299 11.5398L66.9378 11.5536L67.8074 11.06ZM66.2674 9.408L65.7419 10.2589L65.7529 10.2655L66.2674 9.408ZM61.9834 9.408L61.4689 8.55043L61.4579 8.5572L61.9834 9.408ZM60.4434 11.06L59.5682 10.5763L59.5637 10.5845L60.4434 11.06ZM60.4434 15.988L59.5585 16.4537L59.5659 16.4678L59.5738 16.4816L60.4434 15.988ZM61.9834 17.612L61.4579 18.4629L61.4689 18.4695L61.9834 17.612ZM66.2674 17.612L65.7529 16.7544L65.7419 16.7612L66.2674 17.612ZM67.8074 15.988L66.9322 15.5043L66.9277 15.5125L67.8074 15.988ZM70.7554 13.524C70.7554 14.8989 70.447 16.0732 69.8572 17.0776L71.5817 18.0904C72.3732 16.7427 72.7554 15.2104 72.7554 13.524H70.7554ZM69.8547 17.0819C69.2714 18.0864 68.4851 18.864 67.4838 19.4292L68.467 21.1708C69.7805 20.4294 70.8235 19.3963 71.5842 18.0861L69.8547 17.0819ZM67.4778 19.4326C66.5027 19.9921 65.398 20.28 64.1394 20.28V22.28C65.7182 22.28 67.1709 21.9146 68.4731 21.1674L67.4778 19.4326ZM64.1394 20.28C62.881 20.28 61.7642 19.9921 60.767 19.4292L59.7838 21.1708C61.1013 21.9146 62.5605 22.28 64.1394 22.28V20.28ZM60.7731 19.4326C59.7873 18.867 58.9953 18.0857 58.3902 17.0715L56.6727 18.0965C57.4489 19.397 58.4862 20.4263 59.7778 21.1674L60.7731 19.4326ZM58.3997 17.0879C57.8248 16.0818 57.5234 14.9037 57.5234 13.524H55.5234C55.5234 15.2056 55.8941 16.7342 56.6632 18.0801L58.3997 17.0879ZM57.5234 13.524C57.5234 12.1439 57.8249 10.9781 58.3962 9.99413L56.6666 8.98986C55.894 10.3206 55.5234 11.8427 55.5234 13.524H57.5234ZM58.3937 9.99842C58.9999 8.96632 59.7913 8.1787 60.7731 7.61537L59.7778 5.88063C58.4822 6.62397 57.4443 7.66568 56.6692 8.98558L58.3937 9.99842ZM60.7776 7.61279C61.7731 7.03472 62.8861 6.74 64.1394 6.74V4.74C62.5554 4.74 61.0924 5.11728 59.7733 5.88321L60.7776 7.61279ZM64.1394 6.74C65.3928 6.74 66.4937 7.03471 67.4672 7.60921L68.4837 5.88679C67.1798 5.11729 65.7234 4.74 64.1394 4.74V6.74ZM67.4838 7.61882C68.481 8.18174 69.2669 8.96556 69.8512 9.98814L71.5877 8.99586C70.828 7.66644 69.7845 6.62093 68.467 5.87718L67.4838 7.61882ZM69.8607 10.0045C70.4469 10.9867 70.7554 12.1488 70.7554 13.524H72.7554C72.7554 11.8379 72.3733 10.312 71.5782 8.97954L69.8607 10.0045ZM69.3954 13.524C69.3954 12.4333 69.17 11.4349 68.6771 10.5664L66.9378 11.5536C67.2288 12.0665 67.3954 12.7107 67.3954 13.524H69.3954ZM68.6924 10.5943C68.2384 9.7317 67.6006 9.04171 66.7819 8.55051L65.7529 10.2655C66.2409 10.5583 66.6298 10.9696 66.9225 11.5257L68.6924 10.5943ZM66.7929 8.5572C65.9921 8.06258 65.0992 7.82 64.1394 7.82V9.82C64.7477 9.82 65.2734 9.96941 65.7419 10.2588L66.7929 8.5572ZM64.1394 7.82C63.1797 7.82 62.2824 8.06246 61.4689 8.55051L62.4979 10.2655C62.9912 9.96954 63.5312 9.82 64.1394 9.82V7.82ZM61.4579 8.5572C60.6646 9.04719 60.0359 9.72996 59.5682 10.5763L61.3187 11.5437C61.635 10.9714 62.0329 10.5528 62.5089 10.2588L61.4579 8.5572ZM59.5637 10.5845C59.0963 11.4492 58.8834 12.441 58.8834 13.524H60.8834C60.8834 12.703 61.0439 12.0521 61.3231 11.5355L59.5637 10.5845ZM58.8834 13.524C58.8834 14.5929 59.0981 15.5789 59.5585 16.4537L61.3284 15.5223C61.0422 14.9785 60.8834 14.3218 60.8834 13.524H58.8834ZM59.5738 16.4816C60.0431 17.3086 60.6711 17.9768 61.4579 18.4628L62.5089 16.7612C62.0264 16.4632 61.6277 16.0487 61.3131 15.4944L59.5738 16.4816ZM61.4689 18.4695C62.2824 18.9575 63.1797 19.2 64.1394 19.2V17.2C63.5312 17.2 62.9912 17.0505 62.4979 16.7545L61.4689 18.4695ZM64.1394 19.2C65.0992 19.2 65.9921 18.9574 66.7929 18.4628L65.7419 16.7612C65.2734 17.0506 64.7477 17.2 64.1394 17.2V19.2ZM66.7819 18.4695C67.5939 17.9823 68.2313 17.3069 68.6871 16.4635L66.9277 15.5125C66.637 16.0504 66.2477 16.4577 65.7529 16.7545L66.7819 18.4695ZM68.6827 16.4717C69.1682 15.5931 69.3954 14.6006 69.3954 13.524H67.3954C67.3954 14.3141 67.2307 14.9642 66.9322 15.5043L68.6827 16.4717ZM74.8921 20.524L74.1651 21.2106L74.1749 21.221L74.185 21.2311L74.8921 20.524ZM74.8921 6.524L75.5992 7.23111L75.6093 7.22101L75.6191 7.21062L74.8921 6.524ZM77.3001 6.524L76.5731 7.21062L76.5829 7.22101L76.593 7.23111L77.3001 6.524ZM77.7761 10.36L76.7815 10.4639L78.7761 10.36H77.7761ZM77.5801 8.484L76.671 8.06734L76.5571 8.31594L76.5855 8.58791L77.5801 8.484ZM78.3641 7.308L77.6381 6.62025L77.6371 6.62138L78.3641 7.308ZM79.4841 6.44L79.9629 7.31789L79.978 7.30967L79.9928 7.30093L79.4841 6.44ZM83.6001 6.216L82.9524 6.97794L82.9616 6.9857L82.9709 6.99325L83.6001 6.216ZM83.7121 8.68L84.3478 9.45193L84.3609 9.4411L84.3737 9.42984L83.7121 8.68ZM81.6961 8.876L81.2732 9.78218L81.2842 9.7873L81.2953 9.79216L81.6961 8.876ZM79.6801 8.932L80.0862 9.84581L80.0973 9.84091L80.1082 9.83574L79.6801 8.932ZM78.7281 9.66L77.9807 8.99563L77.9701 9.00756L77.9599 9.01982L78.7281 9.66ZM78.0281 10.92L77.0903 10.5727L77.0866 10.5827L77.0831 10.5929L78.0281 10.92ZM77.3001 20.524L78.0072 21.2311L78.0173 21.221L78.0271 21.2106L77.3001 20.524ZM76.0961 20C75.8521 20 75.7128 19.9305 75.5992 19.8169L74.185 21.2311C74.7061 21.7522 75.3694 22 76.0961 22V20ZM75.6191 19.8374C75.4865 19.697 75.4161 19.5361 75.4161 19.292H73.4161C73.4161 20.0185 73.663 20.679 74.1651 21.2106L75.6191 19.8374ZM75.4161 19.292V7.728H73.4161V19.292H75.4161ZM75.4161 7.728C75.4161 7.48403 75.4856 7.34469 75.5992 7.23111L74.185 5.81689C73.6639 6.33798 73.4161 7.0013 73.4161 7.728H75.4161ZM75.6191 7.21062C75.7372 7.08563 75.8704 7.02 76.0961 7.02V5.02C75.3511 5.02 74.6817 5.29036 74.1651 5.83738L75.6191 7.21062ZM76.0961 7.02C76.3218 7.02 76.455 7.08563 76.5731 7.21062L78.0271 5.83738C77.5105 5.29036 76.8411 5.02 76.0961 5.02V7.02ZM76.593 7.23111C76.7066 7.34469 76.7761 7.48403 76.7761 7.728H78.7761C78.7761 7.0013 78.5283 6.33798 78.0072 5.81689L76.593 7.23111ZM76.7761 7.728V10.36H78.7761V7.728H76.7761ZM78.7707 10.2561L78.5747 8.38009L76.5855 8.58791L76.7815 10.4639L78.7707 10.2561ZM78.4892 8.90065C78.652 8.54538 78.8536 8.24607 79.0911 7.99462L77.6371 6.62138C77.2399 7.04193 76.9189 7.52662 76.671 8.06734L78.4892 8.90065ZM79.09 7.99574C79.3573 7.7136 79.6481 7.48963 79.9629 7.31789L79.0052 5.5621C78.4988 5.83837 78.0428 6.19307 77.6381 6.62025L79.09 7.99574ZM79.9928 7.30093C80.3172 7.10923 80.663 6.96929 81.0335 6.88039L80.5667 4.93561C80.0038 5.0707 79.4723 5.28544 78.9754 5.57907L79.9928 7.30093ZM81.0335 6.88039C81.4259 6.78621 81.8142 6.74 82.2001 6.74V4.74C81.6526 4.74 81.1076 4.80579 80.5667 4.93561L81.0335 6.88039ZM82.2001 6.74C82.5588 6.74 82.7856 6.83608 82.9524 6.97794L84.2477 5.45406C83.668 4.96125 82.9614 4.74 82.2001 4.74V6.74ZM82.9709 6.99325C83.1741 7.15774 83.1881 7.26273 83.1881 7.336H85.1881C85.1881 6.5506 84.8101 5.90892 84.2293 5.43875L82.9709 6.99325ZM83.1881 7.336C83.1881 7.79843 83.0696 7.91326 83.0505 7.93016L84.3737 9.42984C84.9892 8.88674 85.1881 8.10557 85.1881 7.336H83.1881ZM83.0764 7.90807C82.9188 8.03788 82.7936 8.072 82.6761 8.072V10.072C83.3052 10.072 83.8708 9.84479 84.3478 9.45193L83.0764 7.90807ZM82.6761 8.072C82.4471 8.072 82.2584 8.0305 82.0969 7.95984L81.2953 9.79216C81.7311 9.98283 82.1957 10.072 82.6761 10.072V8.072ZM82.119 7.96982C81.6819 7.76585 81.2056 7.68 80.7161 7.68V9.68C80.9732 9.68 81.1503 9.72482 81.2732 9.78218L82.119 7.96982ZM80.7161 7.68C80.2091 7.68 79.7181 7.80746 79.252 8.02826L80.1082 9.83574C80.3514 9.72053 80.551 9.68 80.7161 9.68V7.68ZM79.274 8.01819C78.7821 8.2368 78.3534 8.5763 77.9807 8.99563L79.4755 10.3244C79.7001 10.0717 79.9061 9.92587 80.0862 9.84581L79.274 8.01819ZM77.9599 9.01982C77.5927 9.46047 77.3078 9.98564 77.0903 10.5727L78.9658 11.2673C79.1217 10.8464 79.3035 10.5315 79.4963 10.3002L77.9599 9.01982ZM77.0831 10.5929C76.8694 11.2102 76.7761 11.9051 76.7761 12.656H78.7761C78.7761 12.0629 78.8508 11.6004 78.9731 11.2471L77.0831 10.5929ZM76.7761 12.656V19.292H78.7761V12.656H76.7761ZM76.7761 19.292C76.7761 19.5361 76.7056 19.697 76.5731 19.8374L78.0271 21.2106C78.5292 20.679 78.7761 20.0185 78.7761 19.292H76.7761ZM76.593 19.8169C76.4794 19.9305 76.3401 20 76.0961 20V22C76.8228 22 77.4861 21.7522 78.0072 21.2311L76.593 19.8169ZM88.5598 20.3L88.0577 21.1648L88.0659 21.1696L88.0742 21.1742L88.5598 20.3ZM85.8718 17.584L84.9922 18.0599L84.9983 18.0709L85.8718 17.584ZM85.9558 9.436L85.0901 8.93549L85.0876 8.93986L85.9558 9.436ZM88.6438 6.692L88.1445 5.82557L88.6438 6.692ZM94.8318 6.328L94.4089 7.23421L94.4165 7.23769L94.8318 6.328ZM97.0998 7.952L96.3733 8.63926L96.3828 8.64908L97.0998 7.952ZM98.6398 10.304L97.7167 10.6886L97.7201 10.6967L97.7237 10.7048L98.6398 10.304ZM99.2278 13.16L100.227 13.2016L100.228 13.1808V13.16H99.2278ZM98.6958 14.252L99.336 15.0202L98.6958 14.252ZM86.8238 14.672L85.866 14.9593L86.0798 15.672H86.8238V14.672ZM85.9838 11.872V10.872H84.6398L85.026 12.1593L85.9838 11.872ZM96.2598 11.872L96.9325 12.6119L98.8464 10.872H96.2598V11.872ZM95.6438 12.432H94.6438V14.6925L96.3165 13.1719L95.6438 12.432ZM95.6438 11.676H96.6438V11.6416L96.6414 11.6072L95.6438 11.676ZM95.0558 10.22L94.2683 10.8363L94.2764 10.8467L94.2849 10.8569L95.0558 10.22ZM93.7678 9.212L93.3075 10.0998L93.3269 10.1098L93.3467 10.119L93.7678 9.212ZM90.5758 9.044L90.8699 9.99978L90.5758 9.044ZM89.3158 9.8L90.0229 10.5071L89.3158 9.8ZM88.4758 11.228L89.4215 11.5531L88.4758 11.228ZM88.7838 16.072L87.9184 16.573L87.9262 16.5866L87.9345 16.5999L88.7838 16.072ZM90.4078 17.668L89.9117 18.5362L89.9262 18.5446L89.9411 18.5524L90.4078 17.668ZM94.1878 18.032L93.9247 17.0672L94.1878 18.032ZM95.1678 17.64L95.6919 18.4917L95.7003 18.4865L95.7086 18.4812L95.1678 17.64ZM95.8678 17.22L95.4206 16.3256L95.4046 16.3336L95.389 16.3421L95.8678 17.22ZM97.8278 17.388L97.0968 18.0703L97.1085 18.0829L97.1207 18.0951L97.8278 17.388ZM97.4638 19.74L96.846 18.9537L96.8317 18.9649L96.8179 18.9766L97.4638 19.74ZM95.4198 20.832L95.7421 21.7787L95.751 21.7756L95.7599 21.7724L95.4198 20.832ZM92.7038 20.28C91.2565 20.28 90.0483 19.983 89.0455 19.4258L88.0742 21.1742C89.4233 21.9237 90.9778 22.28 92.7038 22.28V20.28ZM89.062 19.4352C88.0558 18.851 87.29 18.0744 86.7453 17.0971L84.9983 18.0709C85.723 19.3709 86.7492 20.405 88.0577 21.1648L89.062 19.4352ZM86.7514 17.1082C86.2228 16.1312 85.9478 15.0098 85.9478 13.72H83.9478C83.9478 15.3048 84.2888 16.7594 84.9923 18.0598L86.7514 17.1082ZM85.9478 13.72C85.9478 12.1726 86.2568 10.9248 86.8241 9.93214L85.0876 8.93986C84.3108 10.2992 83.9478 11.9074 83.9478 13.72H85.9478ZM86.8215 9.9365C87.4321 8.88045 88.2068 8.09798 89.1431 7.55843L88.1445 5.82557C86.8781 6.55535 85.8609 7.60221 85.0901 8.9355L86.8215 9.9365ZM89.1431 7.55843C90.0976 7.00837 91.0928 6.74 92.1438 6.74V4.74C90.7308 4.74 89.3927 5.1063 88.1445 5.82557L89.1431 7.55843ZM92.1438 6.74C92.9538 6.74 93.705 6.90567 94.4089 7.23418L95.2547 5.42181C94.2786 4.96633 93.2379 4.74 92.1438 4.74V6.74ZM94.4165 7.23769C95.1572 7.57584 95.8078 8.04134 96.3733 8.6392L97.8263 7.2648C97.0852 6.48133 96.2237 5.86415 95.2471 5.41831L94.4165 7.23769ZM96.3828 8.64908C96.9453 9.2276 97.3901 9.90459 97.7167 10.6886L99.5629 9.91938C99.1429 8.91141 98.561 8.0204 97.8168 7.25492L96.3828 8.64908ZM97.7237 10.7048C98.0586 11.4705 98.2278 12.2856 98.2278 13.16H100.228C100.228 12.0184 100.005 10.9295 99.556 9.90318L97.7237 10.7048ZM98.2287 13.1184C98.2214 13.2924 98.1687 13.3896 98.0556 13.4838L99.336 15.0202C99.895 14.5544 100.197 13.9235 100.227 13.2016L98.2287 13.1184ZM98.0556 13.4838C97.904 13.6101 97.7401 13.672 97.5198 13.672V15.672C98.1955 15.672 98.8156 15.4539 99.336 15.0202L98.0556 13.4838ZM97.5198 13.672H86.8238V15.672H97.5198V13.672ZM87.7816 14.3847L86.9416 11.5847L85.026 12.1593L85.866 14.9593L87.7816 14.3847ZM85.9838 12.872H96.2598V10.872H85.9838V12.872ZM95.5871 11.1321L94.9711 11.6921L96.3165 13.1719L96.9325 12.6119L95.5871 11.1321ZM96.6438 12.432V11.676H94.6438V12.432H96.6438ZM96.6414 11.6072C96.5893 10.8517 96.3107 10.169 95.8268 9.58312L94.2849 10.8569C94.5102 11.1297 94.6236 11.4176 94.6462 11.7448L96.6414 11.6072ZM95.8433 9.60369C95.4043 9.04276 94.8466 8.61033 94.1889 8.30499L93.3467 10.119C93.7344 10.299 94.0353 10.5386 94.2683 10.8363L95.8433 9.60369ZM94.2281 8.32424C93.5791 7.9877 92.8795 7.82 92.1438 7.82V9.82C92.5655 9.82 92.9485 9.91363 93.3075 10.0998L94.2281 8.32424ZM92.1438 7.82C91.4943 7.82 90.8716 7.90673 90.2817 8.08822L90.8699 9.99978C91.2507 9.8826 91.6733 9.82 92.1438 9.82V7.82ZM90.2817 8.08822C89.6425 8.2849 89.0802 8.62141 88.6087 9.09289L90.0229 10.5071C90.2608 10.2693 90.5384 10.1018 90.8699 9.99978L90.2817 8.08822ZM88.6087 9.09289C88.1223 9.57929 87.7724 10.198 87.5301 10.9029L89.4215 11.5531C89.5899 11.0633 89.8 10.73 90.0229 10.5071L88.6087 9.09289ZM87.5301 10.9029C87.2766 11.6404 87.1678 12.5158 87.1678 13.496H89.1678C89.1678 12.6469 89.2643 12.0103 89.4215 11.5531L87.5301 10.9029ZM87.1678 13.496C87.1678 14.6398 87.4014 15.6801 87.9184 16.573L89.6492 15.571C89.3449 15.0453 89.1678 14.3682 89.1678 13.496H87.1678ZM87.9345 16.5999C88.4442 17.4199 89.1027 18.074 89.9117 18.5362L90.904 16.7998C90.4062 16.5154 89.9821 16.1054 89.6331 15.5441L87.9345 16.5999ZM89.9411 18.5524C90.7543 18.9816 91.6235 19.2 92.5358 19.2V17.2C91.9548 17.2 91.4053 17.0637 90.8746 16.7836L89.9411 18.5524ZM92.5358 19.2C93.2675 19.2 93.9182 19.1421 94.4509 18.9968L93.9247 17.0672C93.6361 17.1459 93.1854 17.2 92.5358 17.2V19.2ZM94.4509 18.9968C94.9129 18.8708 95.3387 18.709 95.6919 18.4917L94.6437 16.7883C94.5116 16.8696 94.284 16.9692 93.9247 17.0672L94.4509 18.9968ZM95.7086 18.4812C95.9558 18.3222 96.1679 18.1954 96.3467 18.0979L95.389 16.3421C95.157 16.4686 94.9025 16.6218 94.6271 16.7988L95.7086 18.4812ZM96.315 18.1144C96.5471 17.9984 96.7112 17.968 96.8198 17.968V15.968C96.3311 15.968 95.8606 16.1056 95.4206 16.3256L96.315 18.1144ZM96.8198 17.968C96.9757 17.968 97.0393 18.0088 97.0968 18.0703L98.5589 16.7057C98.0937 16.2072 97.4853 15.968 96.8198 15.968V17.968ZM97.1207 18.0951C97.2258 18.2002 97.2478 18.2772 97.2478 18.368H99.2478C99.2478 17.7121 98.9898 17.1358 98.5349 16.6809L97.1207 18.0951ZM97.2478 18.368C97.2478 18.4731 97.2104 18.6673 96.846 18.9537L98.0816 20.5263C98.7625 19.9913 99.2478 19.2709 99.2478 18.368H97.2478ZM96.8179 18.9766C96.455 19.2837 95.8928 19.5975 95.0797 19.8916L95.7599 21.7724C96.7015 21.4318 97.502 21.0177 98.1098 20.5034L96.8179 18.9766ZM95.0975 19.8853C94.3247 20.1484 93.5283 20.28 92.7038 20.28V22.28C93.746 22.28 94.7602 22.1129 95.7421 21.7787L95.0975 19.8853Z" fill="black" mask="url(#path-1-outside-1_107_1948)"/>
</g>
<defs>
<filter id="filter0_d_107_1948" x="0.100098" y="0.280029" width="103.128" height="34.3201" filterUnits="userSpaceOnUse" color-interpolation-filters="sRGB">
<feFlood flood-opacity="0" result="BackgroundImageFix"/>
<feColorMatrix in="SourceAlpha" type="matrix" values="0 0 0 0 0 0 0 0 0 0 0 0 0 0 0 0 0 0 127 0" result="hardAlpha"/>
<feOffset dy="4"/>
<feGaussianBlur stdDeviation="2"/>
<feComposite in2="hardAlpha" operator="out"/>
<feColorMatrix type="matrix" values="0 0 0 0 0 0 0 0 0 0 0 0 0 0 0 0 0 0 0.25 0"/>
<feBlend mode="normal" in2="BackgroundImageFix" result="effect1_dropShadow_107_1948"/>
<feBlend mode="normal" in="SourceGraphic" in2="effect1_dropShadow_107_1948" result="shape"/>
</filter>
</defs>
</svg>
