<svg width="36" height="36" viewBox="0 0 36 36" fill="none" xmlns="http://www.w3.org/2000/svg">
<rect width="36" height="36" rx="10" fill="#CFCFD1"/>
<mask id="mask0_152_850" style="mask-type:alpha" maskUnits="userSpaceOnUse" x="6" y="6" width="24" height="24">
<rect x="6" y="6" width="24" height="24" fill="#D9D9D9"/>
</mask>
<g mask="url(#mask0_152_850)">
<path d="M17 19C17.2833 19 17.5208 18.9042 17.7125 18.7125C17.9042 18.5208 18 18.2833 18 18C18 17.7167 17.9042 17.4792 17.7125 17.2875C17.5208 17.0958 17.2833 17 17 17C16.7167 17 16.4792 17.0958 16.2875 17.2875C16.0958 17.4792 16 17.7167 16 18C16 18.2833 16.0958 18.5208 16.2875 18.7125C16.4792 18.9042 16.7167 19 17 19ZM13 27V25L19 24V12.875C19 12.625 18.925 12.4 18.775 12.2C18.625 12 18.4333 11.8833 18.2 11.85L13 11V9L18.5 9.9C19.2333 10.0333 19.8333 10.375 20.3 10.925C20.7667 11.475 21 12.1167 21 12.85V25.65L13 27ZM9 27V25H11V11C11 10.4333 11.1958 9.95833 11.5875 9.575C11.9792 9.19167 12.45 9 13 9H23C23.5667 9 24.0417 9.19167 24.425 9.575C24.8083 9.95833 25 10.4333 25 11V25H27V27H9ZM13 25H23V11H13V25Z" fill="#1C1B1F"/>
</g>
</svg>
