<svg width="50" height="50" viewBox="0 0 50 50" fill="none" xmlns="http://www.w3.org/2000/svg">
<rect opacity="0.12" width="50" height="50" rx="12" fill="#070A1C"/>
<path fill-rule="evenodd" clip-rule="evenodd" d="M20.484 13.199C23.3288 11.546 26.8256 11.5749 29.6438 13.2747C32.4343 15.0091 34.1302 18.1045 34.1145 21.4343C34.0495 24.7422 32.2309 27.8516 29.9577 30.2554C28.6457 31.649 27.178 32.8814 25.5845 33.9272C25.4204 34.0221 25.2406 34.0856 25.0541 34.1147C24.8746 34.107 24.6997 34.054 24.5453 33.9603C22.1126 32.3888 19.9784 30.3829 18.2453 28.0391C16.7951 26.0826 15.9712 23.7188 15.8855 21.2689C15.8836 17.9327 17.6391 14.852 20.484 13.199ZM22.1279 22.6495C22.6064 23.8292 23.736 24.5988 24.9891 24.5988C25.8101 24.6047 26.5993 24.2758 27.1808 23.6855C27.7624 23.0952 28.0879 22.2925 28.085 21.4562C28.0894 20.1797 27.3379 19.0265 26.1814 18.5349C25.0249 18.0433 23.6915 18.3104 22.8039 19.2114C21.9162 20.1124 21.6494 21.4697 22.1279 22.6495Z" fill="#070A1C"/>
<path opacity="0.4" d="M25.0002 38.0209C28.5958 38.0209 31.5106 37.438 31.5106 36.7188C31.5106 35.9997 28.5958 35.4167 25.0002 35.4167C21.4046 35.4167 18.4897 35.9997 18.4897 36.7188C18.4897 37.438 21.4046 38.0209 25.0002 38.0209Z" fill="#070A1C"/>
</svg>
