<svg height="512pt" viewBox="-154 0 512 512.00001" width="512pt" xmlns="http://www.w3.org/2000/svg">
    <path
        d="m163.496094 228.816406 8.398437-43.058594h21.851563l1.261718-54.636718-65.832031-9.902344v-14.554688h20.867188v-64c-.003907-20.648437-22.015625-42.664062-49.171875-42.664062s-49.171875 22.015625-49.171875 49.171875v27.316406l13.4375 21.855469v21.851562l-24.222657 9.265626c-19.828124 7.582031-32.921874 26.609374-32.921874 47.839843v41.238281h43.707031v28.339844c-4.644531 9.289063-8.558594 18.886719-11.742188 28.707032h10.777344c42.792969 0 83.011719-16.859376 112.761719-46.769532zm0 0" />
    <path
        d="m160.96875 349.378906 8.433594-24.222656c7.027344-20.183594 7.226562-41.972656.796875-62.089844-11.519531 9.371094-24.117188 17.421875-37.464844 23.835938-25.429687 12.222656-53.785156 18.683594-82 18.683594h-18.082031c-1.847656 11.160156-2.808594 22.484374-2.808594 33.863281v82.882812h131.125zm0 0" />
    <path d="m0 452.332031h203v59.667969h-203zm0 0" />
</svg>