<svg width="18" height="18" viewBox="0 0 18 18" fill="none" xmlns="http://www.w3.org/2000/svg">
<path d="M11.162 8.04433L11.4573 6.53055H12.2255L12.2698 4.60973L9.95543 4.2616V3.74991H10.689V1.49991C10.6889 0.773987 9.91505 0 8.96034 0C8.00563 0 7.23164 0.773987 7.23164 1.7287V2.68904L7.70406 3.4574V4.22562L6.85248 4.55136C6.1554 4.81792 5.69507 5.48685 5.69507 6.23323V7.68301H7.23164V8.67934C7.06836 9.0059 6.93076 9.34332 6.81883 9.68857H7.19772C8.70216 9.68857 10.1161 9.09585 11.162 8.04433Z" fill="black"/>
<path d="M11.0732 12.283L11.3697 11.4314C11.6168 10.7218 11.6238 9.95578 11.3978 9.24854C10.9928 9.57799 10.5499 9.86102 10.0806 10.0865C9.18661 10.5162 8.18974 10.7434 7.19781 10.7434H6.56212C6.49716 11.1357 6.46338 11.5338 6.46338 11.9339V14.8477H11.0732V12.283Z" fill="black"/>
<path d="M5.41406 15.9023H12.5508V18H5.41406V15.9023Z" fill="black"/>
</svg>
