<svg width="18" height="18" viewBox="0 0 512 512" fill="none" xmlns="http://www.w3.org/2000/svg">
    <path
        d="M314.278 230.515L322.151 190.148H342.637L343.82 138.926L282.102 129.643V115.998H301.665V55.9976C301.662 36.6396 281.026 16 255.567 16C230.108 16 209.468 36.6396 209.468 62.0986V87.7078L222.066 108.197V128.683L199.357 137.37C180.768 144.478 168.493 162.316 168.493 182.219V220.88H209.468V247.449C205.114 256.157 201.444 265.155 198.46 274.362H208.563C248.682 274.362 286.387 258.556 314.278 230.515Z"
        fill="white" />
    <path
        d="M311.908 343.543L319.815 320.834C326.403 301.912 326.59 281.485 320.562 262.625C309.762 271.41 297.952 278.958 285.438 284.971C261.598 296.43 235.015 302.487 208.563 302.487H191.612C189.879 312.949 188.978 323.566 188.978 334.234V411.936H311.908V343.543Z"
        fill="white" />
    <path d="M161 440.061H351.312V496H161V440.061Z" fill="white" />
</svg>
