<svg width="36" height="36" viewBox="0 0 36 36" fill="none" xmlns="http://www.w3.org/2000/svg">
<rect width="36" height="36" rx="10" fill="#CFCFD1"/>
<mask id="mask0_152_862" style="mask-type:alpha" maskUnits="userSpaceOnUse" x="6" y="6" width="24" height="24">
<rect x="6" y="6" width="24" height="24" fill="#D9D9D9"/>
</mask>
<g mask="url(#mask0_152_862)">
<path d="M18 28C16.6333 28 15.3417 27.7375 14.125 27.2125C12.9083 26.6875 11.8458 25.9708 10.9375 25.0625C10.0292 24.1542 9.3125 23.0917 8.7875 21.875C8.2625 20.6583 8 19.3667 8 18C8 16.6167 8.27083 15.3167 8.8125 14.1C9.35417 12.8833 10.0875 11.825 11.0125 10.925C11.9375 10.025 13.0167 9.3125 14.25 8.7875C15.4833 8.2625 16.8 8 18.2 8C19.5333 8 20.7917 8.22917 21.975 8.6875C23.1583 9.14583 24.1958 9.77917 25.0875 10.5875C25.9792 11.3958 26.6875 12.3542 27.2125 13.4625C27.7375 14.5708 28 15.7667 28 17.05C28 18.9667 27.4167 20.4375 26.25 21.4625C25.0833 22.4875 23.6667 23 22 23H20.15C20 23 19.8958 23.0417 19.8375 23.125C19.7792 23.2083 19.75 23.3 19.75 23.4C19.75 23.6 19.875 23.8875 20.125 24.2625C20.375 24.6375 20.5 25.0667 20.5 25.55C20.5 26.3833 20.2708 27 19.8125 27.4C19.3542 27.8 18.75 28 18 28ZM12.5 19C12.9333 19 13.2917 18.8583 13.575 18.575C13.8583 18.2917 14 17.9333 14 17.5C14 17.0667 13.8583 16.7083 13.575 16.425C13.2917 16.1417 12.9333 16 12.5 16C12.0667 16 11.7083 16.1417 11.425 16.425C11.1417 16.7083 11 17.0667 11 17.5C11 17.9333 11.1417 18.2917 11.425 18.575C11.7083 18.8583 12.0667 19 12.5 19ZM15.5 15C15.9333 15 16.2917 14.8583 16.575 14.575C16.8583 14.2917 17 13.9333 17 13.5C17 13.0667 16.8583 12.7083 16.575 12.425C16.2917 12.1417 15.9333 12 15.5 12C15.0667 12 14.7083 12.1417 14.425 12.425C14.1417 12.7083 14 13.0667 14 13.5C14 13.9333 14.1417 14.2917 14.425 14.575C14.7083 14.8583 15.0667 15 15.5 15ZM20.5 15C20.9333 15 21.2917 14.8583 21.575 14.575C21.8583 14.2917 22 13.9333 22 13.5C22 13.0667 21.8583 12.7083 21.575 12.425C21.2917 12.1417 20.9333 12 20.5 12C20.0667 12 19.7083 12.1417 19.425 12.425C19.1417 12.7083 19 13.0667 19 13.5C19 13.9333 19.1417 14.2917 19.425 14.575C19.7083 14.8583 20.0667 15 20.5 15ZM23.5 19C23.9333 19 24.2917 18.8583 24.575 18.575C24.8583 18.2917 25 17.9333 25 17.5C25 17.0667 24.8583 16.7083 24.575 16.425C24.2917 16.1417 23.9333 16 23.5 16C23.0667 16 22.7083 16.1417 22.425 16.425C22.1417 16.7083 22 17.0667 22 17.5C22 17.9333 22.1417 18.2917 22.425 18.575C22.7083 18.8583 23.0667 19 23.5 19ZM18 26C18.15 26 18.2708 25.9583 18.3625 25.875C18.4542 25.7917 18.5 25.6833 18.5 25.55C18.5 25.3167 18.375 25.0417 18.125 24.725C17.875 24.4083 17.75 23.9333 17.75 23.3C17.75 22.6 17.9917 22.0417 18.475 21.625C18.9583 21.2083 19.55 21 20.25 21H22C23.1 21 24.0417 20.6792 24.825 20.0375C25.6083 19.3958 26 18.4 26 17.05C26 15.0333 25.2292 13.3542 23.6875 12.0125C22.1458 10.6708 20.3167 10 18.2 10C15.9333 10 14 10.775 12.4 12.325C10.8 13.875 10 15.7667 10 18C10 20.2167 10.7792 22.1042 12.3375 23.6625C13.8958 25.2208 15.7833 26 18 26Z" fill="#1C1B1F"/>
</g>
</svg>
