<svg width="33" height="32" viewBox="0 0 33 32" fill="none" xmlns="http://www.w3.org/2000/svg">
<mask id="mask0_152_918" style="mask-type:alpha" maskUnits="userSpaceOnUse" x="0" y="0" width="33" height="32">
<rect x="0.5" width="32" height="32" fill="#D9D9D9"/>
</mask>
<g mask="url(#mask0_152_918)">
<path d="M3.16675 9.33341V2.66675H9.83341V5.33341H5.83341V9.33341H3.16675ZM3.16675 29.3334V22.6667H5.83341V26.6667H9.83341V29.3334H3.16675ZM23.1667 29.3334V26.6667H27.1667V22.6667H29.8334V29.3334H23.1667ZM27.1667 9.33341V5.33341H23.1667V2.66675H29.8334V9.33341H27.1667ZM23.8334 23.3334H25.8334V25.3334H23.8334V23.3334ZM23.8334 19.3334H25.8334V21.3334H23.8334V19.3334ZM21.8334 21.3334H23.8334V23.3334H21.8334V21.3334ZM19.8334 23.3334H21.8334V25.3334H19.8334V23.3334ZM17.8334 21.3334H19.8334V23.3334H17.8334V21.3334ZM21.8334 17.3334H23.8334V19.3334H21.8334V17.3334ZM19.8334 19.3334H21.8334V21.3334H19.8334V19.3334ZM17.8334 17.3334H19.8334V19.3334H17.8334V17.3334ZM25.8334 6.66675V14.6667H17.8334V6.66675H25.8334ZM15.1667 17.3334V25.3334H7.16675V17.3334H15.1667ZM15.1667 6.66675V14.6667H7.16675V6.66675H15.1667ZM13.1667 23.3334V19.3334H9.16675V23.3334H13.1667ZM13.1667 12.6667V8.66675H9.16675V12.6667H13.1667ZM23.8334 12.6667V8.66675H19.8334V12.6667H23.8334Z" fill="white"/>
</g>
</svg>
