<svg width="89" height="73" viewBox="0 0 89 73" fill="none" xmlns="http://www.w3.org/2000/svg">
<rect x="0.936768" y="1" width="87.3333" height="72" fill="black"/>
<g opacity="0.5">
<line y1="-0.5" x2="112.398" y2="-0.5" transform="matrix(0.767892 0.640579 -0.634551 0.772881 1.27637 1)" stroke="white"/>
<line y1="-0.5" x2="112.39" y2="-0.5" transform="matrix(0.773993 -0.633194 0.627143 0.778904 0.936768 72.5823)" stroke="white"/>
</g>
<path d="M33.0088 33.376C32.5888 33.376 32.2434 33.2547 31.9728 33.012C31.7114 32.76 31.5808 32.452 31.5808 32.088C31.5808 31.7147 31.7114 31.4067 31.9728 31.164C32.2434 30.912 32.5888 30.786 33.0088 30.786C33.4194 30.786 33.7554 30.912 34.0168 31.164C34.2874 31.4067 34.4228 31.7147 34.4228 32.088C34.4228 32.452 34.2874 32.76 34.0168 33.012C33.7554 33.2547 33.4194 33.376 33.0088 33.376ZM34.1988 34.188V42H31.8048V34.188H34.1988ZM45.7617 34.104C46.7323 34.104 47.5023 34.398 48.0717 34.986C48.6503 35.574 48.9397 36.3907 48.9397 37.436V42H46.5597V37.758C46.5597 37.254 46.4243 36.8667 46.1537 36.596C45.8923 36.316 45.5283 36.176 45.0617 36.176C44.595 36.176 44.2263 36.316 43.9557 36.596C43.6943 36.8667 43.5637 37.254 43.5637 37.758V42H41.1837V37.758C41.1837 37.254 41.0483 36.8667 40.7777 36.596C40.5163 36.316 40.1523 36.176 39.6857 36.176C39.219 36.176 38.8503 36.316 38.5797 36.596C38.3183 36.8667 38.1877 37.254 38.1877 37.758V42H35.7937V34.188H38.1877V35.168C38.4303 34.8413 38.7477 34.5847 39.1397 34.398C39.5317 34.202 39.975 34.104 40.4697 34.104C41.0577 34.104 41.5803 34.23 42.0377 34.482C42.5043 34.734 42.8683 35.0933 43.1297 35.56C43.4003 35.1307 43.769 34.7807 44.2357 34.51C44.7023 34.2393 45.211 34.104 45.7617 34.104ZM53.442 34.076C53.9927 34.076 54.4733 34.188 54.884 34.412C55.304 34.636 55.626 34.93 55.85 35.294V34.188H58.244V41.986C58.244 42.7047 58.0993 43.3533 57.81 43.932C57.53 44.52 57.096 44.9867 56.508 45.332C55.9293 45.6773 55.206 45.85 54.338 45.85C53.1807 45.85 52.2427 45.5747 51.524 45.024C50.8053 44.4827 50.3947 43.7453 50.292 42.812H52.658C52.7327 43.1107 52.91 43.344 53.19 43.512C53.47 43.6893 53.8153 43.778 54.226 43.778C54.7207 43.778 55.1127 43.6333 55.402 43.344C55.7007 43.064 55.85 42.6113 55.85 41.986V40.88C55.6167 41.244 55.2947 41.5427 54.884 41.776C54.4733 42 53.9927 42.112 53.442 42.112C52.798 42.112 52.2147 41.9487 51.692 41.622C51.1693 41.286 50.754 40.8147 50.446 40.208C50.1473 39.592 49.998 38.8827 49.998 38.08C49.998 37.2773 50.1473 36.5727 50.446 35.966C50.754 35.3593 51.1693 34.8927 51.692 34.566C52.2147 34.2393 52.798 34.076 53.442 34.076ZM55.85 38.094C55.85 37.4967 55.682 37.0253 55.346 36.68C55.0193 36.3347 54.618 36.162 54.142 36.162C53.666 36.162 53.26 36.3347 52.924 36.68C52.5973 37.016 52.434 37.4827 52.434 38.08C52.434 38.6773 52.5973 39.1533 52.924 39.508C53.26 39.8533 53.666 40.026 54.142 40.026C54.618 40.026 55.0193 39.8533 55.346 39.508C55.682 39.1627 55.85 38.6913 55.85 38.094Z" fill="#F3F8F9"/>
</svg>
