<svg width="78" height="50" viewBox="0 0 78 50" fill="none" xmlns="http://www.w3.org/2000/svg">
<rect width="78" height="50" rx="10" fill="#070A1C"/>
<path d="M47.1969 16.1662C47.2751 16.2137 47.3497 16.2641 47.4243 16.3171C47.4584 16.3391 47.4925 16.361 47.5276 16.3837C47.8231 16.6718 47.9751 17.0638 48 17.4702C47.9922 17.7163 47.9372 17.9215 47.8564 18.1532C47.8441 18.1892 47.8318 18.2251 47.8192 18.2622C47.6911 18.6348 47.5558 19.0048 47.4191 19.3743C47.3574 19.5409 47.296 19.7077 47.2346 19.8745C47.2023 19.9623 47.1699 20.0501 47.1376 20.1378C46.9787 20.5689 46.8213 21.0005 46.664 21.4322C46.392 22.1787 46.1191 22.9248 45.8452 23.6706C45.6163 24.2941 45.3884 24.9179 45.1609 25.5419C44.9043 26.2456 44.6469 26.9491 44.3888 27.6522C44.1757 28.2327 43.9633 28.8135 43.7515 29.3945C43.6581 29.6505 43.5647 29.9065 43.4713 30.1624C43.3921 30.3796 43.3129 30.5968 43.2337 30.814C43.1541 31.0322 43.0744 31.2504 42.9946 31.4686C42.9649 31.5499 42.9353 31.6312 42.9057 31.7125C42.7591 32.1149 42.6105 32.5164 42.4548 32.9153C42.4425 32.9476 42.4301 32.9799 42.4175 33.0131C42.2507 33.4347 41.9675 33.7024 41.5591 33.8994C41.2356 34.0364 40.8338 34.0257 40.5037 33.9141C40.0123 33.7072 39.7547 33.4013 39.5379 32.9217C39.5229 32.8892 39.5079 32.8568 39.4924 32.8234C39.3461 32.505 39.2052 32.1841 39.0658 31.8626C38.9894 31.6867 38.9126 31.5109 38.8358 31.3352C38.82 31.2992 38.8043 31.2632 38.7881 31.2262C38.6253 30.8545 38.4588 30.4846 38.2919 30.1148C37.9994 29.4664 37.7117 28.8159 37.4273 28.1639C37.4001 28.1018 37.3727 28.0397 37.3451 27.9778C37.2798 27.8305 37.2184 27.6834 37.1641 27.5316C37.0343 27.1758 37.0343 27.1758 36.7463 26.942C36.6584 26.9076 36.57 26.8747 36.4812 26.8428C36.3967 26.8065 36.3129 26.7687 36.2291 26.7308C36.135 26.6884 36.0405 26.647 35.9459 26.6058C35.7332 26.5133 35.5207 26.4204 35.3083 26.3272C35.2715 26.3111 35.2347 26.295 35.1968 26.2784C34.8233 26.1144 34.4515 25.9467 34.08 25.7784C33.5731 25.5489 33.0649 25.3227 32.5552 25.0995C32.2628 24.9715 31.9707 24.8429 31.6788 24.714C31.637 24.6956 31.637 24.6956 31.5944 24.6768C31.4237 24.6013 31.2534 24.5249 31.0834 24.4479C31.023 24.4211 31.023 24.4211 30.9613 24.3938C30.537 24.1996 30.2486 23.9278 30.0698 23.4895C29.9513 23.0836 29.9803 22.6014 30.183 22.2304C30.467 21.7801 30.8679 21.5939 31.3557 21.4191C31.3999 21.4028 31.4441 21.3866 31.4897 21.3699C31.609 21.3262 31.7284 21.2829 31.8479 21.2398C31.9741 21.1941 32.1001 21.148 32.2261 21.1019C32.4813 21.0087 32.7366 20.9161 32.9921 20.8237C33.1248 20.7756 33.2576 20.7275 33.3903 20.6793C33.6958 20.5685 34.0014 20.4577 34.307 20.3473C34.8422 20.154 35.3765 19.9584 35.9104 19.7616C36.6289 19.4968 37.3478 19.2331 38.0671 18.9703C38.1468 18.9412 38.2264 18.912 38.3061 18.8829C38.5428 18.7964 38.7794 18.71 39.0161 18.6235C39.4947 18.4486 39.9734 18.2736 40.452 18.0985C40.4938 18.0832 40.5355 18.068 40.5786 18.0522C41.1397 17.8469 41.7005 17.641 42.2612 17.4345C42.6307 17.2985 43.0003 17.1626 43.3698 17.0267C43.4076 17.0128 43.4076 17.0128 43.4461 16.9987C43.7819 16.8753 44.1177 16.7519 44.4536 16.6289C44.5926 16.5779 44.7316 16.5269 44.8706 16.4758C45.0014 16.4278 45.1322 16.3798 45.2631 16.3319C45.3342 16.3059 45.4052 16.2797 45.4763 16.2535C46.0628 16.0393 46.6052 15.8538 47.1969 16.1662Z" fill="#EAEAEA"/>
</svg>
