<svg width="100" height="100" viewBox="0 0 100 100" fill="none" xmlns="http://www.w3.org/2000/svg">
<rect width="100" height="100" fill="black"/>
<path d="M19.1542 43.1421C20.0114 43.3553 20.6266 43.6585 20.9965 44.1284C21.1051 44.5218 21.0972 44.9116 21.0919 45.3088C21.0932 45.4273 21.0944 45.5456 21.0958 45.6676C21.0985 45.9913 21.0979 46.3148 21.0955 46.6383C21.0936 46.9777 21.0954 47.317 21.0965 47.6563C21.0979 48.226 21.0961 48.7957 21.0926 49.3654C21.0886 50.0233 21.0898 50.681 21.094 51.3389C21.0973 51.9046 21.0978 52.4702 21.0958 53.0361C21.0947 53.3735 21.0946 53.7109 21.0969 54.0485C21.0989 54.4248 21.0959 54.801 21.0919 55.1773C21.0933 55.2887 21.0948 55.3999 21.0964 55.5146C21.0841 56.1234 21.0237 56.4872 20.2596 56.9495C19.556 57.3073 18.9915 57.3745 18.0488 57.3932C17.1059 57.3745 16.5416 57.3073 15.8379 56.9495C14.9327 56.4017 14.9961 55.8865 15.0057 55.1773C15.0045 55.0589 15.0031 54.9404 15.0018 54.8185C14.999 54.4949 14.9997 54.1714 15.0021 53.8477C15.0039 53.5085 15.0022 53.1691 15.001 52.8298C14.9997 52.26 15.0014 51.6903 15.005 51.1206C15.0089 50.4629 15.0077 49.805 15.0036 49.1473C15.0003 48.5815 14.9999 48.0158 15.0017 47.4501C15.0029 47.1127 15.0031 46.7751 15.0006 46.4377C14.9988 46.0614 15.0015 45.6852 15.0057 45.3088C15.0042 45.1975 15.0026 45.0862 15.0011 44.9716C15.0135 44.3626 15.074 43.9989 15.8379 43.5367C16.8091 43.0427 17.8845 43.0507 19.1542 43.1421Z" fill="white"/>
<path d="M30.1121 33.6096C30.7969 33.8233 31.2952 34.1265 31.5856 34.5998C31.6734 35.0181 31.6651 35.4332 31.6606 35.855C31.6614 35.9829 31.6624 36.1107 31.6633 36.2425C31.6657 36.5967 31.6646 36.951 31.6628 37.3052C31.6614 37.6875 31.6635 38.0697 31.665 38.452C31.6677 39.2007 31.6671 39.9493 31.6654 40.6979C31.664 41.3063 31.6639 41.9148 31.6646 42.5232C31.6646 42.6098 31.6647 42.6963 31.6649 42.7855C31.665 42.9614 31.6651 43.1373 31.6654 43.3133C31.6671 44.9627 31.6651 46.612 31.6619 48.2614C31.6593 49.6768 31.6597 51.0922 31.6625 52.5076C31.6657 54.1512 31.667 55.7946 31.6651 57.4382C31.6649 57.6135 31.6647 57.7886 31.6646 57.9639C31.6645 58.0501 31.6643 58.1363 31.6643 58.2252C31.6638 58.8328 31.6646 59.4405 31.666 60.0483C31.6677 60.7888 31.6672 61.5294 31.664 62.2699C31.6625 62.6478 31.6619 63.0257 31.6639 63.4035C31.666 63.8131 31.6635 64.2225 31.6606 64.632C31.6618 64.7517 31.6632 64.8712 31.6645 64.9944C31.6557 65.6193 31.6296 66.0093 30.9962 66.4813C30.4334 66.8405 29.982 66.9081 29.2279 66.9268C28.4738 66.9081 28.0224 66.8405 27.4597 66.4813C26.708 65.9211 26.7873 65.3599 26.7954 64.632C26.7944 64.5042 26.7935 64.3763 26.7926 64.2445C26.7901 63.8903 26.7914 63.536 26.7932 63.1818C26.7944 62.7996 26.7925 62.4173 26.7908 62.035C26.7882 61.2863 26.7887 60.5377 26.7904 59.7891C26.7918 59.1807 26.7919 58.5723 26.7914 57.9639C26.7912 57.8773 26.7911 57.7907 26.7911 57.7015C26.7908 57.5256 26.7907 57.3497 26.7905 57.1739C26.7887 55.5245 26.7907 53.875 26.7939 52.2256C26.7965 50.8102 26.7961 49.3948 26.7933 47.9795C26.7903 46.3359 26.789 44.6924 26.7908 43.0488C26.791 42.8737 26.7911 42.6984 26.7914 42.5232C26.7914 42.437 26.7915 42.3507 26.7916 42.2618C26.7921 41.6542 26.7912 41.0465 26.7898 40.4388C26.7882 39.6982 26.7886 38.9576 26.7918 38.2171C26.7933 37.8392 26.794 37.4615 26.7921 37.0835C26.79 36.674 26.7923 36.2646 26.7954 35.855C26.794 35.7355 26.7928 35.6159 26.7914 35.4926C26.8001 34.8678 26.8263 34.4777 27.4597 34.0057C28.2364 33.51 29.0965 33.5179 30.1121 33.6096Z" fill="#EEC70A"/>
<path d="M40.6807 38.376C41.4127 38.604 41.7693 38.8942 42.1544 39.3648C42.2368 39.6633 42.234 39.9553 42.2292 40.2582C42.2302 40.347 42.231 40.436 42.232 40.5276C42.2343 40.8252 42.2325 41.1225 42.2306 41.42C42.2314 41.6334 42.2325 41.847 42.2338 42.0604C42.2364 42.6398 42.2354 43.2193 42.2335 43.7987C42.2321 44.4052 42.2335 45.0115 42.2343 45.6177C42.2354 46.636 42.234 47.6543 42.2313 48.6725C42.2279 49.8498 42.229 51.0272 42.2322 52.2044C42.235 53.2151 42.2353 54.2259 42.2338 55.2366C42.2329 55.8403 42.2328 56.444 42.2347 57.0478C42.2364 57.6153 42.2352 58.1828 42.2318 58.7504C42.231 58.9587 42.2313 59.1671 42.2325 59.3755C42.2342 59.6598 42.2321 59.9439 42.2292 60.2282C42.2306 60.3108 42.2318 60.3932 42.2332 60.4783C42.2226 61.003 42.0775 61.2966 41.5649 61.715C41.002 62.0738 40.5506 62.1412 39.7964 62.16C39.0423 62.1412 38.5909 62.0738 38.028 61.715C37.4125 61.2127 37.3537 60.8508 37.3637 60.2282C37.3624 60.0949 37.3624 60.0949 37.361 59.9588C37.3586 59.6613 37.3604 59.3639 37.3622 59.0664C37.3615 58.853 37.3604 58.6395 37.3592 58.4261C37.3565 57.8466 37.3575 57.2671 37.3594 56.6877C37.3608 56.0813 37.3594 55.475 37.3586 54.8687C37.3575 53.8503 37.3589 52.8321 37.3617 51.8139C37.3649 50.6365 37.3639 49.4593 37.3607 48.282C37.3579 47.2713 37.3576 46.2606 37.3592 45.2499C37.36 44.6461 37.3601 44.0425 37.3582 43.4387C37.3565 42.8712 37.3576 42.3035 37.3611 41.736C37.3619 41.5276 37.3617 41.3194 37.3604 41.111C37.3587 40.8267 37.3608 40.5425 37.3637 40.2582C37.3617 40.1343 37.3617 40.1343 37.3597 40.0081C37.3703 39.4834 37.5154 39.1898 38.028 38.7715C38.8049 38.2763 39.665 38.2842 40.6807 38.376Z" fill="#29F2FF"/>
<path d="M51.2499 28.0446C51.983 28.2735 52.3297 28.5674 52.7236 29.0356C52.7974 29.3808 52.7974 29.3808 52.7977 29.7697C52.7991 29.8778 52.7991 29.8778 52.8003 29.9882C52.8026 30.23 52.8005 30.4716 52.7984 30.7135C52.7991 30.8885 52.8 31.0636 52.8012 31.2386C52.8037 31.7197 52.8024 32.2008 52.8006 32.6819C52.7994 33.2008 52.8013 33.7196 52.803 34.2385C52.8056 35.2549 52.805 36.2713 52.8034 37.2878C52.802 38.1138 52.8019 38.9397 52.8024 39.7656C52.8025 39.8831 52.8027 40.0006 52.8027 40.1215C52.803 40.3603 52.8031 40.5988 52.8032 40.8374C52.8049 43.076 52.8031 45.3145 52.7999 47.5531C52.7973 49.4746 52.7977 51.3961 52.8005 53.3177C52.8035 55.5481 52.8048 57.7785 52.803 60.009C52.8028 60.2467 52.8027 60.4845 52.8024 60.7222C52.8024 60.8392 52.8023 60.9562 52.8021 61.0767C52.8017 61.9018 52.8025 62.7271 52.8039 63.5522C52.8056 64.5575 52.8052 65.5627 52.802 66.568C52.8005 67.0812 52.7998 67.5942 52.8017 68.1073C52.8035 68.5768 52.8025 69.0463 52.7995 69.5158C52.7988 69.6858 52.7991 69.8558 52.8006 70.0258C52.8023 70.2568 52.8005 70.4874 52.7977 70.7182C52.7977 70.8465 52.7975 70.9748 52.7974 71.107C52.6863 71.6263 52.3211 71.9274 51.7657 72.2822C51.0047 72.5198 50.3069 72.518 49.4817 72.4432C48.7487 72.2144 48.402 71.9205 48.0082 71.4522C47.9342 71.107 47.9342 71.107 47.9339 70.7182C47.9331 70.6462 47.9322 70.574 47.9313 70.4996C47.9292 70.2579 47.9313 70.0162 47.9332 69.7743C47.9325 69.5993 47.9317 69.4243 47.9304 69.2492C47.9281 68.7681 47.9292 68.2871 47.931 67.8059C47.9324 67.2871 47.9303 66.7682 47.9288 66.2494C47.9261 65.233 47.9267 64.2166 47.9284 63.2C47.9297 62.3741 47.9299 61.5481 47.9292 60.7222C47.9292 60.6047 47.929 60.4872 47.9289 60.3663C47.9288 60.1276 47.9286 59.889 47.9284 59.6504C47.9267 57.4119 47.9286 55.1733 47.9318 52.9347C47.9345 51.0133 47.9339 49.0917 47.9313 47.1701C47.9281 44.9397 47.9268 42.7093 47.9286 40.4788C47.9289 40.2411 47.9291 40.0034 47.9292 39.7656C47.9293 39.5901 47.9293 39.5901 47.9295 39.4111C47.93 38.586 47.9292 37.7608 47.9278 36.9357C47.9261 35.9304 47.9265 34.9251 47.9297 33.9198C47.9313 33.4067 47.9318 32.8937 47.9299 32.3805C47.9282 31.911 47.929 31.4416 47.9322 30.9721C47.9329 30.802 47.9325 30.632 47.9311 30.462C47.9293 30.2311 47.9311 30.0004 47.9339 29.7697C47.9341 29.6413 47.9342 29.513 47.9342 29.3808C48.0454 28.8615 48.4106 28.5604 48.9659 28.2056C49.727 27.968 50.4248 27.9698 51.2499 28.0446Z" fill="white"/>
<path d="M61.819 38.376C62.5509 38.604 62.9075 38.8942 63.2926 39.3648C63.3751 39.6633 63.3723 39.9553 63.3674 40.2582C63.3684 40.347 63.3694 40.436 63.3702 40.5276C63.3726 40.8252 63.3708 41.1225 63.369 41.42C63.3697 41.6334 63.3708 41.847 63.372 42.0604C63.3747 42.6398 63.3737 43.2193 63.3717 43.7987C63.3704 44.4052 63.3717 45.0115 63.3726 45.6177C63.3737 46.636 63.3723 47.6543 63.3695 48.6725C63.3663 49.8498 63.3673 51.0272 63.3705 52.2044C63.3733 53.2151 63.3735 54.2259 63.372 55.2366C63.3712 55.8403 63.371 56.444 63.373 57.0478C63.3747 57.6153 63.3735 58.1828 63.3701 58.7504C63.3692 58.9587 63.3695 59.1671 63.3708 59.3755C63.3724 59.6598 63.3703 59.9439 63.3674 60.2282C63.3688 60.3108 63.3701 60.3932 63.3715 60.4783C63.3609 61.003 63.2158 61.2966 62.7032 61.715C62.1403 62.0738 61.6888 62.1412 60.9348 62.16C60.1806 62.1412 59.7292 62.0738 59.1663 61.715C58.5509 61.2127 58.492 60.8508 58.502 60.2282C58.5006 60.0949 58.5006 60.0949 58.4992 59.9588C58.4968 59.6613 58.4987 59.3639 58.5006 59.0664C58.4998 58.853 58.4987 58.6395 58.4974 58.4261C58.4948 57.8466 58.4957 57.2671 58.4977 56.6877C58.4991 56.0813 58.4977 55.475 58.4969 54.8687C58.4957 53.8503 58.4971 52.8321 58.4999 51.8139C58.5032 50.6365 58.5021 49.4593 58.4989 48.282C58.4962 47.2713 58.4959 46.2606 58.4974 45.2499C58.4982 44.6461 58.4984 44.0425 58.4964 43.4387C58.4948 42.8712 58.496 42.3035 58.4994 41.736C58.5002 41.5276 58.4999 41.3194 58.4987 41.111C58.497 40.8267 58.4991 40.5425 58.502 40.2582C58.5 40.1343 58.5 40.1343 58.498 40.0081C58.5085 39.4834 58.6537 39.1898 59.1663 38.7715C59.9431 38.2763 60.8033 38.2842 61.819 38.376Z" fill="#EEC70A"/>
<path d="M72.3883 33.6096C73.0731 33.8233 73.5714 34.1265 73.8618 34.5998C73.9495 35.0181 73.9413 35.4332 73.9366 35.855C73.9376 35.9829 73.9386 36.1107 73.9395 36.2425C73.9419 36.5967 73.9406 36.951 73.9388 37.3052C73.9376 37.6875 73.9397 38.0697 73.9412 38.452C73.9438 39.2007 73.9433 39.9493 73.9416 40.6979C73.9402 41.3063 73.9401 41.9148 73.9406 42.5232C73.9408 42.6098 73.9409 42.6963 73.9409 42.7855C73.9412 42.9614 73.9413 43.1373 73.9416 43.3133C73.9433 44.9627 73.9413 46.612 73.9381 48.2614C73.9355 49.6768 73.9359 51.0922 73.9387 52.5076C73.9419 54.1512 73.943 55.7946 73.9412 57.4382C73.9411 57.6135 73.9409 57.7886 73.9406 57.9639C73.9406 58.0501 73.9405 58.1363 73.9404 58.2252C73.9399 58.8328 73.9408 59.4405 73.9422 60.0483C73.9438 60.7888 73.9434 61.5294 73.9402 62.2699C73.9387 62.6478 73.9381 63.0257 73.9401 63.4035C73.9422 63.8131 73.9397 64.2225 73.9366 64.632C73.938 64.7517 73.9392 64.8712 73.9406 64.9944C73.9319 65.6193 73.9057 66.0093 73.2723 66.4813C72.7096 66.8405 72.2582 66.9081 71.5041 66.9268C70.75 66.9081 70.2986 66.8405 69.7358 66.4813C68.984 65.9211 69.0635 65.3599 69.0714 64.632C69.0706 64.5042 69.0696 64.3763 69.0687 64.2445C69.0663 63.8903 69.0674 63.536 69.0694 63.1818C69.0706 62.7996 69.0685 62.4173 69.067 62.035C69.0644 61.2863 69.0649 60.5377 69.0666 59.7891C69.068 59.1807 69.0681 58.5723 69.0674 57.9639C69.0674 57.8773 69.0673 57.7907 69.0671 57.7015C69.067 57.5256 69.0669 57.3497 69.0666 57.1739C69.0649 55.5245 69.0669 53.875 69.0701 52.2256C69.0727 50.8102 69.0723 49.3948 69.0695 47.9795C69.0663 46.3359 69.0651 44.6924 69.0669 43.0488C69.0671 42.8737 69.0673 42.6984 69.0674 42.5232C69.0676 42.437 69.0677 42.3507 69.0677 42.2618C69.0683 41.6542 69.0674 41.0465 69.066 40.4388C69.0644 39.6982 69.0648 38.9576 69.068 38.2171C69.0695 37.8392 69.0701 37.4615 69.0681 37.0835C69.066 36.674 69.0685 36.2646 69.0714 35.855C69.0702 35.7355 69.0689 35.6159 69.0676 35.4926C69.0763 34.8678 69.1024 34.4777 69.7358 34.0057C70.5126 33.51 71.3727 33.5179 72.3883 33.6096Z" fill="#29F2FF"/>
<path d="M82.9575 43.1421C83.6432 43.3553 84.1354 43.6585 84.4313 44.1284C84.5182 44.5218 84.5119 44.9116 84.5076 45.3088C84.5086 45.4273 84.5097 45.5456 84.5108 45.6676C84.5129 45.9913 84.5123 46.3148 84.5105 46.6383C84.509 46.9777 84.5104 47.317 84.5114 47.6563C84.5125 48.226 84.511 48.7957 84.5082 49.3654C84.505 50.0233 84.5061 50.681 84.5093 51.3389C84.5119 51.9046 84.5123 52.4702 84.5108 53.0361C84.5098 53.3735 84.5097 53.7109 84.5116 54.0485C84.5132 54.4248 84.5109 54.801 84.5076 55.1773C84.5089 55.2887 84.51 55.3999 84.5112 55.5146C84.5014 56.1234 84.453 56.4872 83.8418 56.9495C83.2789 57.3073 82.8274 57.3745 82.0732 57.3932C81.3189 57.3745 80.8674 57.3073 80.3045 56.9495C79.5803 56.4017 79.6311 55.8865 79.6387 55.1773C79.6376 55.0589 79.6366 54.9404 79.6355 54.8185C79.6334 54.4949 79.6338 54.1714 79.6358 53.8477C79.6373 53.5085 79.6359 53.1691 79.6349 52.8298C79.6338 52.26 79.6352 51.6903 79.6381 51.1206C79.6413 50.4629 79.6402 49.805 79.637 49.1473C79.6344 48.5815 79.634 48.0158 79.6355 47.4501C79.6365 47.1127 79.6366 46.7751 79.6345 46.4377C79.6331 46.0614 79.6354 45.6852 79.6387 45.3088C79.6374 45.1975 79.6363 45.0862 79.6351 44.9716C79.645 44.3626 79.6933 43.9989 80.3045 43.5367C81.0814 43.0427 81.9416 43.0507 82.9575 43.1421Z" fill="#29F2FF"/>
</svg>
