<svg width="145" height="113" viewBox="0 0 145 113" fill="none" xmlns="http://www.w3.org/2000/svg">
<g clip-path="url(#clip0_209_239)">
<path d="M88.4146 0.441406H56.5853C25.5782 0.441406 0.442017 25.5397 0.442017 56.5C0.442017 87.4603 25.5782 112.559 56.5853 112.559H88.4146C119.422 112.559 144.558 87.4603 144.558 56.5C144.558 25.5397 119.422 0.441406 88.4146 0.441406Z" stroke="#070A1C" stroke-width="0.5"/>
<path d="M88.4146 7.0625H56.5853C29.2405 7.0625 7.07312 29.1964 7.07312 56.5C7.07312 83.8036 29.2405 105.938 56.5853 105.938H88.4146C115.759 105.938 137.927 83.8036 137.927 56.5C137.927 29.1964 115.759 7.0625 88.4146 7.0625Z" fill="#070A1C"/>
<path d="M33.5766 47.4806C34.6669 47.7512 35.4494 48.1363 35.9199 48.7331C36.058 49.2328 36.0479 49.7279 36.0412 50.2323C36.0428 50.3827 36.0444 50.533 36.0462 50.688C36.0495 51.099 36.0488 51.5099 36.0458 51.9208C36.0433 52.3518 36.0456 52.7827 36.047 53.2136C36.0488 53.9371 36.0465 54.6607 36.0421 55.3842C36.037 56.2197 36.0386 57.055 36.0439 57.8905C36.0481 58.609 36.0486 59.3274 36.0462 60.046C36.0448 60.4745 36.0446 60.903 36.0476 61.3317C36.0501 61.8097 36.0463 62.2875 36.0412 62.7654C36.043 62.9068 36.0449 63.0481 36.0469 63.1937C36.0313 63.9669 35.9544 64.429 34.9825 65.016C34.0876 65.4705 33.3697 65.5558 32.1706 65.5796C30.9713 65.5558 30.2536 65.4705 29.3585 65.016C28.2071 64.3204 28.2878 63.666 28.3 62.7654C28.2984 62.615 28.2966 62.4645 28.295 62.3097C28.2915 61.8987 28.2924 61.4878 28.2954 61.0768C28.2977 60.646 28.2956 60.215 28.294 59.784C28.2924 59.0604 28.2945 58.3369 28.2991 57.6133C28.304 56.778 28.3025 55.9425 28.2973 55.1072C28.2931 54.3886 28.2926 53.6701 28.2949 52.9517C28.2964 52.5232 28.2966 52.0945 28.2934 51.666C28.2911 51.188 28.2947 50.7102 28.3 50.2323C28.298 50.0909 28.2961 49.9496 28.2941 49.804C28.3099 49.0306 28.3868 48.5687 29.3585 47.9817C30.5938 47.3543 31.9616 47.3644 33.5766 47.4806Z" fill="white"/>
<path d="M47.5143 35.3743C48.3853 35.6457 49.0191 36.0308 49.3885 36.6318C49.5001 37.1631 49.4896 37.6903 49.4838 38.226C49.4849 38.3884 49.4861 38.5507 49.4873 38.718C49.4903 39.1679 49.4889 39.6178 49.4866 40.0677C49.4849 40.5532 49.4875 41.0386 49.4894 41.5241C49.4928 42.4749 49.4921 43.4257 49.49 44.3765C49.4882 45.1491 49.488 45.922 49.4889 46.6946C49.4889 46.8046 49.4891 46.9144 49.4893 47.0278C49.4894 47.2511 49.4896 47.4745 49.49 47.698C49.4921 49.7927 49.4896 51.8875 49.4856 53.9822C49.4822 55.7798 49.4827 57.5774 49.4863 59.375C49.4903 61.4623 49.4919 63.5494 49.4896 65.6368C49.4893 65.8594 49.4891 66.0819 49.4889 66.3045C49.4887 66.414 49.4886 66.5234 49.4886 66.6363C49.4879 67.408 49.4889 68.1798 49.4907 68.9517C49.4928 69.8921 49.4923 70.8326 49.4882 71.7732C49.4863 72.2531 49.4856 72.733 49.488 73.2129C49.4907 73.733 49.4875 74.253 49.4838 74.773C49.4854 74.925 49.4872 75.0768 49.4887 75.2333C49.4776 76.0269 49.4444 76.5222 48.6387 77.1216C47.9229 77.5779 47.3488 77.6637 46.3896 77.6875C45.4305 77.6637 44.8563 77.5779 44.1405 77.1216C43.1844 76.4102 43.2854 75.6975 43.2956 74.773C43.2944 74.6107 43.2932 74.4483 43.2921 74.2809C43.2889 73.831 43.2905 73.3811 43.2928 72.9313C43.2944 72.4459 43.2919 71.9603 43.2898 71.4748C43.2865 70.524 43.2872 69.5732 43.2893 68.6224C43.2911 67.8498 43.2912 67.0772 43.2905 66.3045C43.2903 66.1945 43.2902 66.0845 43.2902 65.9712C43.2898 65.7478 43.2896 65.5245 43.2895 65.3011C43.2872 63.2064 43.2896 61.1115 43.2937 59.0167C43.2971 57.2191 43.2965 55.4216 43.293 53.6241C43.2891 51.5368 43.2875 49.4495 43.2898 47.3622C43.29 47.1397 43.2902 46.9171 43.2905 46.6946C43.2905 46.5851 43.2907 46.4755 43.2909 46.3627C43.2914 45.5909 43.2903 44.8192 43.2886 44.0474C43.2865 43.1069 43.287 42.1663 43.2911 41.2258C43.293 40.7459 43.2939 40.2661 43.2914 39.7861C43.2888 39.2661 43.2918 38.7461 43.2956 38.226C43.2939 38.0741 43.2923 37.9223 43.2905 37.7657C43.3017 36.9722 43.3349 36.4768 44.1405 35.8773C45.1285 35.2477 46.2225 35.2578 47.5143 35.3743Z" fill="#EEC70A"/>
<path d="M60.9567 41.4275C61.8878 41.7171 62.3413 42.0858 62.8311 42.6834C62.936 43.0625 62.9325 43.4333 62.9263 43.818C62.9275 43.9308 62.9286 44.0438 62.9298 44.1602C62.9328 44.538 62.9305 44.9157 62.928 45.2936C62.9291 45.5646 62.9305 45.8358 62.9321 46.1068C62.9355 46.8427 62.9342 47.5786 62.9318 48.3145C62.93 49.0847 62.9318 49.8547 62.9328 50.6247C62.9342 51.9178 62.9325 53.2111 62.9289 54.5043C62.9247 55.9994 62.9261 57.4947 62.9302 58.9899C62.9337 60.2735 62.9341 61.5571 62.9321 62.8407C62.931 63.6075 62.9309 64.3741 62.9333 65.1409C62.9355 65.8617 62.9339 66.5824 62.9296 67.3033C62.9286 67.5678 62.9289 67.8325 62.9305 68.0971C62.9326 68.4582 62.93 68.8191 62.9263 69.1802C62.928 69.285 62.9296 69.3897 62.9314 69.4978C62.918 70.1641 62.7334 70.537 62.0814 71.0683C61.3654 71.524 60.7912 71.6097 59.8319 71.6335C58.8728 71.6097 58.2987 71.524 57.5827 71.0683C56.7998 70.4304 56.725 69.9708 56.7378 69.1802C56.736 69.0108 56.736 69.0108 56.7342 68.838C56.7312 68.4601 56.7335 68.0825 56.7358 67.7046C56.7349 67.4336 56.7335 67.1624 56.7319 66.8914C56.7286 66.1555 56.7298 65.4196 56.7323 64.6836C56.7341 63.9135 56.7323 63.1435 56.7312 62.3735C56.7298 61.0802 56.7316 59.787 56.7351 58.4939C56.7392 56.9986 56.738 55.5035 56.7339 54.0083C56.7304 52.7247 56.73 51.4411 56.7319 50.1575C56.733 49.3907 56.7332 48.6241 56.7307 47.8572C56.7286 47.1365 56.73 46.4156 56.7344 45.6949C56.7355 45.4302 56.7351 45.1657 56.7335 44.9011C56.7314 44.54 56.7341 44.1791 56.7378 43.818C56.7351 43.6607 56.7351 43.6607 56.7327 43.5004C56.7461 42.834 56.9307 42.4611 57.5827 41.9299C58.5708 41.3009 59.6648 41.311 60.9567 41.4275Z" fill="#29F2FF"/>
<path d="M74.4001 28.3067C75.3325 28.5973 75.7735 28.9706 76.2745 29.5652C76.3684 30.0036 76.3684 30.0036 76.3687 30.4975C76.3705 30.6348 76.3705 30.6348 76.3721 30.775C76.3749 31.0821 76.3723 31.3889 76.3696 31.6962C76.3705 31.9185 76.3717 32.1407 76.3731 32.363C76.3763 32.9741 76.3747 33.585 76.3724 34.1961C76.3708 34.855 76.3733 35.514 76.3754 36.1729C76.3788 37.4638 76.3781 38.7546 76.376 40.0456C76.3742 41.0946 76.374 42.1435 76.3747 43.1925C76.3749 43.3417 76.3751 43.4909 76.3751 43.6445C76.3754 43.9477 76.3756 44.2506 76.3758 44.5536C76.3779 47.3966 76.3756 50.2396 76.3715 53.0827C76.3682 55.5229 76.3687 57.9634 76.3723 60.4038C76.3761 63.2364 76.3777 66.069 76.3754 68.9018C76.3753 69.2037 76.3751 69.5056 76.3747 69.8075C76.3747 69.9562 76.3746 70.1047 76.3744 70.2578C76.3738 71.3057 76.3749 72.3537 76.3767 73.4016C76.3788 74.6784 76.3783 75.9551 76.3742 77.2318C76.3722 77.8835 76.3714 78.535 76.3738 79.1867C76.3761 79.783 76.3749 80.3792 76.371 80.9755C76.3701 81.1914 76.3705 81.4073 76.3724 81.6233C76.3745 81.9165 76.3723 82.2095 76.3687 82.5026C76.3687 82.6655 76.3685 82.8285 76.3684 82.9964C76.2271 83.6559 75.7625 84.0383 75.0561 84.4889C74.0881 84.7906 73.2006 84.7883 72.151 84.6933C71.2187 84.4027 70.7777 84.0295 70.2768 83.4348C70.1827 82.9964 70.1827 82.9964 70.1823 82.5026C70.1813 82.4111 70.1802 82.3195 70.179 82.225C70.1763 81.918 70.179 81.6111 70.1815 81.3039C70.1806 81.0816 70.1795 80.8593 70.1779 80.637C70.1749 80.0259 70.1763 79.415 70.1786 78.8039C70.1804 78.145 70.1777 77.4861 70.1758 76.8271C70.1724 75.5363 70.1731 74.2454 70.1753 72.9544C70.177 71.9055 70.1772 70.8565 70.1763 69.8075C70.1763 69.6583 70.1762 69.5091 70.176 69.3555C70.1758 69.0524 70.1756 68.7494 70.1753 68.4464C70.1731 65.6034 70.1756 62.7604 70.1797 59.9174C70.1831 57.4771 70.1823 55.0367 70.179 52.5962C70.1749 49.7636 70.1733 46.931 70.1756 44.0983C70.176 43.7963 70.1762 43.4944 70.1763 43.1925C70.1765 42.9695 70.1765 42.9695 70.1767 42.7423C70.1774 41.6944 70.1763 40.6463 70.1746 39.5984C70.1724 38.3217 70.173 37.0449 70.177 35.7682C70.179 35.1165 70.1797 34.465 70.1772 33.8133C70.1751 33.2171 70.1762 32.6208 70.1802 32.0246C70.1811 31.8086 70.1806 31.5927 70.1788 31.3768C70.1765 31.0835 70.1788 30.7906 70.1823 30.4975C70.1825 30.3345 70.1827 30.1715 70.1827 30.0036C70.3242 29.3442 70.7887 28.9617 71.4949 28.5112C72.4631 28.2094 73.3506 28.2117 74.4001 28.3067Z" fill="white"/>
<path d="M87.8431 41.4275C88.7741 41.7171 89.2276 42.0858 89.7175 42.6834C89.8223 43.0625 89.8188 43.4333 89.8126 43.818C89.8138 43.9308 89.8151 44.0438 89.8161 44.1602C89.8191 44.538 89.8168 44.9157 89.8145 45.2936C89.8154 45.5646 89.8168 45.8358 89.8184 46.1068C89.8218 46.8427 89.8205 47.5786 89.8181 48.3145C89.8163 49.0847 89.8181 49.8547 89.8191 50.6247C89.8205 51.9178 89.8188 53.2111 89.8152 54.5043C89.8112 55.9994 89.8124 57.4947 89.8165 58.9899C89.82 60.2735 89.8204 61.5571 89.8184 62.8407C89.8174 63.6075 89.8172 64.3741 89.8197 65.1409C89.8218 65.8617 89.8204 66.5824 89.8159 67.3033C89.8149 67.5678 89.8152 67.8325 89.8168 68.0971C89.819 68.4582 89.8163 68.8191 89.8126 69.1802C89.8144 69.285 89.8159 69.3897 89.8177 69.4978C89.8043 70.1641 89.6197 70.537 88.9677 71.0683C88.2517 71.524 87.6775 71.6097 86.7184 71.6335C85.7591 71.6097 85.185 71.524 84.469 71.0683C83.6863 70.4304 83.6114 69.9708 83.6241 69.1802C83.6223 69.0108 83.6223 69.0108 83.6206 68.838C83.6176 68.4601 83.6199 68.0825 83.6223 67.7046C83.6213 67.4336 83.6199 67.1624 83.6183 66.8914C83.6149 66.1555 83.6161 65.4196 83.6186 64.6836C83.6204 63.9135 83.6186 63.1435 83.6176 62.3735C83.6161 61.0802 83.6179 59.787 83.6214 58.4939C83.6257 56.9986 83.6243 55.5035 83.6202 54.0083C83.6167 52.7247 83.6163 51.4411 83.6183 50.1575C83.6193 49.3907 83.6195 48.6241 83.617 47.8572C83.6149 47.1365 83.6165 46.4156 83.6207 45.6949C83.6218 45.4302 83.6214 45.1657 83.6199 44.9011C83.6177 44.54 83.6204 44.1791 83.6241 43.818C83.6216 43.6607 83.6216 43.6607 83.619 43.5004C83.6324 42.834 83.817 42.4611 84.469 41.9299C85.4571 41.3009 86.5512 41.311 87.8431 41.4275Z" fill="#EEC70A"/>
<path d="M101.287 35.3743C102.158 35.6457 102.791 36.0308 103.161 36.6318C103.272 37.1631 103.262 37.6903 103.256 38.226C103.257 38.3884 103.258 38.5507 103.26 38.718C103.263 39.1679 103.261 39.6178 103.259 40.0677C103.257 40.5532 103.26 41.0386 103.262 41.5241C103.265 42.4749 103.264 43.4257 103.262 44.3765C103.261 45.1491 103.26 45.922 103.261 46.6946C103.261 46.8046 103.261 46.9144 103.261 47.0278C103.262 47.2511 103.262 47.4745 103.262 47.698C103.264 49.7927 103.262 51.8875 103.258 53.9822C103.255 55.7798 103.255 57.5774 103.259 59.375C103.263 61.4623 103.264 63.5494 103.262 65.6368C103.262 65.8594 103.261 66.0819 103.261 66.3045C103.261 66.414 103.261 66.5234 103.261 66.6363C103.26 67.408 103.261 68.1798 103.263 68.9517C103.265 69.8921 103.265 70.8326 103.261 71.7732C103.259 72.2531 103.258 72.733 103.26 73.2129C103.263 73.733 103.26 74.253 103.256 74.773C103.258 74.925 103.259 75.0768 103.261 75.2333C103.25 76.0269 103.217 76.5222 102.411 77.1216C101.695 77.5779 101.121 77.6637 100.162 77.6875C99.2028 77.6637 98.6287 77.5779 97.9129 77.1216C96.9566 76.4102 97.0577 75.6975 97.0678 74.773C97.0668 74.6107 97.0655 74.4483 97.0643 74.2809C97.0613 73.831 97.0627 73.3811 97.0652 72.9313C97.0667 72.4459 97.0641 71.9603 97.0622 71.4748C97.0588 70.524 97.0595 69.5732 97.0616 68.6224C97.0634 67.8498 97.0636 67.0772 97.0627 66.3045C97.0627 66.1945 97.0625 66.0845 97.0623 65.9712C97.0622 65.7478 97.062 65.5245 97.0616 65.3011C97.0595 63.2064 97.062 61.1115 97.066 59.0167C97.0694 57.2191 97.0689 55.4216 97.0653 53.6241C97.0613 51.5368 97.0597 49.4495 97.062 47.3622C97.0623 47.1397 97.0625 46.9171 97.0627 46.6946C97.0629 46.5851 97.063 46.4755 97.063 46.3627C97.0637 45.5909 97.0627 44.8192 97.0609 44.0474C97.0588 43.1069 97.0593 42.1663 97.0634 41.2258C97.0653 40.7459 97.066 40.2661 97.0636 39.7861C97.0609 39.2661 97.0641 38.7461 97.0678 38.226C97.0662 38.0741 97.0646 37.9223 97.0629 37.7657C97.074 36.9722 97.1072 36.4768 97.9129 35.8773C98.9008 35.2477 99.9949 35.2578 101.287 35.3743Z" fill="#29F2FF"/>
<path d="M114.73 47.4806C115.602 47.7512 116.228 48.1363 116.604 48.7331C116.715 49.2328 116.707 49.7279 116.701 50.2323C116.703 50.3827 116.704 50.533 116.706 50.688C116.708 51.099 116.707 51.5099 116.705 51.9208C116.703 52.3518 116.705 52.7827 116.706 53.2136C116.708 53.9371 116.706 54.6607 116.702 55.3842C116.698 56.2197 116.7 57.055 116.704 57.8905C116.707 58.609 116.707 59.3274 116.706 60.046C116.704 60.4745 116.704 60.903 116.707 61.3317C116.709 61.8097 116.706 62.2875 116.701 62.7654C116.703 62.9068 116.704 63.0481 116.706 63.1937C116.693 63.9669 116.632 64.429 115.855 65.016C115.139 65.4705 114.564 65.5558 113.605 65.5796C112.646 65.5558 112.071 65.4705 111.355 65.016C110.434 64.3204 110.499 63.666 110.509 62.7654C110.507 62.615 110.506 62.4645 110.504 62.3097C110.502 61.8987 110.502 61.4878 110.505 61.0768C110.507 60.646 110.505 60.215 110.504 59.784C110.502 59.0604 110.504 58.3369 110.508 57.6133C110.512 56.778 110.51 55.9425 110.506 55.1072C110.503 54.3886 110.503 53.6701 110.504 52.9517C110.506 52.5232 110.506 52.0945 110.503 51.666C110.501 51.188 110.504 50.7102 110.509 50.2323C110.507 50.0909 110.506 49.9496 110.504 49.804C110.516 49.0306 110.578 48.5687 111.355 47.9817C112.343 47.3543 113.438 47.3644 114.73 47.4806Z" fill="#29F2FF"/>
</g>
<defs>
<clipPath id="clip0_209_239">
<rect width="145" height="113" fill="white"/>
</clipPath>
</defs>
</svg>
