<svg width="50" height="32" viewBox="0 0 50 32" fill="none" xmlns="http://www.w3.org/2000/svg">
<path d="M2.98809 10.8916C3.60467 11.0448 4.04722 11.263 4.31328 11.601C4.3914 11.884 4.38569 12.1644 4.38187 12.4501C4.38279 12.5352 4.38372 12.6204 4.38468 12.7082C4.38661 12.9409 4.38616 13.1737 4.38448 13.4064C4.38313 13.6505 4.38438 13.8946 4.38521 14.1386C4.38618 14.5484 4.38491 14.9582 4.38238 15.368C4.3795 15.8412 4.38043 16.3143 4.38335 16.7875C4.38576 17.1944 4.38609 17.6013 4.38471 18.0082C4.38388 18.251 4.38377 18.4937 4.38552 18.7365C4.38687 19.0072 4.38482 19.2778 4.38187 19.5485C4.38294 19.6285 4.38401 19.7086 4.38512 19.7911C4.37627 20.229 4.33276 20.4907 3.7832 20.8232C3.27707 21.0806 2.8711 21.1289 2.19297 21.1424C1.51484 21.1289 1.10887 21.0806 0.602745 20.8232C-0.0484329 20.4292 -0.0027572 20.0586 0.00407987 19.5485C0.00315101 19.4633 0.00222215 19.3781 0.00126514 19.2904C-0.00066398 19.0576 -0.000217709 18.8249 0.00146608 18.5921C0.00281208 18.348 0.00156241 18.104 0.000731311 17.8599C-0.000231917 17.4501 0.00103484 17.0403 0.00356222 16.6305C0.00644683 16.1573 0.00551237 15.6842 0.00259415 15.211C0.000185401 14.8041 -0.000149296 14.3972 0.00123633 13.9903C0.00206094 13.7475 0.00217792 13.5048 0.000421933 13.2621C-0.000924219 12.9914 0.00112794 12.7207 0.00407987 12.4501C0.00300688 12.37 0.00193388 12.2899 0.000828371 12.2075C0.00967608 11.7695 0.0531825 11.5078 0.602745 11.1754C1.3013 10.8201 2.07478 10.8258 2.98809 10.8916Z" fill="white"/>
<path d="M10.8701 4.03505C11.3627 4.18871 11.7211 4.40682 11.93 4.74723C11.9931 5.04807 11.9872 5.34673 11.9839 5.65012C11.9845 5.74208 11.9852 5.83404 11.9859 5.92879C11.9876 6.18361 11.9868 6.43839 11.9855 6.6932C11.9845 6.96817 11.986 7.24314 11.9871 7.51812C11.989 8.05661 11.9886 8.5951 11.9874 9.13359C11.9864 9.57122 11.9863 10.0089 11.9868 10.4465C11.9868 10.5088 11.9869 10.571 11.987 10.6352C11.9871 10.7617 11.9872 10.8882 11.9874 11.0148C11.9886 12.2012 11.9872 13.3876 11.9849 14.574C11.983 15.5921 11.9833 16.6102 11.9853 17.6283C11.9876 18.8105 11.9885 19.9926 11.9872 21.1748C11.987 21.3009 11.9869 21.4269 11.9868 21.553C11.9867 21.615 11.9866 21.677 11.9866 21.7409C11.9862 22.178 11.9868 22.6151 11.9878 23.0523C11.989 23.5849 11.9887 24.1176 11.9864 24.6503C11.9853 24.9221 11.9849 25.1939 11.9863 25.4657C11.9878 25.7603 11.986 26.0548 11.9839 26.3493C11.9848 26.4354 11.9858 26.5214 11.9867 26.61C11.9804 27.0595 11.9616 27.34 11.506 27.6795C11.1012 27.9379 10.7765 27.9865 10.2341 28C9.69172 27.9865 9.367 27.9379 8.96218 27.6795C8.42147 27.2766 8.47861 26.8729 8.48436 26.3493C8.4837 26.2574 8.48304 26.1654 8.48236 26.0706C8.48059 25.8158 8.48146 25.5611 8.48278 25.3062C8.48374 25.0313 8.48225 24.7563 8.48109 24.4813C8.4792 23.9428 8.47961 23.4043 8.48084 22.8658C8.4818 22.4282 8.48193 21.9906 8.48147 21.553C8.4814 21.4907 8.48134 21.4284 8.48127 21.3642C8.48113 21.2377 8.481 21.1112 8.48086 20.9847C8.47965 19.7983 8.48104 18.6118 8.48332 17.4254C8.48521 16.4073 8.48488 15.3892 8.48293 14.3712C8.48066 13.189 8.47976 12.0068 8.48107 10.8246C8.4812 10.6986 8.48133 10.5725 8.48147 10.4465C8.48153 10.3845 8.4816 10.3224 8.48166 10.2585C8.48203 9.82142 8.48141 9.3843 8.48041 8.94718C8.47923 8.41449 8.47955 7.88182 8.48181 7.34914C8.48292 7.07733 8.48336 6.80555 8.48195 6.53375C8.48046 6.23919 8.48224 5.94468 8.48436 5.65012C8.48342 5.56409 8.48247 5.47806 8.4815 5.38942C8.48779 4.93997 8.5066 4.65939 8.96218 4.31992C9.52091 3.96328 10.1396 3.96897 10.8701 4.03505Z" fill="#EEC70A"/>
<path d="M18.4719 7.46347C18.9985 7.62753 19.255 7.83628 19.532 8.17482C19.5913 8.38948 19.5893 8.59953 19.5858 8.81739C19.5865 8.88136 19.5871 8.94533 19.5878 9.01124C19.5895 9.2252 19.5882 9.43911 19.5868 9.65308C19.5874 9.80663 19.5881 9.96019 19.5891 10.1137C19.591 10.5305 19.5903 10.9473 19.5889 11.3641C19.5878 11.8003 19.5888 12.2364 19.5895 12.6725C19.5903 13.405 19.5893 14.1374 19.5872 14.8698C19.5849 15.7167 19.5857 16.5635 19.588 17.4103C19.5899 18.1374 19.5902 18.8644 19.5891 19.5914C19.5884 20.0256 19.5883 20.4598 19.5897 20.8941C19.591 21.3023 19.5901 21.7106 19.5877 22.1188C19.5871 22.2687 19.5873 22.4185 19.5882 22.5684C19.5894 22.7729 19.5879 22.9773 19.5858 23.1818C19.5867 23.2412 19.5877 23.3006 19.5887 23.3617C19.5811 23.7391 19.4767 23.9503 19.1079 24.2512C18.7031 24.5093 18.3784 24.5578 17.8359 24.5713C17.2935 24.5578 16.9688 24.5093 16.5639 24.2512C16.1212 23.8899 16.0789 23.6296 16.086 23.1818C16.0851 23.0859 16.0851 23.0859 16.084 22.988C16.0824 22.774 16.0837 22.5601 16.085 22.3461C16.0844 22.1926 16.0837 22.039 16.0828 21.8855C16.0808 21.4687 16.0816 21.0519 16.0829 20.6351C16.084 20.1989 16.083 19.7628 16.0823 19.3267C16.0816 18.5943 16.0826 17.8618 16.0846 17.1294C16.0869 16.2826 16.0862 15.4357 16.0838 14.5889C16.0819 13.8619 16.0816 13.1349 16.0827 12.4079C16.0834 11.9736 16.0835 11.5394 16.0821 11.1051C16.0809 10.6969 16.0817 10.2887 16.0842 9.88042C16.0847 9.73056 16.0846 9.5807 16.0836 9.43084C16.0825 9.22633 16.0839 9.0219 16.086 8.81739C16.0846 8.72835 16.0846 8.72835 16.0832 8.63752C16.0908 8.2601 16.1952 8.04895 16.5639 7.74801C17.1227 7.39179 17.7414 7.39748 18.4719 7.46347Z" fill="#29F2FF"/>
<path d="M26.0744 0.0320805C26.6016 0.196703 26.851 0.408134 27.1344 0.744934C27.1875 0.993195 27.1875 0.993195 27.1877 1.27286C27.1887 1.35067 27.1887 1.35067 27.1896 1.43006C27.1911 1.60399 27.1897 1.77785 27.1882 1.95177C27.1887 2.07769 27.1894 2.2036 27.1902 2.32951C27.192 2.67559 27.1911 3.02165 27.1898 3.36772C27.1888 3.74092 27.1903 4.11411 27.1915 4.48731C27.1934 5.21843 27.193 5.94955 27.1917 6.68067C27.1908 7.27477 27.1906 7.86887 27.1911 8.46297C27.1912 8.54746 27.1912 8.63196 27.1913 8.71901C27.1914 8.89065 27.1916 9.06229 27.1917 9.23393C27.1929 10.8441 27.1915 12.4543 27.1893 14.0645C27.1874 15.4466 27.1877 16.8288 27.1896 18.211C27.1919 19.8153 27.1928 21.4196 27.1915 23.024C27.1914 23.195 27.1912 23.366 27.1911 23.537C27.191 23.6212 27.191 23.7053 27.1909 23.792C27.1905 24.3855 27.1912 24.9791 27.1922 25.5726C27.1933 26.2957 27.193 27.0188 27.1908 27.7419C27.1897 28.111 27.1892 28.48 27.1906 28.8491C27.1919 29.1868 27.1912 29.5245 27.1889 29.8622C27.1885 29.9845 27.1887 30.1068 27.1897 30.2291C27.191 30.3952 27.1897 30.5611 27.1877 30.7271C27.1877 30.8194 27.1876 30.9117 27.1875 31.0068C27.1076 31.3803 26.8449 31.5969 26.4454 31.8521C25.8979 32.023 25.396 32.0217 24.8025 31.9679C24.2753 31.8033 24.0259 31.5919 23.7425 31.2551C23.6894 31.0068 23.6894 31.0068 23.6892 30.7271C23.6886 30.6753 23.688 30.6234 23.6873 30.5699C23.6858 30.396 23.6872 30.2222 23.6887 30.0482C23.6882 29.9223 23.6875 29.7964 23.6867 29.6705C23.6849 29.3244 23.6858 28.9784 23.6871 28.6323C23.6881 28.2591 23.6866 27.8859 23.6854 27.5127C23.6835 26.7816 23.684 26.0505 23.6852 25.3193C23.6861 24.7252 23.6863 24.1311 23.6858 23.537C23.6857 23.4525 23.6857 23.368 23.6856 23.281C23.6855 23.1093 23.6853 22.9377 23.6852 22.7661C23.684 21.1559 23.6854 19.5457 23.6877 17.9355C23.6896 16.5534 23.6892 15.1712 23.6873 13.789C23.685 12.1847 23.6841 10.5804 23.6854 8.97601C23.6855 8.805 23.6857 8.63398 23.6858 8.46297C23.6859 8.33675 23.6859 8.33675 23.686 8.20797C23.6864 7.61446 23.6858 7.02095 23.6848 6.42743C23.6836 5.70432 23.6839 4.98122 23.6862 4.25811C23.6873 3.88903 23.6877 3.51997 23.6863 3.1509C23.685 2.8132 23.6857 2.47553 23.688 2.13783C23.6885 2.01551 23.6882 1.89318 23.6872 1.77087C23.6859 1.60483 23.6872 1.43889 23.6892 1.27286C23.6893 1.18057 23.6893 1.08828 23.6894 0.993195C23.7694 0.619687 24.0321 0.40313 24.4315 0.147919C24.979 -0.0230256 25.4809 -0.0216555 26.0744 0.0320805Z" fill="white"/>
<path d="M33.6768 7.46347C34.2033 7.62753 34.4598 7.83628 34.7368 8.17482C34.7961 8.38948 34.7941 8.59953 34.7906 8.81739C34.7913 8.88136 34.792 8.94533 34.7926 9.01124C34.7943 9.2252 34.793 9.43911 34.7917 9.65308C34.7922 9.80663 34.793 9.96019 34.7939 10.1137C34.7958 10.5305 34.7951 10.9473 34.7937 11.3641C34.7927 11.8003 34.7937 12.2364 34.7943 12.6725C34.7951 13.405 34.7941 14.1374 34.7921 14.8698C34.7898 15.7167 34.7905 16.5635 34.7928 17.4103C34.7948 18.1374 34.795 18.8644 34.7939 19.5914C34.7933 20.0256 34.7932 20.4598 34.7946 20.8941C34.7958 21.3023 34.795 21.7106 34.7925 22.1188C34.7919 22.2687 34.7921 22.4185 34.793 22.5684C34.7942 22.7729 34.7927 22.9773 34.7906 23.1818C34.7916 23.2412 34.7925 23.3006 34.7935 23.3617C34.7859 23.7391 34.6815 23.9503 34.3128 24.2512C33.9079 24.5093 33.5832 24.5578 33.0408 24.5713C32.4983 24.5578 32.1736 24.5093 31.7687 24.2512C31.3261 23.8899 31.2837 23.6296 31.2909 23.1818C31.2899 23.0859 31.2899 23.0859 31.2889 22.988C31.2872 22.774 31.2885 22.5601 31.2899 22.3461C31.2893 22.1926 31.2885 22.039 31.2876 21.8855C31.2857 21.4687 31.2864 21.0519 31.2878 20.6351C31.2888 20.1989 31.2878 19.7628 31.2872 19.3267C31.2864 18.5943 31.2874 17.8618 31.2894 17.1294C31.2918 16.2826 31.291 15.4357 31.2887 14.5889C31.2867 13.8619 31.2865 13.1349 31.2876 12.4079C31.2882 11.9736 31.2883 11.5394 31.2869 11.1051C31.2857 10.6969 31.2866 10.2887 31.289 9.88042C31.2896 9.73056 31.2894 9.5807 31.2885 9.43084C31.2873 9.22633 31.2888 9.0219 31.2909 8.81739C31.2895 8.72835 31.2895 8.72835 31.288 8.63752C31.2956 8.2601 31.4 8.04895 31.7687 7.74801C32.3275 7.39179 32.9462 7.39748 33.6768 7.46347Z" fill="#EEC70A"/>
<path d="M41.2793 4.03505C41.7719 4.18871 42.1303 4.40682 42.3392 4.74723C42.4023 5.04807 42.3964 5.34673 42.393 5.65012C42.3937 5.74208 42.3944 5.83404 42.3951 5.92879C42.3968 6.18361 42.3959 6.43839 42.3946 6.6932C42.3937 6.96817 42.3952 7.24314 42.3963 7.51812C42.3982 8.05661 42.3978 8.5951 42.3966 9.13359C42.3956 9.57122 42.3955 10.0089 42.3959 10.4465C42.396 10.5088 42.3961 10.571 42.3961 10.6352C42.3963 10.7617 42.3964 10.8882 42.3966 11.0148C42.3978 12.2012 42.3964 13.3876 42.3941 14.574C42.3922 15.5921 42.3925 16.6102 42.3945 17.6283C42.3968 18.8105 42.3976 19.9926 42.3963 21.1748C42.3962 21.3009 42.3961 21.4269 42.3959 21.553C42.3959 21.615 42.3958 21.677 42.3957 21.7409C42.3954 22.178 42.396 22.6151 42.397 23.0523C42.3982 23.5849 42.3979 24.1176 42.3956 24.6503C42.3945 24.9221 42.3941 25.1939 42.3955 25.4657C42.397 25.7603 42.3952 26.0548 42.393 26.3493C42.394 26.4354 42.3949 26.5214 42.3959 26.61C42.3896 27.0595 42.3708 27.34 41.9152 27.6795C41.5104 27.9379 41.1857 27.9865 40.6433 28C40.1009 27.9865 39.7762 27.9379 39.3714 27.6795C38.8306 27.2766 38.8878 26.8729 38.8935 26.3493C38.8929 26.2574 38.8922 26.1654 38.8915 26.0706C38.8898 25.8158 38.8906 25.5611 38.892 25.3062C38.8929 25.0313 38.8914 24.7563 38.8903 24.4813C38.8884 23.9428 38.8888 23.4043 38.89 22.8658C38.891 22.4282 38.8911 21.9906 38.8906 21.553C38.8906 21.4907 38.8905 21.4284 38.8904 21.3642C38.8903 21.2377 38.8902 21.1112 38.89 20.9847C38.8888 19.7983 38.8902 18.6118 38.8925 17.4254C38.8944 16.4073 38.8941 15.3892 38.8921 14.3712C38.8898 13.189 38.8889 12.0068 38.8902 10.8246C38.8904 10.6986 38.8905 10.5725 38.8906 10.4465C38.8907 10.3845 38.8908 10.3224 38.8908 10.2585C38.8912 9.82142 38.8906 9.3843 38.8896 8.94718C38.8884 8.41449 38.8887 7.88182 38.891 7.34914C38.8921 7.07733 38.8925 6.80555 38.8911 6.53375C38.8896 6.23919 38.8914 5.94468 38.8935 5.65012C38.8926 5.56409 38.8917 5.47806 38.8907 5.38942C38.897 4.93997 38.9158 4.65939 39.3714 4.31992C39.9301 3.96328 40.5488 3.96897 41.2793 4.03505Z" fill="#29F2FF"/>
<path d="M48.8817 10.8916C49.3749 11.0448 49.729 11.263 49.9418 11.601C50.0043 11.884 49.9998 12.1644 49.9967 12.4501C49.9974 12.5352 49.9982 12.6204 49.999 12.7082C50.0005 12.9409 50.0001 13.1737 49.9988 13.4064C49.9977 13.6505 49.9987 13.8946 49.9994 14.1386C50.0002 14.5484 49.9991 14.9582 49.9971 15.368C49.9948 15.8412 49.9956 16.3143 49.9979 16.7875C49.9998 17.1944 50.0001 17.6013 49.999 18.0082C49.9983 18.251 49.9982 18.4937 49.9996 18.7365C50.0007 19.0072 49.9991 19.2778 49.9967 19.5485C49.9976 19.6285 49.9984 19.7086 49.9993 19.7911C49.9922 20.229 49.9574 20.4907 49.5178 20.8232C49.1129 21.0806 48.7881 21.1289 48.2456 21.1424C47.7031 21.1289 47.3783 21.0806 46.9734 20.8232C46.4525 20.4292 46.489 20.0586 46.4945 19.5485C46.4937 19.4633 46.493 19.3781 46.4922 19.2904C46.4907 19.0576 46.491 18.8249 46.4924 18.5921C46.4935 18.348 46.4925 18.104 46.4918 17.8599C46.491 17.4501 46.492 17.0403 46.4941 16.6305C46.4964 16.1573 46.4956 15.6842 46.4933 15.211C46.4914 14.8041 46.4911 14.3972 46.4922 13.9903C46.4929 13.7475 46.493 13.5048 46.4915 13.2621C46.4905 12.9914 46.4921 12.7207 46.4945 12.4501C46.4936 12.37 46.4928 12.2899 46.4919 12.2075C46.499 11.7695 46.5338 11.5078 46.9734 11.1754C47.5322 10.8201 48.151 10.8258 48.8817 10.8916Z" fill="#29F2FF"/>
</svg>
