<svg width="88" height="80" viewBox="0 0 88 80" fill="none" xmlns="http://www.w3.org/2000/svg">
<path d="M51.4156 2.38876C53.2679 3.8507 54.4491 5.51366 55.5961 7.54771C55.8891 8.06651 56.1851 8.58353 56.4816 9.1004C56.948 9.91409 57.4134 10.7283 57.8778 11.5431C58.517 12.6647 59.1573 13.7857 59.798 14.9065C60.083 15.4052 60.3679 15.9038 60.6529 16.4025C60.767 16.6022 60.8811 16.8019 60.9952 17.0016C66.6443 26.8876 72.2934 36.7735 81.0238 52.0517C81.138 52.2515 81.2522 52.4514 81.3664 52.6512C81.6505 53.1483 81.9345 53.6455 82.2184 54.1427C82.7465 55.0675 83.2752 55.992 83.8066 56.9149C84.0539 57.3445 84.3007 57.7743 84.5476 58.2042C84.7191 58.5025 84.8912 58.8004 85.0634 59.0984C87.194 62.8103 88.4697 66.3533 87.4326 70.668C86.802 72.6748 85.8555 74.4085 84.4475 75.9748C84.3145 76.1317 84.3145 76.1317 84.1787 76.2917C82.3597 78.2935 79.3711 79.7943 76.6809 79.9441C75.9721 79.9572 75.2641 79.9594 74.5552 79.9578C74.2803 79.9584 74.0055 79.9592 73.7306 79.9601C72.9778 79.9622 72.2251 79.9622 71.4723 79.9618C70.6594 79.9617 69.8465 79.9636 69.0337 79.9652C67.4419 79.9681 65.8502 79.969 64.2585 79.9692C62.9641 79.9694 61.6698 79.9701 60.3754 79.9712C56.7031 79.9742 53.0307 79.9757 49.3584 79.9755C49.0616 79.9755 49.0616 79.9755 48.7588 79.9754C48.4616 79.9754 48.4616 79.9754 48.1584 79.9754C44.9489 79.9753 41.7395 79.9785 38.53 79.9834C35.2319 79.9883 31.9339 79.9907 28.6359 79.9904C26.7853 79.9902 24.9348 79.9912 23.0842 79.9949C21.5084 79.998 19.9325 79.9987 18.3567 79.9964C17.5534 79.9953 16.7501 79.9952 15.9469 79.9982C15.21 80.0009 14.4731 80.0004 13.7363 79.9975C13.4712 79.9969 13.2061 79.9975 12.941 79.9995C9.53349 80.0225 6.47381 79.0637 3.99145 76.6693C3.761 76.4397 3.5334 76.2073 3.306 75.9748C3.13521 75.8122 3.13521 75.8122 2.96096 75.6464C0.680112 73.3194 0 69.9625 0 66.8415C0.0507804 62.8365 2.3532 59.5817 4.29799 56.2128C4.94101 55.0989 5.57862 53.9819 6.21614 52.8648C6.44433 52.4654 6.67261 52.066 6.90088 51.6665C7.01501 51.4668 7.12913 51.2671 7.24325 51.0674C12.8923 41.1815 18.5414 31.2956 27.2718 16.0174C27.386 15.8175 27.5002 15.6177 27.6144 15.4179C27.8986 14.9204 28.183 14.4229 28.4675 13.9256C29.0551 12.8983 29.6409 11.8701 30.2241 10.8403C35.0328 2.35588 35.0328 2.35588 39.2548 0.824697C39.4344 0.757614 39.614 0.690531 39.7991 0.621415C43.705 -0.631269 48.069 0.0358598 51.4156 2.38876ZM39.259 8.19922C38.3697 9.30692 37.6769 10.4655 37.008 11.7163C36.7839 12.1287 36.5586 12.5404 36.3333 12.9521C36.2769 13.0553 36.2206 13.1586 36.1625 13.2651C35.6115 14.2724 35.0338 15.2635 34.4509 16.2527C33.6384 17.6344 32.8444 19.0247 32.065 20.4253C31.1858 22.0053 30.2843 23.5704 29.3689 25.1296C28.6546 26.3492 27.9592 27.5784 27.2719 28.8134C26.3926 30.3933 25.4912 31.9585 24.5757 33.5176C23.8614 34.7373 23.166 35.9664 22.4787 37.2014C21.5994 38.7813 20.698 40.3465 19.7825 41.9057C19.0683 43.1253 18.3728 44.3545 17.6855 45.5895C16.8063 47.1694 15.9048 48.7346 14.9894 50.2937C14.2751 51.5134 13.5797 52.7425 12.8923 53.9775C12.1051 55.3919 11.3038 56.7966 10.4851 58.193C9.67491 59.5759 8.87035 60.9618 8.07778 62.3549C7.98663 62.5139 7.89548 62.6729 7.80156 62.8368C6.66717 64.8387 5.77547 66.7583 6.42411 69.108C6.67901 69.7941 7.01041 70.4011 7.41443 71.0104C7.49299 71.1289 7.57155 71.2474 7.65249 71.3695C8.55235 72.5489 10.0395 73.379 11.4895 73.6768C12.0511 73.7513 12.5866 73.771 13.153 73.7714C13.3759 73.7719 13.5989 73.7725 13.8285 73.773C14.0747 73.7728 14.3209 73.7725 14.5671 73.7722C14.8296 73.7726 15.092 73.773 15.3545 73.7734C16.0753 73.7745 16.796 73.7744 17.5168 73.7742C18.2943 73.7742 19.0719 73.7752 19.8494 73.776C21.3725 73.7774 22.8957 73.7779 24.4188 73.778C25.6569 73.778 26.8949 73.7784 28.133 73.7789C31.6431 73.7804 35.1531 73.7812 38.6632 73.7811C38.8524 73.7811 39.0416 73.7811 39.2366 73.7811C39.5208 73.7811 39.5208 73.7811 39.8107 73.7811C42.8815 73.781 45.9522 73.7826 49.0229 73.785C52.1759 73.7875 55.3288 73.7887 58.4817 73.7885C60.2519 73.7885 62.022 73.7889 63.7922 73.7908C65.2993 73.7923 66.8064 73.7927 68.3135 73.7916C69.0823 73.791 69.8511 73.791 70.62 73.7925C71.3242 73.7938 72.0284 73.7936 72.7326 73.7921C72.9869 73.7918 73.2413 73.7921 73.4956 73.7931C75.9174 73.8016 77.8666 73.4977 79.7172 71.8322C81.0288 70.3857 81.6077 68.6105 81.5193 66.6786C81.185 64.3424 79.5528 62.1254 78.3803 60.1367C77.6464 58.8918 76.9327 57.6372 76.2307 56.3741C75.4474 54.9666 74.6497 53.5691 73.8341 52.1801C72.9145 50.6139 72.0211 49.0347 71.1379 47.4478C70.4532 46.2206 69.7524 45.0039 69.0409 43.792C68.1213 42.2258 67.2279 40.6467 66.3447 39.0597C65.6601 37.8325 64.9593 36.6158 64.2477 35.404C63.3281 33.8378 62.4348 32.2586 61.5516 30.6717C60.8669 29.4445 60.1661 28.2278 59.4546 27.0159C58.535 25.4498 57.6416 23.8706 56.7584 22.2836C55.9779 20.8846 55.174 19.5005 54.3626 18.1192C53.6398 16.8854 52.9382 15.6408 52.2434 14.3911C51.4974 13.055 50.7487 11.7207 49.9752 10.4003C49.898 10.265 49.8207 10.1297 49.7411 9.99026C48.9585 8.67086 47.9934 7.56985 46.5836 6.91245C46.4153 6.83147 46.2469 6.75048 46.0734 6.66704C43.7853 5.75496 40.9548 6.4143 39.259 8.19922Z" fill="black"/>
<path d="M45.6528 26.6307C46.2662 27.1564 46.7008 27.6134 46.9581 28.3854C46.9742 28.6199 46.9812 28.855 46.9821 29.0901C46.9831 29.2333 46.9841 29.3766 46.9851 29.5242C46.9853 29.6808 46.9855 29.8374 46.9857 29.9988C46.9869 30.2469 46.9869 30.2469 46.9882 30.5C46.9907 31.048 46.9919 31.596 46.9929 32.1441C46.9938 32.5247 46.9948 32.9053 46.9958 33.2859C46.9976 34.0844 46.9986 34.8829 46.9992 35.6815C47.0001 36.7044 47.0043 37.7273 47.0091 38.7502C47.0123 39.5366 47.0132 40.323 47.0135 41.1094C47.014 41.4865 47.0154 41.8636 47.0176 42.2407C47.0205 42.7684 47.0202 43.2962 47.0191 43.824C47.0215 44.0573 47.0215 44.0573 47.0239 44.2954C47.0181 45.17 46.934 45.7754 46.4445 46.5309C45.6105 47.3287 44.9518 47.7366 43.8019 47.7827C42.9336 47.7568 42.3333 47.56 41.7089 46.9268C41.1422 46.2822 40.7749 45.8613 40.7714 44.9844C40.7704 44.8399 40.7694 44.6954 40.7684 44.5466C40.7682 44.3878 40.7681 44.2289 40.7679 44.0653C40.767 43.8983 40.7662 43.7312 40.7653 43.5591C40.7628 43.0046 40.7616 42.4501 40.7607 41.8956C40.7597 41.5109 40.7587 41.1262 40.7577 40.7415C40.7559 39.9339 40.7549 39.1263 40.7543 38.3187C40.7534 37.284 40.7493 36.2495 40.7444 35.2149C40.7412 34.4198 40.7403 33.6247 40.74 32.8296C40.7395 32.4482 40.7382 32.0668 40.7359 31.6855C40.733 31.1515 40.7333 30.6176 40.7344 30.0837C40.7328 29.9262 40.7313 29.7688 40.7296 29.6066C40.7354 28.7273 40.8168 28.1179 41.309 27.3583C42.5859 26.1097 44.0442 25.7966 45.6528 26.6307Z" fill="black"/>
<path d="M46.6157 54.5767C47.4367 55.2951 47.9082 56.2039 48.046 57.2748C48.112 58.6667 47.8155 59.7839 46.8859 60.8463C45.7983 61.8287 44.757 62.0281 43.3398 61.9858C42.1437 61.8683 41.2509 61.2599 40.4531 60.3969C39.5786 59.2936 39.6169 57.9792 39.7683 56.6309C40.0644 55.4779 40.8735 54.7349 41.8225 54.0631C43.374 53.2521 45.2338 53.6114 46.6157 54.5767Z" fill="black"/>
</svg>
