<svg width="103" height="24" viewBox="0 0 103 24" fill="none" xmlns="http://www.w3.org/2000/svg">
<g clip-path="url(#clip0_228_603)">
<path d="M28.1942 9.75505C29.0618 9.75505 29.7651 9.05174 29.7651 8.18417C29.7651 7.31659 29.0618 6.61328 28.1942 6.61328C27.3266 6.61328 26.6233 7.31659 26.6233 8.18417C26.6233 9.05174 27.3266 9.75505 28.1942 9.75505Z" fill="#04B0BF"/>
<path d="M28.2257 13.6198C29.0932 13.6198 29.7966 12.9165 29.7966 12.0489C29.7966 11.1813 29.0932 10.478 28.2257 10.478C27.3581 10.478 26.6548 11.1813 26.6548 12.0489C26.6548 12.9165 27.3581 13.6198 28.2257 13.6198Z" fill="#04B0BF"/>
<path d="M31.8702 13.5129C32.7378 13.5129 33.4411 12.8096 33.4411 11.942C33.4411 11.0744 32.7378 10.3711 31.8702 10.3711C31.0026 10.3711 30.2993 11.0744 30.2993 11.942C30.2993 12.8096 31.0026 13.5129 31.8702 13.5129Z" fill="#04B0BF"/>
<path d="M10.3019 7.92702C9.9406 7.92702 9.59814 7.84848 9.28711 7.71338V22.3509C9.28711 22.6022 9.38136 22.8222 9.56987 23.0138C9.75838 23.2055 10.0003 23.2966 10.2956 23.2966C10.569 23.2966 10.7983 23.2023 10.99 23.0138C11.1816 22.8253 11.2727 22.6054 11.2727 22.3509V7.73223C10.9742 7.85476 10.6475 7.92702 10.3019 7.92702Z" fill="white"/>
<path d="M8.22202 3.0383C7.92983 2.62673 7.75389 2.13033 7.75389 1.58681C7.75389 1.46742 7.77275 1.35431 7.78845 1.24121H0.977091C0.703757 1.24121 0.474408 1.32604 0.28276 1.49255C0.0942532 1.66221 0 1.88213 0 2.15547C0 2.4288 0.0942532 2.64244 0.28276 2.80267C0.471266 2.95976 0.703757 3.0383 0.977091 3.0383H8.22516H8.22202Z" fill="white"/>
<path d="M12.3347 3.0383C12.6269 2.62673 12.8028 2.13033 12.8028 1.58681C12.8028 1.46742 12.784 1.35431 12.7683 1.24121H16.2902H19.5828C19.8561 1.24121 20.0855 1.32604 20.2771 1.49255C20.4656 1.66221 20.5599 1.88213 20.5599 2.15547C20.5599 2.4288 20.4656 2.64244 20.2771 2.80267C20.0886 2.95976 19.8561 3.0383 19.5828 3.0383H16.1237H12.3347Z" fill="white"/>
<path d="M6.6198 7.07505C7.49605 7.07505 8.20639 6.3647 8.20639 5.48845C8.20639 4.6122 7.49605 3.90186 6.6198 3.90186C5.74355 3.90186 5.0332 4.6122 5.0332 5.48845C5.0332 6.3647 5.74355 7.07505 6.6198 7.07505Z" fill="#FCCE10"/>
<path d="M6.6198 10.8675C7.49605 10.8675 8.20639 10.1572 8.20639 9.28093C8.20639 8.40468 7.49605 7.69434 6.6198 7.69434C5.74355 7.69434 5.0332 8.40468 5.0332 9.28093C5.0332 10.1572 5.74355 10.8675 6.6198 10.8675Z" fill="#FCCE10"/>
<path d="M10.3019 6.9686C11.1782 6.9686 11.8885 6.25826 11.8885 5.382C11.8885 4.50575 11.1782 3.79541 10.3019 3.79541C9.42568 3.79541 8.71533 4.50575 8.71533 5.382C8.71533 6.25826 9.42568 6.9686 10.3019 6.9686Z" fill="#FCCE10"/>
<path d="M10.3019 3.17319C11.1782 3.17319 11.8885 2.46285 11.8885 1.5866C11.8885 0.710343 11.1782 0 10.3019 0C9.42568 0 8.71533 0.710343 8.71533 1.5866C8.71533 2.46285 9.42568 3.17319 10.3019 3.17319Z" fill="#FCCE10"/>
<path d="M28.1943 5.6554C28.6561 5.6554 29.0802 5.78736 29.4541 6.00414V2.2183C29.4541 1.94497 29.3536 1.71248 29.1556 1.52397C28.9546 1.33546 28.7315 1.24121 28.477 1.24121C28.1817 1.24121 27.9429 1.33546 27.7513 1.52397C27.5628 1.71248 27.4685 1.94497 27.4685 2.2183V5.77479C27.701 5.70567 27.9398 5.6554 28.1943 5.6554Z" fill="white"/>
<path d="M28.2257 14.5782C27.9586 14.5782 27.7104 14.5248 27.4685 14.4494V22.3195C27.4685 22.5929 27.5533 22.8222 27.7198 23.0139C27.8864 23.2024 28.1283 23.2966 28.4456 23.2966C28.6969 23.2966 28.9231 23.2024 29.1242 23.0139C29.3222 22.8254 29.4321 22.5929 29.4541 22.3195V14.2515C29.0897 14.4588 28.6749 14.5782 28.2257 14.5782Z" fill="white"/>
<path d="M42.147 12.033C42.147 11.5209 41.7323 11.103 41.217 11.103H34.2454C34.3397 11.3669 34.3994 11.6466 34.3994 11.9387C34.3994 12.3032 34.3177 12.6488 34.1794 12.9598H41.217C41.7291 12.9598 42.147 12.5451 42.147 12.0299V12.033Z" fill="white"/>
<path d="M50.5196 20.2458C51.3872 20.2458 52.0905 19.5425 52.0905 18.6749C52.0905 17.8073 51.3872 17.104 50.5196 17.104C49.652 17.104 48.9487 17.8073 48.9487 18.6749C48.9487 19.5425 49.652 20.2458 50.5196 20.2458Z" fill="#0065A6"/>
<path d="M54.1956 24.0002C55.0632 24.0002 55.7665 23.2969 55.7665 22.4293C55.7665 21.5617 55.0632 20.8584 54.1956 20.8584C53.3281 20.8584 52.6248 21.5617 52.6248 22.4293C52.6248 23.2969 53.3281 24.0002 54.1956 24.0002Z" fill="#0065A6"/>
<path d="M61.9744 21.4365H56.5234C56.6554 21.7413 56.7277 22.0774 56.7277 22.4293C56.7277 22.7341 56.6648 23.0231 56.5643 23.2965H61.9744C62.2477 23.2965 62.4802 23.2116 62.6687 23.0451C62.8573 22.8786 62.9515 22.6555 62.9515 22.3822C62.9515 22.1309 62.8573 21.9109 62.6687 21.7193C62.4802 21.5308 62.2477 21.4365 61.9744 21.4365Z" fill="white"/>
<path d="M50.5196 16.1458C50.8589 16.1458 51.1856 16.2149 51.481 16.3374V12.8689H60.5544C60.8277 12.8689 61.0571 12.7841 61.2487 12.6176C61.4372 12.4511 61.5315 12.228 61.5315 11.9547C61.5315 11.7033 61.4372 11.4834 61.2487 11.2917C61.0602 11.1032 60.8277 11.009 60.5544 11.009H51.481V3.10114H61.9713C62.2447 3.10114 62.4772 3.01631 62.6657 2.8498C62.8542 2.68328 62.9484 2.46022 62.9484 2.18688C62.9484 1.91355 62.8542 1.68734 62.6657 1.50826C62.4772 1.32918 62.2447 1.24121 61.9713 1.24121H50.441C50.1677 1.24121 49.9415 1.33546 49.7624 1.52397C49.5833 1.71248 49.4954 1.9324 49.4954 2.18688V16.3657C49.8095 16.2275 50.152 16.1458 50.5164 16.1458H50.5196Z" fill="white"/>
<path d="M51.6664 22.4293C51.6664 22.0774 51.7386 21.7413 51.8706 21.4365C51.6726 21.4082 51.5156 21.2512 51.4873 21.0532L51.481 21.0092C51.1825 21.1318 50.8589 21.2009 50.5196 21.2009C50.1552 21.2009 49.8096 21.1192 49.4985 20.981V22.3476C49.4985 22.599 49.5865 22.8189 49.7656 23.0105C49.9447 23.2022 50.1709 23.2933 50.4442 23.2933H51.8297C51.7292 23.0231 51.6664 22.7309 51.6664 22.4262V22.4293Z" fill="white"/>
<path d="M75.1638 5.02349C74.8182 5.02349 74.4852 4.95437 74.1836 4.82556V22.3189C74.1836 22.5923 74.2684 22.8216 74.4349 23.0133C74.6015 23.2018 74.8434 23.296 75.1607 23.296C75.412 23.296 75.6382 23.2018 75.8393 23.0133C76.0372 22.8248 76.1472 22.5923 76.1692 22.3189V4.81299C75.8613 4.94808 75.522 5.02349 75.1638 5.02349Z" fill="white"/>
<path d="M75.1637 4.0656C76.0312 4.0656 76.7345 3.36229 76.7345 2.49471C76.7345 1.62714 76.0312 0.923828 75.1637 0.923828C74.2961 0.923828 73.5928 1.62714 73.5928 2.49471C73.5928 3.36229 74.2961 4.0656 75.1637 4.0656Z" fill="#04B0BF"/>
<path d="M71.4847 7.81999C72.3523 7.81999 73.0556 7.11669 73.0556 6.24911C73.0556 5.38153 72.3523 4.67822 71.4847 4.67822C70.6171 4.67822 69.9138 5.38153 69.9138 6.24911C69.9138 7.11669 70.6171 7.81999 71.4847 7.81999Z" fill="#04B0BF"/>
<path d="M101.966 22.0364L93.6813 1.77826C93.5964 1.58975 93.477 1.4358 93.32 1.3227C93.1629 1.20645 92.9681 1.1499 92.7387 1.1499C92.5282 1.1499 92.346 1.19703 92.1889 1.29128C92.0318 1.38554 91.9093 1.54891 91.8276 1.77826L83.5113 22.1307C83.4674 22.2783 83.4579 22.404 83.4799 22.5077C83.4799 22.7402 83.5522 22.9318 83.6998 23.0889C83.8475 23.246 84.0769 23.3245 84.3942 23.3245C84.5827 23.3245 84.7523 23.2711 84.8969 23.1674C85.0445 23.0638 85.1576 22.9067 85.2425 22.6962L87.5674 16.931H90.2002C90.1028 16.664 90.0431 16.3781 90.0431 16.0796C90.0431 15.7214 90.1216 15.3821 90.2536 15.0711H88.3151L92.6508 4.31681L97.0555 15.0711H94.8908C95.0259 15.379 95.1013 15.7214 95.1013 16.0796C95.1013 16.3812 95.0385 16.664 94.9443 16.931H97.8158L100.178 22.6962C100.263 22.8847 100.383 23.0386 100.54 23.1517C100.697 23.268 100.882 23.3245 101.09 23.3245C101.341 23.3245 101.561 23.246 101.752 23.0889C101.941 22.9318 102.035 22.7056 102.035 22.4103C102.035 22.2846 102.013 22.1589 101.972 22.0333L101.966 22.0364Z" fill="white"/>
<path d="M92.566 17.6506C93.4336 17.6506 94.1369 16.9473 94.1369 16.0797C94.1369 15.2121 93.4336 14.5088 92.566 14.5088C91.6984 14.5088 90.9951 15.2121 90.9951 16.0797C90.9951 16.9473 91.6984 17.6506 92.566 17.6506Z" fill="#FCCE10"/>
<path d="M42.3732 1.49223C42.1721 1.30373 41.949 1.20947 41.6945 1.20947C41.3992 1.20947 41.1604 1.30373 40.9688 1.49223C40.7803 1.68074 40.686 1.91323 40.686 2.18656V22.2876C40.686 22.561 40.7709 22.7903 40.9374 22.982C41.1039 23.1705 41.3458 23.2647 41.6631 23.2647C41.9145 23.2647 42.1407 23.1705 42.3418 22.982C42.5397 22.7934 42.6496 22.561 42.6716 22.2876V2.18656C42.6716 1.91323 42.5711 1.68074 42.3732 1.49223Z" fill="white"/>
</g>
<defs>
<clipPath id="clip0_228_603">
<rect width="102.029" height="24" fill="white"/>
</clipPath>
</defs>
</svg>
