<svg width="366" height="167" viewBox="0 0 366 167" fill="none" xmlns="http://www.w3.org/2000/svg">
<mask id="mask0_221_1001" style="mask-type:alpha" maskUnits="userSpaceOnUse" x="0" y="36" width="342" height="131">
<rect y="36" width="342" height="131" rx="20" fill="#397176"/>
</mask>
<g mask="url(#mask0_221_1001)">
<ellipse cx="357.285" cy="78.0375" rx="52.5419" ry="53.7687" fill="white" fill-opacity="0.15"/>
<path d="M297.014 -27.1514C310.186 -31.0171 324.26 -30.0894 336.839 -24.5263C349.417 -18.9632 359.722 -9.10892 365.996 3.35745C372.271 15.8238 374.128 30.131 371.25 43.8411C368.372 57.5513 360.938 69.8162 350.214 78.546C339.49 87.2759 326.141 91.9305 312.439 91.7168C298.738 91.5032 285.533 86.4344 275.074 77.3743C264.615 68.3141 257.55 55.8231 255.081 42.0296C252.613 28.2361 254.895 13.9934 261.538 1.72851L313.342 31.1119L297.014 -27.1514Z" fill="white" fill-opacity="0.15"/>
</g>
</svg>
